<?xml version="1.0" standalone="no"?>
<!DOCTYPE svg PUBLIC "-//W3C//DTD SVG 20010904//EN"
 "http://www.w3.org/TR/2001/REC-SVG-20010904/DTD/svg10.dtd">
<svg version="1.0" xmlns="http://www.w3.org/2000/svg"
 width="340.000000pt" height="340.000000pt" viewBox="0 0 340.000000 340.000000"
 preserveAspectRatio="xMidYMid meet">
<metadata>
Created by potrace 1.11, written by Peter Selinger 2001-2013
</metadata>
<g transform="translate(0.000000,340.000000) scale(0.100000,-0.100000)"
fill="#000000" stroke="none">
<path d="M1451 3086 c-40 -41 -51 -58 -51 -84 0 -35 -6 -37 -60 -22 -33 10
-36 8 -87 -42 l-53 -52 0 -334 0 -334 -22 6 c-73 21 -74 20 -127 -32 -42 -42
-51 -57 -51 -86 l0 -34 -49 13 -49 13 -51 -52 c-41 -41 -51 -58 -51 -85 0 -36
-3 -36 -75 -16 -15 5 -33 -7 -72 -46 -43 -43 -53 -59 -53 -87 0 -25 -4 -33
-14 -29 -8 3 -31 9 -50 13 l-36 6 0 102 0 102 -53 14 c-28 7 -73 19 -99 27
l-48 14 0 99 c0 85 -2 99 -17 104 -30 9 -172 46 -177 46 -2 0 -27 -23 -55 -51
l-51 -51 0 -299 0 -298 52 -15 c29 -9 74 -20 100 -27 l47 -11 3 -101 3 -102
95 -26 95 -25 3 -201 2 -200 58 -16 c31 -8 76 -20 99 -26 l43 -12 2 -201 3
-201 195 -52 195 -52 53 51 52 50 0 101 0 101 -97 25 -98 25 -3 37 -3 36 93
-25 c51 -14 119 -32 150 -41 l58 -16 2 -200 3 -201 45 -12 c25 -6 113 -30 196
-52 l152 -40 51 52 51 52 0 99 0 100 -97 25 -98 26 -3 136 -3 136 50 -13 49
-13 51 52 c40 41 51 59 51 84 0 35 5 37 60 21 36 -11 37 -11 88 42 l52 54 0
233 0 232 28 -6 c75 -18 72 -14 72 -122 l0 -99 98 -26 97 -26 53 52 52 51 0
203 c0 166 -3 203 -14 203 -12 0 -183 44 -333 87 -51 14 -53 16 -53 50 0 24 4
34 13 31 6 -3 118 -33 248 -68 l236 -62 52 52 c41 43 51 60 51 87 0 31 2 33
28 27 15 -4 36 -10 48 -15 17 -6 31 2 73 45 l51 52 0 402 c0 221 -3 402 -7
402 -8 0 -188 48 -393 103 -52 14 -248 67 -435 117 -187 50 -345 92 -351 94
-6 3 -34 -19 -63 -48z"/>
</g>
</svg>
