<svg xmlns="http://www.w3.org/2000/svg" viewBox="0 0 472.137 472.137">
  <path fill="#b77d4e" d="M289.804 276.3s-2.314-32.392-12.34-59.385c0 0-29.307-13.111-55.529-13.882 0 0-24.816 24.111-30.078 41.646s-6.941 92.548-6.941 92.548 29.645 32.392 45.07 57.842h84.835a28.945 28.945 0 00-26.35-16.967h-28.407l-14.992-29.307c.001 0 27.765-37.79 44.732-72.495z"/>
  <path fill="#c98c51" d="M461.968 196.347c-.022-.022-.055-.044-.109-.087l-3.924-2.899c-10.53 9.156-26.989 9.396-26.989 9.396-15.424-16.972-56.126-16.438-56.126-16.438-24.679 55.527-100.262 127.251-100.262 127.251-33.29-5.537-64.704-20.133-89.208-34.521a378.113 378.113 0 01-24.286-15.533c-15.849-10.998-25.322-19.348-25.322-19.348-26.978 26.095-53.063 39.59-75.027 46.294-7.848 2.398-15.173 3.935-21.823 4.862C15.184 298.636 0 294.298 0 294.298c86.163-33.827 117.572-101.841 125.844-124.296 2.334-6.335 6.097-12.066 11.125-16.572 29.061-26.042 71.983-24.253 92.35-21.56a41.923 41.923 0 0119.434 7.845l20.726 15.319 8.938 6.606s0-.011.011-.033C311.587 94.538 354 72.955 354 72.955c3.63 1.09 7.173 2.224 10.628 3.401a326.758 326.758 0 0112.928 4.633h.011c11.816 4.513 22.455 9.32 31.949 14.181 14.639 7.489 26.575 15.097 35.928 21.877a198.97 198.97 0 018.164 6.18c12.459 9.887 18.389 16.819 18.389 16.819 1.536 22.369-10.029 56.301-10.029 56.301z"/>
  <path fill="#b77d4e" d="M200.523 207.15l-15.173 71.899a378.113 378.113 0 01-24.286-15.533c.403-6.072 1.395-13.113 3.532-20.089 5.7-18.575 35.927-36.277 35.927-36.277zM256.051 221.028s18.093 43.654 18.093 63.82l-13.936 25.764-25.85-6.688 21.693-82.896z"/>
  <path fill="#c98c51" d="M268.391 280.412s-2.314-32.392-12.34-59.385c0 0-29.307-13.111-55.529-13.882 0 0-24.816 24.111-30.078 41.646-5.262 17.535-6.941 92.548-6.941 92.548s29.645 32.392 45.07 57.842h84.835a28.945 28.945 0 00-26.35-16.967h-28.407l-14.992-29.307c.001.001 27.765-37.789 44.732-72.495z"/>
  <path fill="#b77d4e" d="M305.471 229.76l-3.14 55.451 18.14-20.529z"/>
  <path fill="#4d4d4d" d="M390.577 97.413s9.631 3.845 14.744 14.214l-4.332 4.285s-11.529-3.338-18.229-7.339c-.001 0 1.78-10.332 7.817-11.16z"/>
  <path fill="#a36e46" d="M358.622 153.934c51.199 8.197 87.606 31.164 99.313 39.427-10.53 9.156-26.989 9.396-26.989 9.396-15.424-16.972-56.126-16.438-56.126-16.438-10.792-10.017-16.198-32.385-16.198-32.385z"/>
  <path fill="#c98c51" d="M305.471 229.76l9.135 47.836c1.43 7.487 9.933 11.203 16.399 7.167l21.192-13.229 14.603 20.955-2.779-35.68-31.475 8.021c5.695-15.949-5.153-32.994-22.013-34.59l-5.062-.48z"/>
  <path fill="#b77d4e" d="M287.675 215.848s-11.729-22.335-6.3-44.975l8.938 6.606s-6.268 16.568-2.638 38.369zM238.651 382.215h-19.832l13.6-5.777z"/>
  <circle cx="208.469" cy="147.776" r="7.903" fill="#b77d4e"/>
  <circle cx="345.657" cy="107.989" r="7.903" fill="#b77d4e"/>
  <circle cx="188.623" cy="160.631" r="9.218" fill="#b77d4e"/>
  <circle cx="196.953" cy="273.631" r="9.218" fill="#b77d4e"/>
  <circle cx="107.914" cy="245.653" r="9.218" fill="#b77d4e"/>
  <circle cx="225.91" cy="154.043" r="4.088" fill="#b77d4e"/>
  <circle cx="174.406" cy="295.475" r="4.088" fill="#b77d4e"/>
  <circle cx="198.943" cy="254.054" r="4.088" fill="#b77d4e"/>
  <circle cx="184.171" cy="256.37" r="5.859" fill="#b77d4e"/>
  <circle cx="363.527" cy="118.617" r="5.723" fill="#b77d4e"/>
  <circle cx="368.16" cy="102.811" r="4.088" fill="#b77d4e"/>
  <circle cx="453.567" cy="132.9" r="3.382" fill="#b77d4e"/>
  <path fill="#b77d4e" d="M453.608 123.228a5.239 5.239 0 01-4.785 3.096 5.257 5.257 0 01-5.254-5.254 5.24 5.24 0 011.875-4.022 200.351 200.351 0 018.164 6.18z"/>
  <circle cx="439.012" cy="129.79" r="4.088" fill="#b77d4e"/>
  <circle cx="125.354" cy="236.886" r="4.088" fill="#b77d4e"/>
  <circle cx="180.174" cy="310.418" r="6.586" fill="#b77d4e"/>
  <circle cx="168.683" cy="161.674" r="4.088" fill="#b77d4e"/>
  <path fill="#b77d4e" d="M409.516 95.17c-20.449-7.587-47.918-5.058-47.918-5.058l3.03-13.756a326.758 326.758 0 0112.928 4.633h.011c11.816 4.513 22.454 9.32 31.949 14.181z"/>
  <path fill="#b77d4e" d="M377.556 80.989s-64.803 29.257-88.696 101.58c0 0-31.251-29.802-53.772-36.342 0 0-1.529-.278-4.274-.565-41.472-4.339-80.94 18.571-98.368 56.453-14.332 31.152-39.121 74.048-71.731 88.346-6.932 3.052-14.214 4.796-21.823 4.862C15.184 298.636 0 294.298 0 294.298c88.763-34.847 119.418-105.978 126.53-126.202 1.522-4.33 3.94-8.297 7.17-11.557 28.836-29.104 73.909-27.486 95.222-24.72a43.278 43.278 0 0120.152 8.134l20.405 15.082 8.938 6.606s0-.011.011-.033C311.587 94.538 354 72.955 354 72.955a345.204 345.204 0 0123.556 8.034z"/>
</svg>