<?xml version="1.0" encoding="iso-8859-1"?>
<!-- Generator: Adobe Illustrator 18.0.0, SVG Export Plug-In . SVG Version: 6.00 Build 0)  -->
<!DOCTYPE svg PUBLIC "-//W3C//DTD SVG 1.1//EN" "http://www.w3.org/Graphics/SVG/1.1/DTD/svg11.dtd">
<svg version="1.1" id="Capa_1" xmlns="http://www.w3.org/2000/svg" xmlns:xlink="http://www.w3.org/1999/xlink" x="0px" y="0px"
	 viewBox="0 0 463.05 463.05" style="enable-background:new 0 0 463.05 463.05;" xml:space="preserve">
<g>
	<path style="fill:#1AA060;" d="M347.3,242.071c-26.76,31.25-82.85,40.04-82.85,40.04c-41.39,21.47-87.38,11.5-87.38,11.5
		s-33.73-19.93-52.13-20.69c-13.28-0.56-35.35,10.87-46.59,17.27c-5.18,2.95-11,4.62-16.95,4.77c-1.2,0.03-2.39,0.04-3.56,0.04
		c-2.76,0-5.41-0.08-7.96-0.24l-16.15,7.28l-25.3-2.3L0,276.751l16.1-13.03l17.63-1.54l19.93,6.9
		c29.89-14.56,43.69-43.69,43.69-43.69c12.26-62.85,79.72-93.51,79.72-93.51c59.02-6.9,111.14,9.2,111.14,9.2
		c20.7,13.79,41.17,38.33,41.17,38.33l11.6,40.55L347.3,242.071z"/>
	<path style="fill:#22B573;" d="M442.35,216.011l1.53,13.8c-28.36,16.86-67.45,28.36-67.45,28.36c-19.16-3.83-29.13-16.1-29.13-16.1
		c-1.48-2.47-2.85-4.97-4.1-7.48c-18.22-36.48-13.53-76.07-13.53-76.07l18.4-6.9c40.62,4.6,99.65,24.53,99.65,24.53
		c10.73,14.57,15.33,39.86,15.33,39.86H442.35z"/>
	<path style="fill:#E2CB6A;" d="M347.3,242.071c-11.99,14.01-29.88,23.5-45.97,29.71c-4.95,1.92-9.74,3.52-14.13,4.85
		c-13.15,3.97-22.75,5.48-22.75,5.48c-2.25,1.17-4.51,2.24-6.78,3.22c-6.98,3.05-14.01,5.27-20.86,6.87
		c-14.54,3.4-28.25,3.99-38.86,3.63c-0.01,0-0.02-0.01-0.03-0.01c-12.62-0.43-20.85-2.21-20.85-2.21s-2.97-1.76-7.63-4.25
		c-8.72-4.65-23.33-11.87-35.46-14.96c-3.25-0.83-6.31-1.37-9.04-1.48c-3.48-0.15-7.55,0.53-11.88,1.72
		c-12.21,3.36-26.41,10.82-34.71,15.55c-5.18,2.95-11,4.62-16.95,4.77c-1.2,0.03-2.39,0.04-3.56,0.04c-2.76,0-5.41-0.08-7.96-0.24
		c0,0,17.57-8.81,52.83-42.54c0,0,29.13-19.93,82.02-5.37c52.3,14.41,129.34-6.42,156.25-26.89L347.3,242.071z"/>
	<path style="fill:#D2D8CA;" d="M315.109,143.961c0,0,21.462,1.533,40.625,13.031l-2.3,13.797l-13.797,7.665
		C339.637,178.454,312.809,171.555,315.109,143.961z"/>
	<path style="fill:#D2D8CA;" d="M338.801,184.768c0,0,10.731,12.264,3.833,27.595c0,0-6.899,8.432-19.163,2.3
		s-22.229-29.128-22.229-29.128S315.039,179.402,338.801,184.768z"/>
	<path style="fill:#D2D8CA;" d="M267.515,148.354c0,0,4.233-12.698,22.856-22.009c0,0,9.312,8.465,11.851,34.707l-7.619,7.619
		L267.515,148.354z"/>
	<path style="fill:#D2D8CA;" d="M220.757,152.574c0,0,22.229,5.366,34.493,1.533c0,0,0.767-24.529-9.198-33.727
		C246.052,120.38,222.29,123.446,220.757,152.574z"/>
	<path style="fill:#D2D8CA;" d="M165.977,149.689c0,0-3.955-11.864-21.354-20.564c0,0-8.7,7.909-11.073,32.427l7.118,7.118
		L165.977,149.689z"/>
	<path style="fill:#D2D8CA;" d="M127.498,182.327c0,0-5.668-8.483-21.235-11.58c0,0-5.142,8.098-1.726,27.903l7.135,4.067
		L127.498,182.327z"/>
	<path style="fill:#D2D8CA;" d="M212.734,152.574c0,0-22.229,5.366-34.493,1.533c0,0-0.767-24.529,9.198-33.727
		C187.439,120.38,211.201,123.446,212.734,152.574z"/>
	<path style="fill:#D2D8CA;" d="M134.908,222.327c0,0-10.731,13.031-6.132,28.361c0,0,27.595,0,36.026-18.396
		C164.802,232.292,158.67,220.027,134.908,222.327z"/>
	<path style="fill:#D2D8CA;" d="M297.214,222.327c0,0,10.731,13.031,6.132,28.361c0,0-27.595,0-36.026-18.396
		C267.319,232.292,273.452,220.027,297.214,222.327z"/>
	<path style="fill:#D2D8CA;" d="M199.295,233.058c0,0,15.33-13.031,36.026-1.533c0,0-2.3,22.229-14.564,29.894
		C220.757,261.419,198.528,252.221,199.295,233.058z"/>
	<path style="fill:#CEBA65;" d="M443.88,229.811c-28.36,16.86-67.45,28.36-67.45,28.36c-19.16-3.83-29.13-16.1-29.13-16.1
		c-0.15-0.26-0.31-0.51-0.45-0.77c-1.31-2.22-2.53-4.46-3.65-6.71l59.22-8.43l9.97-10.15h29.96l0.61,5.5L443.88,229.811z"/>
	<path style="fill:#E2CB6A;" d="M443.88,229.811c-28.36,16.86-67.45,28.36-67.45,28.36c-19.16-3.83-29.13-16.1-29.13-16.1
		c-0.15-0.26-3.96-7.22-4.1-7.48l59.22-8.43l12.03-4.65h28.51L443.88,229.811z"/>
	<path style="fill:#D2D8CA;" d="M341.867,219.261c0,0,16.097,7.665,16.863,25.295c0,0-16.097,16.863-30.661,21.462
		c0,0-14.12-14.624-3.833-34.493S341.867,219.261,341.867,219.261z"/>
	<path style="fill:#CEBA65;" d="M197.92,295.821c-12.62-0.43-20.85-2.21-20.85-2.21s-2.97-1.76-7.63-4.25l1.49-28.71
		C170.93,260.651,187.44,292.841,197.92,295.821z"/>
	<path style="fill:#CEBA65;" d="M133.98,274.401c-3.25-0.83-6.31-1.37-9.04-1.48c-3.48-0.15-7.55,0.53-11.88,1.72l14.18-17.05
		L133.98,274.401z"/>
	<path style="fill:#CEBA65;" d="M257.67,285.331c-6.98,3.05-14.01,5.27-20.86,6.87c6.87-10.56,9.96-24.56,9.96-24.56L257.67,285.331
		z"/>
	<path style="fill:#CEBA65;" d="M301.33,271.781c-4.95,1.92-9.74,3.52-14.13,4.85l3.27-17
		C290.47,259.631,295.72,268.791,301.33,271.781z"/>
	<path style="fill:#22B573;" d="M170.934,260.653c9.198,14.564,14.564,42.925,14.564,42.925l-4.599,23.762l15.33,5.366l-4.599,9.965
		h-53.656l3.833-32.194c-12.264-4.599-23.762-21.462-23.762-21.462c3.066-16.097,9.198-31.427,9.198-31.427
		S150.428,252.044,170.934,260.653z"/>
	<path style="fill:#22B573;" d="M290.474,259.632c5.827,14.568,7.284,45.89,7.284,45.89l-3.642,20.395l15.297,5.099l-5.099,11.654
		h-58.272l3.23-30.143c-5.827-14.568-2.501-44.883-2.501-44.883s8.668-8.037,20.071-10.888
		C266.84,256.756,283.698,255.855,290.474,259.632z"/>
	<polygon style="fill:#1C995D;" points="180.899,327.34 165.44,327.34 182.573,318.69 	"/>
	<polygon style="fill:#1C995D;" points="294.116,325.917 279.94,323.261 295.757,316.728 	"/>
	<polygon style="fill:#1C995D;" points="141.806,310.476 142.94,298.761 135.758,307.263 	"/>
	<path style="fill:#4D4D4D;" d="M379.264,182.153c0,0,8.28,4.154,18.241,1.421l0.294-5.436c0,0-9.068-5.723-15.714-7.827
		C382.084,170.311,376.237,177.628,379.264,182.153z"/>
	<path style="fill:#D2D8CA;" d="M103.44,221.761c0,0-10-2-15.5,0c0,0,4.5,12.5,9.5,13.5
		C97.44,235.261,103.44,231.261,103.44,221.761z"/>
	<path style="fill:#D2D8CA;" d="M149.961,189.346c0,0-7.581-6.821-13.332-7.907c0,0-2.506,13.047,1.285,16.458
		C137.914,197.897,145.115,197.517,149.961,189.346z"/>
	<path style="fill:#D2D8CA;" d="M182.767,175.258c0,0-4.376-9.211-9.268-12.424c0,0-7.329,11.081-5.141,15.687
		C168.359,178.521,175.152,180.938,182.767,175.258z"/>
	<path style="fill:#D2D8CA;" d="M278.528,184.846c0,0,7.581-6.821,13.332-7.907c0,0,2.506,13.047-1.285,16.458
		C290.576,193.397,283.374,193.017,278.528,184.846z"/>
	<path style="fill:#D2D8CA;" d="M245.723,175.258c0,0,4.376-9.211,9.268-12.424c0,0,7.329,11.081,5.141,15.687
		C260.131,178.521,253.337,180.938,245.723,175.258z"/>
	<path style="fill:#D2D8CA;" d="M223.426,176.735c0,0-2.347-9.924-6.456-14.091c0,0-9.49,9.298-8.316,14.26
		C208.654,176.904,214.79,180.692,223.426,176.735z"/>
	<path style="fill:#D2D8CA;" d="M91.154,245.791c0,0-8.115-6.176-13.936-6.786c0,0-1.427,13.208,2.631,16.297
		C79.849,255.301,86.995,254.332,91.154,245.791z"/>
	<path style="fill:#D2D8CA;" d="M71.573,263.862c0,0-6.98-7.435-12.62-9c0,0-3.594,12.79-0.104,16.507
		C58.85,271.369,66.057,271.596,71.573,263.862z"/>
	<path style="fill:#D2D8CA;" d="M61.52,287.261l-11.64,7.5l-16.15,7.28l-25.3-2.3L0,276.751l16.1-13.03l17.63-1.54l19.93,6.9
		C53.66,269.081,61.64,279.561,61.52,287.261z"/>
	<path style="fill:#D2D8CA;" d="M163.779,198.489c0,0-2.157,11.326,9.346,19.821c0,0,22.287-5.663,23.006-16.99
		C196.132,201.321,186.181,181.261,163.779,198.489z"/>
	<path style="fill:#D2D8CA;" d="M264.606,198.489c0,0,2.157,11.326-9.346,19.821c0,0-22.287-5.663-23.006-16.99
		C232.253,201.321,242.204,181.261,264.606,198.489z"/>
</g>
<g>
</g>
<g>
</g>
<g>
</g>
<g>
</g>
<g>
</g>
<g>
</g>
<g>
</g>
<g>
</g>
<g>
</g>
<g>
</g>
<g>
</g>
<g>
</g>
<g>
</g>
<g>
</g>
<g>
</g>
</svg>
