<?xml version="1.0" encoding="iso-8859-1"?>
<!-- Generator: Adobe Illustrator 18.0.0, SVG Export Plug-In . SVG Version: 6.00 Build 0)  -->
<!DOCTYPE svg PUBLIC "-//W3C//DTD SVG 1.1//EN" "http://www.w3.org/Graphics/SVG/1.1/DTD/svg11.dtd">
<svg version="1.1" id="Capa_1" xmlns="http://www.w3.org/2000/svg" xmlns:xlink="http://www.w3.org/1999/xlink" x="0px" y="0px"
	 viewBox="0 0 464.202 464.202" style="enable-background:new 0 0 464.202 464.202;" xml:space="preserve">
<g>
	<path style="fill:#C98C51;" d="M462.13,165.801l-1.92,2.22l-4.57-0.42l-7.69,11.09c-9.61,0.6-38.25,1.87-51.55-3.45
		c0,0-10.58,44.81-41.58,90.12c-8.2,11.99-19.97,21.08-33.56,26.24c-14.55,5.53-33.87,12.58-45.71,15.77
		c-1.56,0.42-3.58,0.69-5.98,0.82c-4.94,0.26-11.51-0.06-19.01-0.76c-17.38-1.64-39.82-5.38-58.94-8.93
		c-7.97-1.48-15.37-2.93-21.59-4.18c-11.2-2.26-18.56-3.87-18.56-3.87s-1.21,0.33-3.34,0.89c-4.47,1.16-12.98,3.33-22.74,5.57v0.01
		c-18.98,4.38-42.67,9.06-50.46,7.23c0,0-58.81-26.59-74.93-59.62c0,0,30.62,14.5,62.04,16.11c21.82,1.12,35.48-14.85,41.79-24.72
		c4.17-6.52,9.44-12.25,15.72-16.77c14.45-10.42,41.93-26.84,79.46-34.24c0,0,51.188,0,118.643,32.752
		c3.982,1.934,8.782,0.473,11.043-3.334c10.099-17.006,37.337-61.367,58.989-82.885c1.932-1.92,4.363-3.243,7.025-3.819
		c9.077-1.962,31.223-6.323,38.75-3.945c7.13,2.25,22.01,21.77,29.11,31.54C464.9,158.431,464.72,162.801,462.13,165.801z"/>
	<path style="fill:#666666;" d="M411.854,139.112c0,0-1.523,1.861-1.861,4.061c0,0,2.458,1.865,5.755,3.015
		c2.402,0.838,5.069,0.373,7.104-1.154l0,0c0,0-1.015-3.722-4.568-5.584C418.284,139.45,414.392,138.097,411.854,139.112z"/>
	<path style="fill:#BC8053;" d="M455.64,167.597l0.006,0c-8.974-1.294-30.31-4.744-51.186-10.887l-8.06,18.53
		c10.077,4.035,28.975,4.282,41.717,3.901c6.122-0.183,11.787-3.268,15.276-8.302L455.64,167.597z"/>
	<path style="fill:#9E6439;" d="M276.35,246.141l-0.5,43.89l-6.28,18.16c-4.94,0.26-11.51-0.06-19.01-0.76l-0.01-0.01
		c4.02-8.6,1.3-25.39,1.3-25.39L276.35,246.141z"/>
	<polygon style="fill:#9E6439;" points="295.69,280.034 301.667,298.845 289.627,303.025 	"/>
	<path style="fill:#9E6439;" d="M125.39,296.911c5.87-7.45,0.43-23.57,0.43-23.57l9.37,1.69l12.94,16.31
		C143.66,292.501,135.15,294.671,125.39,296.911z"/>
	<path style="fill:#9E6439;" d="M191.62,298.501c-7.97-1.48-15.37-2.93-21.59-4.18l12.06-21.59
		C182.09,272.731,184.05,291.63,191.62,298.501z"/>
	<polygon style="fill:#C98C51;" points="276.354,246.143 295.69,259.839 295.69,320.266 306.164,327.517 306.164,341.213 
		269.908,341.213 264.269,323.488 257.017,282.398 	"/>
	<path style="fill:#C98C51;" d="M182.089,272.73c0,0-0.806,24.976-12.085,44.313l14.502,11.28l-2.417,12.891h-42.701l6.445-33.033
		l-21.753-37.867l20.948-15.308L182.089,272.73z"/>
</g>
<g>
</g>
<g>
</g>
<g>
</g>
<g>
</g>
<g>
</g>
<g>
</g>
<g>
</g>
<g>
</g>
<g>
</g>
<g>
</g>
<g>
</g>
<g>
</g>
<g>
</g>
<g>
</g>
<g>
</g>
</svg>
