<svg xmlns="http://www.w3.org/2000/svg" viewBox="0 0 472.141 472.141">
  <path fill="#dbd6a9" d="M400.834 110.697s2.506-4.115 15.506-2.115c0 0 10.777 5.099 15.888 20.549 0 0-19.991-7.596-25.19 12.427S383.079 125.5 383.079 125.5l17.755-14.803z"/>
  <path fill="#57845e" d="M266.032 277.096s-1.878-26.294-10.017-48.206c0 0-23.79-10.643-45.076-11.269 0 0-20.144 19.572-24.416 33.807s-5.634 75.126-5.634 75.126 24.065 26.294 36.586 46.954h68.866a23.496 23.496 0 00-21.39-13.773h-23.06l-12.17-23.79s22.538-30.677 36.311-58.849z"/>
  <path fill="#79b585" d="M461.97 210.933c-.02-.02-.05-.04-.11-.08l-3.92-2.9c-10.53 9.15-26.99 9.39-26.99 9.39-15.43-16.97-56.13-16.44-56.13-16.44-6.16 23.19-18.26 40.55-32.61 53.54-5.48 4.96-11.3 9.28-17.23 13.04-1.89 1.2-3.79 2.34-5.69 3.43-6.96 3.97-13.98 7.22-20.77 9.87l-.01.01c-18.61 7.29-35.37 10.16-43.68 11.21-3.49.45-5.49.58-5.49.58-13.62-2.27-22.7-.09-30.36 2.28-11.06 3.43-19.15 7.27-33.63-1.23-.09-.05-.18-.11-.27-.16a379.045 379.045 0 01-24.01-15.37c-1.61-1.12-3.16-2.21-4.63-3.26-13.05-9.35-20.7-16.09-20.7-16.09-26.97 26.1-53.06 39.59-75.02 46.3-7.85 2.39-15.18 3.93-21.82 4.86-23.71 3.31-38.9-1.03-38.9-1.03 86.17-33.83 117.58-101.85 125.85-124.3 2.33-6.33 6.09-12.06 11.12-16.56 29.06-26.05 71.98-24.26 92.35-21.56 7.04.93 13.73 3.62 19.44 7.84 15.927 11.776 38.435 7.904 49.552-8.489 9.853-14.53 21.082-30.178 27.948-36.821 14.93-14.45 37.42-17.86 55.9-8.35 42.97 22.12 89.84 53.99 89.84 53.99 1.54 22.37-10.03 56.3-10.03 56.3z"/>
  <path fill="#6aa073" d="M399.84 153.083s11.5-9.5 5.5-17-27-26-34-12 6 37 6 37l9 2.5 13.5-10.5z"/>
  <path fill="#4d4d4d" d="M386.579 127.501s9.631 3.845 14.744 14.214L396.991 146s-11.529-3.338-18.229-7.339c0 0 1.781-10.332 7.817-11.16z"/>
  <path fill="#dbd6a9" d="M460.191 146.811s10.149-15.229 3.149-25.229-19.564 14.718-19.564 14.718l16.415 10.511z"/>
  <path fill="#6aa073" d="M258.34 277.083l-3.51 14.92c-3.49.45-5.49.58-5.49.58-13.62-2.27-22.7-.09-30.36 2.28l19.65-62.63s19.65 30.42 19.71 44.85zM193.56 220.963l-.22 69.12s-3.46 1.82-8.26 3.39a379.045 379.045 0 01-24.01-15.37c-1.61-1.12-3.16-2.21-4.63-3.26 1.1-35.25 37.12-53.88 37.12-53.88zM298.52 280.783c9.68-12.8 6.95-36.43 6.95-36.43l13.82 26.56c-6.96 3.97-13.98 7.22-20.77 9.87zM342.21 254.443c-5.48 4.96-11.3 9.28-17.23 13.04l-6.91-20.79s12.5.09 24.13 7.74c0 0 .01 0 .01.01z"/>
  <path fill="#79b585" d="M248.65 280.434s-1.878-26.294-10.017-48.206c0 0-23.79-10.643-45.076-11.269 0 0-20.144 19.572-24.416 33.807-4.272 14.234-5.634 75.126-5.634 75.126s24.065 26.294 36.586 46.954h68.866a23.496 23.496 0 00-21.39-13.773h-23.06l-12.17-23.79s22.537-30.676 36.311-58.849zM305.474 244.348l9.135 47.836c1.43 7.487 9.933 11.203 16.399 7.167l21.192-13.229 14.603 20.955-1.489-19.115c-.674-8.651-8.983-14.605-17.391-12.462l-15.374 3.918c5.695-15.949-5.153-32.994-22.013-34.59l-5.062-.48z"/>
  <path fill="#6aa073" d="M224.508 363.073H212.84l5.221-12.603zM135.74 258.753s6.1-4.17 10.1-12.67l-2.04 19.28-8.06-6.61zM457.938 207.949l-60.098-27.366-14 5-12-14.5-14.5 12 15-.5 11.5 12.5 15.5-8 52.464 24.993z"/>
  <circle cx="149.09" cy="185.333" r="8.75" fill="#6aa073"/>
  <circle cx="235.34" cy="165.583" r="8.75" fill="#6aa073"/>
  <circle cx="161.84" cy="172.083" r="3.5" fill="#6aa073"/>
  <circle cx="165.84" cy="183.583" r="3.5" fill="#6aa073"/>
  <circle cx="241.34" cy="181.083" r="3.5" fill="#6aa073"/>
  <circle cx="353.34" cy="108.583" r="3.5" fill="#6aa073"/>
  <circle cx="250.84" cy="171.583" r="5" fill="#6aa073"/>
  <circle cx="354.34" cy="121.083" r="5" fill="#6aa073"/>
  <circle cx="341.84" cy="115.583" r="5" fill="#6aa073"/>
</svg>