<svg height="512pt" viewBox="0 0 512 512" width="512pt" xmlns="http://www.w3.org/2000/svg"><path d="m512 256c0 141.386719-114.613281 256-256 256s-256-114.613281-256-256 114.613281-256 256-256 256 114.613281 256 256zm0 0" fill="#ff8597"/><path d="m301.394531 507.984375c119.730469-21.425781 210.605469-126.089844 210.605469-251.984375 0-.320312-.011719-.640625-.011719-.964844l-59.339843-59.339844-38.910157 38.234376-151.179687-151.183594 9.457031 134.679687-35.285156 92.261719-87.644531-87.644531-65.160157 60.8125 144.199219 144.203125-1.761719 5.894531zm0 0" fill="#ff3636"/><path d="m452.496094 195.542969c-8.554688-8.554688-40.671875 9.691406-49.28125 18.265625-15.144532-4.21875-32.058594-.386719-43.96875 11.523437-10.65625 10.65625-32.367188 64.554688-54.128906 84.804688-4.519532 4.207031-10.242188 8.839843-16.550782 13.628906-3.519531-18.761719-6.324218-36.949219-6.324218-49.5625 0-33.828125 18.785156-90.125 18.785156-107.710937 0-16.90625-9.320313-31.625-23.097656-39.328126 0-.003906 0-.011718 0-.019531 0-12.113281-9.816407-47.808593-21.929688-47.808593s-21.929688 35.695312-21.929688 47.808593v.019531c-13.78125 7.703126-23.097656 22.421876-23.097656 39.328126 0 17.710937 18.09375 74.890624 18.09375 108.386718 0 11.667969-2.027344 28.210938-4.667968 45.554688-6.5625-5.152344-12.371094-10.085938-16.632813-14.429688-19.308594-19.683594-44.554687-70.214844-55.011719-80.671875-11.996094-11.996093-29.078125-15.800781-44.304687-11.429687-8.730469-8.613282-40.664063-26.710938-49.191407-18.183594-8.566406 8.5625 9.730469 40.746094 18.296876 49.3125-4.226563 15.148438-.394532 32.070312 11.515624 43.980469 9.8125 9.808593 58.796876 33.273437 74.566407 51.738281 15.765625 18.464844 50.140625 79.765625 60.523437 90.148438 4.503906 4.503906 9.734375 7.847656 15.308594 10.046874 5.492188 2.386719 11.554688 3.71875 17.925781 3.71875 13.050781 0 24.796875-5.558593 33.019531-14.425781l.972657.875c9.867187-10.921875 39.140625-69.371093 56.714843-92.792969 17.574219-23.417968 65.179688-39.664062 74.824219-49.308593 12-12 15.804688-29.089844 11.425781-44.320313 8.628907-8.789062 26.65625-40.632812 18.144532-49.148437zm0 0" fill="#005285"/><path d="m257.398438 444.664062c13.046874 0 24.792968-5.558593 33.019531-14.425781l.96875.875c9.867187-10.921875 39.144531-69.371093 56.71875-92.792969 17.570312-23.417968 65.175781-39.664062 74.824219-49.308593 12-12 15.800781-29.089844 11.425781-44.320313 8.625-8.789062 26.652343-40.636718 18.140625-49.148437-8.554688-8.554688-40.671875 9.6875-49.28125 18.265625-15.144532-4.21875-32.058594-.386719-43.96875 11.519531-10.65625 10.660156-32.367188 64.558594-54.128906 84.808594-4.519532 4.203125-10.242188 8.835937-16.550782 13.628906-3.519531-18.765625-6.324218-36.949219-6.324218-49.5625 0-33.832031 18.785156-90.125 18.785156-107.710937 0-16.90625-9.320313-31.628907-23.097656-39.328126 0-.007812 0-.015624 0-.019531 0-12.113281-9.816407-47.808593-21.929688-47.808593zm0 0" fill="#001035"/></svg>