<svg height="512pt" viewBox="0 -85 512.00167 512" width="512pt" xmlns="http://www.w3.org/2000/svg"><path d="m511.03125 115.457031c-18.402344-52.675781-66.203125-89.945312-121.816406-94.953125l-49.359375-4.210937c-4.125-.351563-7.761719 2.707031-8.113281 6.835937-.351563 4.125 2.710937 7.757813 6.835937 8.109375l49.328125 4.210938c49.726562 4.480469 92.496094 37.824219 108.960938 84.949219.121093.351562.160156.730468.109374 1.09375-1.703124 12.292968-22.015624 25.449218-54.332031 35.195312-35.679687 10.753906-82.699219 16.679688-132.398437 16.679688h-81.039063c-42.359375 0-51.25 22.550781-51.25 41.46875 0 .273437.015625.546874.042969.816406l2.054688 18.742187c.109374.996094-.429688 1.550781-.898438 1.839844s-1.203125.519531-2.046875-.027344c-.046875-.027343-.09375-.058593-.136719-.085937l-22.371094-13.84375c-2.84375-1.894532-6.367187-2.566406-9.714843-1.855469-3.34375.714844-6.269531 2.785156-8.019531 5.6875-3.316407 5.476563-19.878907 13.191406-46.34375 13.191406-7.125.050781-14.140626-1.019531-20.855469-3.078125-20.488281-6.277344-36.984375-21.417968-46.449219-42.632812-9.621094-21.566406-10.835938-46.761719-3.425781-70.945313 3.289062-10.730469 8.121093-20.730469 14.371093-29.730469 2.359376-3.402343 1.519532-8.078124-1.886718-10.441406-3.402344-2.359375-8.074219-1.515625-10.4375 1.886719-7.132813 10.273437-12.648438 21.675781-16.390625 33.890625-8.472657 27.652344-7.027344 56.578125 4.070312 81.453125 3.566407 7.992187 7.992188 15.261719 13.15625 21.710937-5.386719 3.636719-9.578125 9.011719-11.738281 15.3125-3.007812 8.789063-1.785156 18.296876 3.359375 26.085938 33.539063 50.816406 89.605469 79.980469 148.34375 79.976562 15.496094 0 31.183594-2.03125 46.6875-6.230468l70.769531-19.160156h25.59375c4.140625 0 7.5-3.359376 7.5-7.5 0-4.144532-3.359375-7.503907-7.5-7.503907h-26.589844c-.660156 0-1.320312.089844-1.960937.261719l-71.734375 19.421875c-14.199219 3.847656-28.558594 5.707031-42.75 5.703125-4.589844 0-9.160156-.207031-13.703125-.59375l-6.738281-17.726562 9.363281-20.847657c1.695313-3.777343.007813-8.21875-3.769531-9.914062-3.78125-1.695313-8.21875-.007813-9.917969 3.769531l-7.542969 16.796875-12.53125-5.628906c-3.777344-1.695313-8.21875-.007813-9.917968 3.769531-1.695313 3.78125-.007813 8.21875 3.769531 9.917969l16.5 7.410156 3.847656 10.121094c-42.132813-8.09375-80.394531-32.730469-105.199219-70.308594-2.597656-3.9375-3.195312-8.539063-1.683594-12.960937 1.386719-4.042969 4.402344-7.308594 8.1875-8.976563 9.234376 8.183594 20.019532 14.300781 31.953126 17.957031 8.089843 2.480469 16.527343 3.734375 25.070312 3.734375h.199219c26.785156 0 48.945312-7.117187 57.699219-18.316406l20.777343 12.855469c5.523438 3.546875 12.417969 3.609375 18.011719.164062 5.617188-3.460937 8.660156-9.6875 7.9375-16.246094l-.152344-1.410156h5.351563c10.628906 0 21.222656 2.300782 30.636719 6.644532 19.003906 8.796874 49.988281 18.898437 121.492187 18.898437 40.015625 0 82.929687-3.476563 107.660156-8.691406-5.6875 20.875-20.117187 38.046875-39.785156 47.265625-.796875.371094-1.703125.324218-2.429687-.121094l-18.714844-11.578125c-3.84375-2.378906-8.535156-2.5625-12.554688-.492187-4.019531 2.070312-6.59375 6-6.890625 10.511718l-.5625 8.613282h-40.664062c-4.144531 0-7.5 3.355468-7.5 7.5 0 4.144531 3.355469 7.5 7.5 7.5h43.007812c6.566407 0 12.042969-5.132813 12.472657-11.683594l.472656-7.226563 15.542968 9.613281c5.050782 3.121094 11.289063 3.476563 16.6875.945313 24.25-11.367187 41.882813-32.777344 48.371094-58.730469 1.191406-4.742187-.132812-9.667968-3.542968-13.175781-3.414063-3.515625-8.3125-4.980469-13.097657-3.925781-5 1.105468-10.960937 2.136718-17.625 3.074218 1.109375-4.121093 1.304688-8.890624-.292969-14.039062-1.226562-3.957031-5.429687-6.171875-9.386718-4.941406-3.953125 1.226562-6.167969 5.429687-4.941406 9.382812 1.960937 6.328125-2.707032 10.914063-3.246094 11.417969l.066406-.0625.300781.335937c-8.164062.828126-16.890625 1.535157-25.894531 2.089844 1.21875-4.222656 1.492188-9.148437-.164062-14.488281-1.226563-3.953125-5.429688-6.167969-9.386719-4.941406-3.957031 1.230469-6.171875 5.429687-4.941407 9.386719 1.664063 5.371093-1.441406 9.476562-2.75 10.90625-7.828124.300781-15.710937.484374-23.460937.535156 1.253906-4.253906 1.554687-9.234375-.121094-14.640625-1.226562-3.953125-5.429687-6.167969-9.386719-4.941407-3.957031 1.230469-6.167968 5.429688-4.941406 9.386719 1.417969 4.578125-.628906 8.234375-2.078125 10.101563-8.535156-.152344-16.382812-.460938-23.597656-.898438 1.644531-4.566406 2.246094-10.085937.367187-16.136718-1.226562-3.957032-5.425781-6.171876-9.386718-4.941407-3.957032 1.226563-6.167969 5.429688-4.941406 9.382813 1.503906 4.839844-.875 8.652344-2.316407 10.410156-8.941406-.890625-16.695312-1.980469-23.421875-3.179688 2.148438-4.875 3.199219-11.050781 1.074219-17.902343-1.230469-3.953125-5.425781-6.167969-9.386719-4.941407-3.957031 1.230469-6.171875 5.433594-4.941406 9.390626 1.425781 4.601562-.65625 8.277343-2.105469 10.132812-12.335937-3.195312-19.59375-6.554688-24.261719-8.714844-11.378906-5.253906-24.148437-8.03125-36.933593-8.03125h-6.996094l-.207031-1.90625c.089844-12.226562 4.460937-26.070312 36.246094-26.070312h12.699218c1.347656 1.984375 2.894532 5.386718 1.625 9.472656-1.226562 3.957031.984375 8.160156 4.941406 9.386719.742188.230469 1.488282.339843 2.226563.339843 3.199219 0 6.164063-2.0625 7.160156-5.28125 1.582031-5.097656 1.40625-9.824218.328125-13.917968h22.714844c1.347656 1.984375 2.890625 5.386718 1.625 9.472656-1.226562 3.957031.984375 8.160156 4.941406 9.386719.742188.230469 1.488282.339843 2.226563.339843 3.199219 0 6.164062-2.0625 7.160156-5.28125 1.582031-5.097656 1.40625-9.824218.328125-13.914062h13.0625c3.421875 0 6.835938-.03125 10.230469-.085938 1.359375 1.972657 2.972656 5.410157 1.683593 9.558594-1.226562 3.953125.984376 8.15625 4.945313 9.382813.738281.230469 1.488281.339843 2.222656.339843 3.199219 0 6.164063-2.0625 7.160157-5.28125 1.65625-5.332031 1.382812-10.253906.171874-14.472656 8.105469-.339844 16.101563-.839844 23.953126-1.488281 1.449218 1.8125 3.671874 5.558594 2.207031 10.273437-1.226563 3.957032.984375 8.15625 4.941406 9.386719.742187.226563 1.488281.335938 2.226563.335938 3.199218 0 6.164062-2.0625 7.160156-5.277344 1.898437-6.121094 1.261718-11.695313-.421875-16.289063 9.230469-1.039062 18.207031-2.296874 26.859375-3.761718 1.339844 1.574218 4.070312 5.570312 2.503906 10.621094-1.230469 3.957031.984375 8.160156 4.941406 9.386718.738282.230469 1.488282.339844 2.222656.339844 3.199219 0 6.164063-2.0625 7.164063-5.28125 2.144531-6.910156 1.054687-13.136719-1.132813-18.027344 9.097657-1.902344 17.75-4.050781 25.867188-6.441406 1.40625 1.851562 3.453125 5.535156 2.046875 10.058594-1.226563 3.957031.984375 8.160156 4.941406 9.386718.742188.230469 1.488281.339844 2.226563.339844 3.199218 0 6.164062-2.0625 7.160156-5.28125 2.332031-7.515625.84375-14.222656-1.726562-19.285156 24.40625-8.855469 49.199218-22.777344 52.035156-43.25.375-2.71875.09375-5.519531-.808594-8.105469zm0 0"/><path d="m50.496094 72.457031c1.59375 0 3.199218-.507812 4.558594-1.550781 16.417968-12.582031 35.777343-18.714844 54.515624-17.246094 4.726563.367188 9.535157-.527344 13.910157-2.589844 2.902343-1.371093 5.9375-2.503906 9.023437-3.371093 4.46875-1.253907 8.050782-4.441407 9.828125-8.746094 1.742188-4.21875 1.464844-8.894531-.753906-12.832031-2.003906-3.546875-.511719-6.570313.222656-7.707032 1.53125-2.371093 4.117188-3.625 6.960938-3.378906l157.246093 13.425782c4.125.351562 7.761719-2.710938 8.113282-6.835938.351562-4.128906-2.710938-7.761719-6.835938-8.113281l-157.214844-13.4218752c-8.332031-.7460938-16.332031 3.1523442-20.875 10.1835942-4.492187 6.960937-4.796874 15.75-.808593 23-3.867188 1.089843-7.671875 2.515624-11.308594 4.230468-2.019531.953125-4.214844 1.371094-6.34375 1.203125-22.433594-1.742187-45.449219 5.453125-64.808594 20.296875-3.285156 2.519532-3.910156 7.230469-1.386719 10.515625 1.476563 1.925781 3.703126 2.9375 5.957032 2.9375zm0 0"/><path d="m265.109375 43.660156c-29.035156-8.96875-59.078125-5.75-78.40625 8.398438-3.5 2.5625-5.601563 6.683594-5.621094 11.023437-.019531 4.390625 1.984375 8.417969 5.5 11.042969 11.453125 8.554688 19.585938 20.867188 22.894531 34.667969 3.023438 12.597656 9.9375 23.519531 19.480469 30.757812 11.230469 8.523438 24.582031 13.027344 38.609375 13.027344 17.140625 0 33.304688-6.773437 45.507813-19.074219 13.972656-14.082031 16.171875-35.5 5.34375-52.082031-11.066407-16.957031-30.5-30.71875-53.308594-37.761719zm37.316406 79.277344c-9.367187 9.4375-21.746093 14.636719-34.859375 14.636719-10.726562 0-20.941406-3.449219-29.542968-9.972657-6.785157-5.148437-11.742188-13.074218-13.957032-22.308593-3.988281-16.632813-13.582031-31.519531-27.097656-42.109375 15.460938-10.382813 40.21875-12.445313 63.710938-5.1875 19.523437 6.027344 35.992187 17.554687 45.175781 31.625 6.925781 10.605468 5.515625 24.304687-3.429688 33.316406zm0 0"/><path d="m389.546875 114.8125c9.21875 3.558594 18.605469 5.273438 27.382813 5.273438 15.714843 0 29.480468-5.5 36.859374-15.769532 1.277344-1.777344 1.714844-4.023437 1.199219-6.148437-4.097656-16.882813-19.847656-32.46875-41.109375-40.671875-24.078125-9.28125-49.304687-6.617188-62.769531 6.621094-1.589844 1.5625-2.402344 3.753906-2.21875 5.976562 1.507813 17.945312 17.84375 35.914062 40.65625 44.71875zm18.9375-43.320312c14.863281 5.738281 26.515625 15.945312 30.792969 26.691406-8.761719 8.09375-26.925782 9.347656-44.328125 2.632812-15.585938-6.015625-27.515625-17.285156-30.464844-28.351562 9.960937-6.871094 27.339844-7.390625 44-.972656zm0 0"/><path d="m107.667969 82.789062c-13.488281 13.492188-10.570313 38.355469 6.503906 55.433594 7.992187 7.988282 17.929687 13.191406 27.984375 14.652344 1.9375.28125 3.835938.417969 5.691406.417969 8.554688 0 16.140625-2.953125 21.753906-8.570313 13.488282-13.488281 10.570313-38.355468-6.503906-55.429687-17.070312-17.074219-41.9375-19.992188-55.429687-6.503907zm51.328125 51.324219c-3.402344 3.402344-8.613282 4.792969-14.683594 3.914063-6.878906-.996094-13.8125-4.695313-19.53125-10.414063-11.035156-11.035156-14.015625-26.703125-6.503906-34.214843 2.8125-2.8125 6.765625-4.152344 11.191406-4.152344 7.398438 0 16.121094 3.75 23.023438 10.652344 11.035156 11.039062 14.011718 26.707031 6.503906 34.214843zm0 0"/><path d="m178.191406 300.976562c-4.144531 0-7.480468 3.359376-7.480468 7.5 0 4.144532 3.382812 7.503907 7.523437 7.503907 4.144531 0 7.503906-3.359375 7.503906-7.503907 0-4.140624-3.359375-7.5-7.503906-7.5zm0 0"/><path d="m80.992188 163.875c-4.140626 0-7.480469 3.359375-7.480469 7.503906 0 4.140625 3.382812 7.5 7.523437 7.5 4.144532 0 7.503906-3.359375 7.503906-7.5 0-4.144531-3.359374-7.503906-7.503906-7.503906zm0 0"/></svg>