<svg xmlns="http://www.w3.org/2000/svg" viewBox="0 0 408.507 408.507">
  <path fill="#808c93" d="M156.175 186.41s-19.016 24.161-19.739 44.155c0 0 23.714 35.074 22.352 56.386l-58.237 31.222 14.971 68.275L159.416 406l-1.552-18.653-22-10-2.792-52.389 66.062-26.697a17.397 17.397 0 0010.825-17.497l-5.269-66.809-25.225-25.226"/>
  <path fill="#a6b2bc" d="M394.12 68.592a4.883 4.883 0 011.828 5.729c-1.583 4.278-3.927 11.007-4.394 11.495-.95 1-1.97 1.97-3.05 2.89-1.18 1-2.53 1.7-3.97 2.1-2.18.62-4.56.54-6.77-.26-7.37-2.67-22.79-14.58-35.59-8.5-9.56 4.55-12.21-1.11-15.21-1.38-.1.49-.21.98-.34 1.49-7.08 27.81 45.07 63.52 21.74 89.52-9.2 10.25-21.49 16.03-33.01 19.26-5.54 1.56-10.23 5.24-13.13 10.2-3 5.14-6.52 10.45-10.53 15.75l-.01.02c-6.25 8.26-13.68 16.48-22.1 23.87-4.65 4.09-9.61 7.93-14.84 11.39-8.44 5.6-17.62 10.2-27.39 13.28-3.03.97-6.13 1.78-9.28 2.43-3.92.8-7.72 1.5-11.42 2.13-25.32 4.24-45.3 4.41-58.89 3.53-13.34-.87-20.51-2.74-20.51-2.74-65.92 43.95-115 40.29-115 40.29 56.39-25.63 88.63-97.42 88.63-97.42 25.63-31.49 87.16-60.8 87.16-60.8 16.685-4.71 58.038-5.833 75.14-6.181a60.16 60.16 0 0115.425 1.703c9.118 2.213 18.152 4.638 26.635 8.308 2.99 1.29 6.54.86 8.92-1.35 7.64-7.11-6.47-22.33-6.47-22.33-23-26.5-18.41-52.71-14.68-64.16.89-2.75 6.48-9.52 11.58-14.2a27.08 27.08 0 019.55-5.66c6.42-2.21 19.48-6.15 33.12-7 4.45-.28 8.87.9 12.59 3.37 0 .001 25.156 16.995 34.266 23.226z"/>
  <path fill="#8a949b" d="M206.655 270.005c-25.325 4.241-45.3 4.406-58.891 3.527-4.373-24.359 7.636-56.266 7.636-56.266l51.255 52.739zM254.746 252.162c-8.449 5.603-17.624 10.207-27.391 13.284l-15.877-7.834 13.097-22.095 30.171 16.645z"/>
  <path fill="#a6b2bc" d="M156.546 210.736s-6.592 30.032 1.465 48.344c0 0 36.624 21.242 44.681 41.019L163.87 353.57l43.216 54.936h44.277l-9.522-16.115h-12.78L196.1 345.513l47.837-52.807a17.396 17.396 0 002.122-20.465l-33.844-57.843-33.694-11.72"/>
  <path fill="#8a949b" d="M291.697 216.882l-.011.022c-6.252 8.262-13.679 16.481-22.106 23.875l-8.284-21.249 9.614-26.666 20.787 24.018z"/>
  <path fill="#a6b2bc" d="M284.609 184.509l14.039 6.45s10.987 32.962 8.057 57.134l26.543 15.926a10.43 10.43 0 012.009 16.319l-13.392 14.51-19.13-.894 9.098-4.109 9.486-14.064-34.39-15.968-16.847-48.344.827-18.6 13.7-8.36z"/>
  <circle cx="349.122" cy="55.586" r="4.503" fill="#4d4d4d"/>
  <path fill="#8a949b" d="M326.962 80.666s-8.598-9.319-4.098-19.319c0 0-9.629 18.255 3.186 28.378l.912-9.059zM388.504 88.707c-1.18 1-2.53 1.7-3.97 2.1-8.33-6.03-25.67-13.21-36.17-14.21-10.23-.97-11.68-6.69-11.74-6.99.26.17 4.45 2.99 10.99 2.99 16-.25 40.89 16.11 40.89 16.11zM229.062 392.392h-14.198l7.962-8.87z"/>
</svg>
