<svg xmlns="http://www.w3.org/2000/svg" data-name="Layer 1" width="512" height="512"><path d="M256 17.68c112.43 0 203.93 87.31 203.93 194.96C459.93 363.95 256 494.32 256 494.32S52.07 363.95 52.07 212.64c0-107.65 91.5-194.96 203.93-194.96zm148.89 200.33A148.89 148.89 0 1 0 256 366.91a148.89 148.89 0 0 0 148.89-148.9z" fill="#00acea"/><path d="M351.45 248.03v-95.3h-190.9v136.54h190.9zM256 69.12a148.9 148.9 0 1 1-148.89 148.89A148.89 148.89 0 0 1 256 69.12z" fill="#fedb41"/><path fill="#00efd1" d="M351.45 248.03v41.24H211.46l42.9-42.16 40.12-39.43 56.97 40.35z"/><path d="M351.45 152.73v95.3l-56.97-40.35-40.12 39.43-.02-.02-46.77-22.79-47.02 27.27v-98.84zm-90.69 44.73a14.96 14.96 0 1 0-14.96 14.96 14.963 14.963 0 0 0 14.96-14.96z" fill="#f4b844"/><circle cx="245.8" cy="197.46" r="14.96" fill="#00efd1"/><path fill="#00acea" d="M254.36 247.11l-42.9 42.16h-50.91v-37.7l47.02-27.27 46.77 22.79.02.02z"/><path d="M360 153a8 8 0 0 0-8-8H161a8 8 0 0 0-8 8v137a8 8 0 0 0 8 8h191a8 8 0 0 0 8-8zm-17 8v71.56l-44.121-31.408a7.845 7.845 0 0 0-10.119.823l-36.026 35.461-41.688-20.328a7.526 7.526 0 0 0-7.278.271L169 237.682V161zm-174 95.176l39.123-22.818L240.8 249.2 208.188 281H169zM231.015 281l64.076-63.059L343 252.167V281z" fill="#083863"/><path d="M245.8 220.42a22.96 22.96 0 1 0-22.96-22.96 22.986 22.986 0 0 0 22.96 22.96zm0-29.92a6.96 6.96 0 1 1-6.96 6.96 6.968 6.968 0 0 1 6.96-6.96z" fill="#083863"/><path d="M256 9.68c-116.858 0-211.93 91.048-211.93 202.96 0 35.922 11.075 73.54 32.916 111.812 17.261 30.245 41.271 61 71.364 91.4 51.022 51.548 101.229 83.858 103.341 85.208a8 8 0 0 0 8.618 0c2.112-1.35 52.319-33.664 103.341-85.211 30.093-30.4 54.1-61.152 71.364-91.4 21.841-38.272 32.916-75.89 32.916-111.812C467.93 100.728 372.858 9.68 256 9.68zm165.2 306.7c-16.532 29-39.646 58.609-68.7 87.993a677.641 677.641 0 0 1-96.5 80.344 676.515 676.515 0 0 1-96.278-80.124c-29.11-29.408-52.27-59.04-68.838-88.072C70.437 280.7 60.07 245.745 60.07 212.64c0-103.09 87.894-186.96 195.93-186.96s195.93 83.87 195.93 186.96c0 33.06-10.339 67.96-30.73 103.738z" fill="#083863"/><path d="M256 61.12c-86.509 0-156.89 70.38-156.89 156.89s70.381 156.9 156.89 156.9 156.89-70.385 156.89-156.9S342.509 61.12 256 61.12zm0 297.79c-77.687 0-140.89-63.207-140.89-140.9S178.313 77.12 256 77.12s140.89 63.2 140.89 140.89-63.203 140.9-140.89 140.9z" fill="#083863"/></svg>