<svg xmlns="http://www.w3.org/2000/svg" viewBox="0 0 459.278 459.278">
  <path fill="#729da0" d="M167.091 200.105l-18.897 21.567 8.605 55.532s-36.415 6.069-53.819 24.908c0 0 9.726 25.416 1.914 48.324l39.105 21.406.451-16.3-18.946-10.371 4.691-38.799s60.443-6.781 72.007-14.951c0 0 4.041-46.246-4.623-62.808-8.662-16.561-30.488-28.508-30.488-28.508zM213.396 355.069l18.667 10.796h-23.334z"/>
  <path fill="#91bec4" d="M459.278 147.72s-50.8-42.507-133.74-33.176c0 0-21.772 44.58-49.764 61.168 0 0-49.764-7.257-82.94-2.073 0 0-52.874 18.94-94.344 73.609 0 0-22.808 30.066-98.491 44.58 0 0 97.454 0 128.556-10.367l55.984-25.919s71.535-4.147 93.307-23.845c0 0 41.47-67.388 73.609-70.499l13.478 13.478s37.323-9.331 70.499-3.11l5.184-11.404 11.404 3.11 7.258-15.552z"/>
  <path fill="#dd8d6b" d="M435.504 133.064s-3.178-18.519-13.549-27.85c0 0-43.74-18.468-69.104-17.758-1.545.043-2.857 1.127-3.233 2.627-.647 2.578-1.162 6.675.801 9.947 3.11 5.184 20.93 4.615 23.943 14.748"/>
  <path fill="#729da0" d="M440.617 160.161l-65.315-9.33-9.331 8.294 14.758-1.26 57.416 7.734z"/>
  <path fill="#4d4d4d" d="M372.456 136.346s8.585 4.307 18.911 1.474l.304-5.636s-9.401-5.934-16.292-8.115c.001 0-6.061 7.586-2.923 12.277z"/>
  <path fill="#729da0" d="M152.401 235.844s8.799 17.279.563 34.317l19.016-8.804-19.579-25.513zM208.794 227.967l27.26 20.527-12.74 2.463zM263.786 223.177s-4.241 14.601-9.982 20.644l16.255-6.738-6.273-13.906zM286.142 195.411l11.339 8.521-13.361 18.221z"/>
  <path fill="#91bec4" d="M158.622 207.852l-6.22 27.992 34.213 44.58s-29.029 22.808-35.249 47.69c0 0 20.735 17.625 24.882 41.47h44.58l-7.431-14.514h-21.598l-14.514-36.286s49.764-34.97 55.984-47.69c0 0-18.661-42.507-34.213-52.874-15.552-10.368-40.434-10.368-40.434-10.368zM320.353 271.088c-5.18 12.72-26.95 19.7-26.95 19.7l9.33-13.47-5.19-14.52-26.95 13.48c-11.41-18.66-6.22-59.1-6.22-59.1l21.77-21.77c18.45 28.71-3.65 57.42-4.14 58.05l23.84-13.47c6.22 8.3 14.51 31.1 14.51 31.1z"/>
  <path fill="#729da0" d="M320.353 271.088c-5.18 12.72-26.95 19.7-26.95 19.7l9.33-13.47 17.62-6.23z"/>
</svg>