<svg xmlns="http://www.w3.org/2000/svg" viewBox="0 0 465.01 465.01">
  <circle cx="383.866" cy="130.822" r="7.354" fill="#e5ba8f"/>
  <circle cx="397.212" cy="135.279" r="7.354" fill="#e5ba8f"/>
  <circle cx="371.116" cy="134.572" r="7.354" fill="#e5ba8f"/>
  <circle cx="359.97" cy="142.176" r="7.354" fill="#e5ba8f"/>
  <circle cx="355.47" cy="152.676" r="7.354" fill="#e5ba8f"/>
  <circle cx="355.47" cy="166.176" r="7.354" fill="#e5ba8f"/>
  <circle cx="355.324" cy="179.822" r="7.354" fill="#e5ba8f"/>
  <circle cx="350.574" cy="193.572" r="7.354" fill="#e5ba8f"/>
  <circle cx="336.074" cy="194.322" r="7.354" fill="#e5ba8f"/>
  <circle cx="325.102" cy="182.072" r="7.354" fill="#e5ba8f"/>
  <circle cx="311.102" cy="170.322" r="7.354" fill="#e5ba8f"/>
  <circle cx="294.852" cy="161.822" r="7.354" fill="#e5ba8f"/>
  <circle cx="279.102" cy="154.572" r="7.354" fill="#e5ba8f"/>
  <circle cx="263.102" cy="149.572" r="7.354" fill="#e5ba8f"/>
  <circle cx="247.352" cy="146.322" r="7.354" fill="#e5ba8f"/>
  <circle cx="212.352" cy="147.723" r="7.354" fill="#e5ba8f"/>
  <circle cx="194.852" cy="152.01" r="7.354" fill="#e5ba8f"/>
  <circle cx="162.97" cy="162.926" r="7.354" fill="#e5ba8f"/>
  <circle cx="145.72" cy="169.426" r="7.354" fill="#e5ba8f"/>
  <circle cx="127.97" cy="178.426" r="7.354" fill="#e5ba8f"/>
  <circle cx="101.72" cy="201.426" r="7.354" fill="#e5ba8f"/>
  <circle cx="89.72" cy="216.176" r="7.354" fill="#e5ba8f"/>
  <circle cx="77.367" cy="229.706" r="7.354" fill="#e5ba8f"/>
  <circle cx="64.256" cy="243.764" r="7.354" fill="#e5ba8f"/>
  <circle cx="51.654" cy="257.322" r="7.354" fill="#e5ba8f"/>
  <circle cx="38.072" cy="271.304" r="7.354" fill="#e5ba8f"/>
  <circle cx="114.22" cy="188.926" r="7.354" fill="#e5ba8f"/>
  <circle cx="178.888" cy="156.622" r="7.354" fill="#e5ba8f"/>
  <circle cx="229.852" cy="145.072" r="7.354" fill="#e5ba8f"/>
  <path fill="#6ca375" d="M464.36 167.002l-1.55 4.47-2.44-.82s-3.01 9.23-9.28 8.09c-.11-.02-.21-.03-.31-.05l-7.45-1.36-29.11 10.45-14.93 36.58c-13.43 10.45-49.26 17.16-49.26 17.16-5.43 8.63-15.36 15.48-27.72 20.95-7.22 3.22-15.29 5.95-23.75 8.3h-.02c-6.98 1.95-14.25 3.64-21.55 5.09-4.02.82-8.05 1.55-12.05 2.24-7.19 1.22-14.52 1.62-21.61 1.49-10.95-.18-21.35-1.64-29.89-3.33-12.93-2.55-21.65-5.63-21.65-5.63s-1.92-3.98-6.28-8.73c-5.05-5.51-13.38-12-25.81-14.41-9.81-1.89-19.62 1.44-27.65 5.9a82.412 82.412 0 00-5.58 3.43c-15.26 10.3-32.36 17.51-50.26 21.8-34.59 8.3-74.96 14.94-76.21 15.14 20.89-8.22 42.51-31.34 42.51-31.34l73.15-79.86c53-33.59 114.95-40.31 114.95-40.31 40.3 3.73 72.4 21.65 72.4 21.65 11.9 7.37 23.55 18.81 31.66 27.61 5.45 5.95 15.32 2.77 16.39-5.24 2.33-17.22.46-38.05.46-38.05 4.48-14.18 32.85-20.15 32.85-20.15 26.12 7.46 30.6 11.2 30.6 11.2 14.93-3.74 30.6-.75 30.6-.75 6.38 5.01 12.76 12.25 16.76 17.13 2.61 3.18 3.37 7.47 2.03 11.35z"/>
  <path fill="#58935f" d="M414.222 187.784l-13.634 1.778a8.226 8.226 0 01-6.286-1.801l-14.514-11.922a8.23 8.23 0 01-2.907-7.628l3.006-19.241-8.751 20.712a8.228 8.228 0 002.492 9.669l20.778 16.345a8.227 8.227 0 005.171 1.761l10.741-.109 3.904-9.564zM213.44 276.262c-12.928-2.553-21.646-5.628-21.646-5.628s-1.926-3.986-6.285-8.733l7.27-33.364 18.794 22.69 1.867 25.035zM159.7 247.496c-9.808-1.896-19.616 1.433-27.647 5.896l-3.329-10.002 16.54-23.691 14.436 27.797zM276.989 275.859a385.046 385.046 0 01-12.047 2.239c-7.195 1.224-14.525 1.627-21.616 1.493 11.569-5.24 23.094-20.66 23.094-20.66l10.569 16.928zM322.31 262.468c-7.225 3.224-15.286 5.956-23.75 8.3l5.896-35.738 19.078 6.494s-3.568 12.421-1.224 20.944z"/>
  <path fill="#6ca375" d="M147.011 215.4l-11.196 27.617 14.928 24.631-24.631 47.023 20.899 26.87h37.32l4.478-11.942-26.87-12.689 33.588-29.856s10.45-20.153 9.703-36.574l-15.674-27.617M268.674 254.96s-17.237 29.605-20.153 42.545c0 0 26.87 16.421 35.081 35.827h44.038l3.675-10.792-32.038-12.347 13.435-35.827 1.493-31.349-16.421-13.435"/>
  <path fill="#4d4d4d" d="M406.012 141.88l7.837 4.105-11.196 4.479z"/>
  <path fill="#58935f" d="M460.37 170.653l-21.9-7.832-24.75 9.5-12.75-3 14.5 9 23.25-8.25 18.18 6.486c2.33-2.422 3.469-5.904 3.47-5.904z"/>
  <circle cx="133.97" cy="191.78" r="6" fill="#58935f"/>
  <circle cx="291.635" cy="191.93" r="6" fill="#58935f"/>
  <circle cx="307.47" cy="188.072" r="6" fill="#58935f"/>
  <circle cx="149.624" cy="240.572" r="6" fill="#58935f"/>
  <circle cx="145.47" cy="307.072" r="6" fill="#58935f"/>
  <circle cx="145.47" cy="319.572" r="3" fill="#58935f"/>
  <circle cx="269.47" cy="278.072" r="3" fill="#58935f"/>
  <circle cx="152.624" cy="253.572" r="3" fill="#58935f"/>
  <circle cx="262.77" cy="290.072" r="3" fill="#58935f"/>
  <circle cx="378.591" cy="140.572" r="6" fill="#58935f"/>
  <circle cx="283.97" cy="171.498" r="9.073" fill="#58935f"/>
  <circle cx="145.47" cy="198.323" r="2.25" fill="#58935f"/>
  <circle cx="296.47" cy="178.822" r="2.25" fill="#58935f"/>
  <circle cx="269.97" cy="285.822" r="2.25" fill="#58935f"/>
  <circle cx="136.22" cy="317.072" r="2.25" fill="#58935f"/>
  <circle cx="390.131" cy="145.802" r="2.25" fill="#58935f"/>
  <circle cx="153.817" cy="184.663" r="8.581" fill="#58935f"/>
</svg>