<svg xmlns="http://www.w3.org/2000/svg" viewBox="0 0 511.999 511.999">
  <path fill="#76cc5b" d="M90.738 421.262c145.944 145.945 485.68-115.381 410.554-410.554C206.118-64.418-55.206 275.318 90.738 421.262z"/>
  <path d="M90.738 374.976c-23.112-23.112-36-51.091-40.166-81.509-6.04 48.061 5.702 93.332 40.166 127.795C226.369 556.893 529.369 340.778 511.216 72.64 494.625 318.485 218.465 502.704 90.738 374.976z" opacity=".2"/>
  <path fill="#599944" d="M399.172 206.679l-64.02-13.466 62.685-62.685c4.519-4.519 4.519-11.846 0-16.365s-11.846-4.519-16.364 0l-62.687 62.687-13.466-64.02c-1.316-6.253-7.449-10.259-13.705-8.941-6.255 1.316-10.257 7.452-8.943 13.705l16.574 78.796-58.589 58.589-13.466-64.02c-1.316-6.255-7.449-10.259-13.705-8.943-6.253 1.316-10.257 7.452-8.941 13.705l16.574 78.796-58.589 58.589-13.466-64.02c-1.316-6.253-7.451-10.257-13.705-8.941-6.255 1.316-10.257 7.452-8.942 13.705l16.574 78.795L3.389 492.247c-4.519 4.519-4.519 11.845 0 16.364 2.259 2.259 5.221 3.388 8.182 3.388s5.923-1.129 8.182-3.388l139.602-139.602 78.796 16.574c.804.17 1.605.25 2.393.25 5.357 0 10.166-3.741 11.312-9.192 1.316-6.253-2.688-12.391-8.943-13.705l-64.02-13.466 58.589-58.589 78.796 16.574c.804.168 1.605.25 2.393.25 5.357 0 10.164-3.741 11.312-9.192 1.316-6.253-2.688-12.389-8.941-13.705l-64.02-13.466 58.589-58.589 78.796 16.575c.804.168 1.605.25 2.393.25 5.357 0 10.166-3.741 11.312-9.192 1.317-6.256-2.685-12.392-8.94-13.707z"/>
</svg>