<svg xmlns="http://www.w3.org/2000/svg" viewBox="0 0 512 512">
  <path fill="#ff7b8b" d="M205.092 446.971c65.849-28.698 12.448-104.132 106.191-148.588 83.04-39.38 169.854-51.351 154.558-170.846C450.641 8.789 237.712-55.8 112.145 63.403c-130.813 124.183-57.148 448.982 92.947 383.568z"/>
  <path fill="#ff4755" d="M196.889 416.444c33.35-14.459 18.7-119.444 105.104-149.756 79.755-27.98 143.274-62.545 139.206-127.378-5.53-88.121-198.27-156.208-307.369-49.218-106.424 104.366-55.151 377.605 63.059 326.352z"/>
  <path fill="#994e37" d="M311.283 298.383c-93.743 44.456-40.342 119.889-106.191 148.588-95.658 41.689-160.265-75.114-160.69-197.469l-.009-.003.17 50.859.037-.009c1.507 111.081 59.351 222.377 159.209 210.822 70.512-8.159 66.745-129.744 107.474-154.529 72.909-44.367 156.867-50.635 156.229-147.001l.017-.002.003-51.104c-2.708 90.992-81.025 104.175-156.249 139.848z"/>
  <path fill="#8c4534" d="M302.013 338.103c-53.337 36.57-36.961 146.369-107.474 154.529-55.568 6.43-98.117-25.191-125.197-73.638 26.097 58.669 72.083 99.397 134.467 92.178 70.512-8.16 66.745-129.744 107.474-154.529 72.909-44.367 156.868-50.635 156.229-147l.017-.002.003-51.104c.075 128.448-95.128 131.303-165.519 179.566z"/>
  <ellipse cx="265.313" cy="146.594" fill="#f4e9d3" rx="43.047" ry="28.075"/>
  <path fill="#e5d6be" d="M265.313 156.129c-18.792 0-34.762-7.856-40.634-18.805-1.557 2.903-2.413 6.02-2.413 9.27 0 15.505 19.273 28.075 43.048 28.075 23.774 0 43.047-12.569 43.047-28.075 0-3.25-.856-6.367-2.413-9.27-5.873 10.949-21.843 18.805-40.635 18.805z"/>
</svg>