<svg xmlns="http://www.w3.org/2000/svg" viewBox="0 0 459.871 459.871">
  <path fill="#a56f42" d="M271.238 206.214s6.9 26.285 3.114 50.722c0 0 62.036 28.991 59.798 64.046l21.93 5.553 8.719-14.78s-25.514-61.199-54.235-75.85c0 0 8.619-21.84 8.979-34.104"/>
  <path fill="#a56f42" d="M277.906 239.534s-1.873 26.259-12.261 48.226l-24.988 27.345a29.368 29.368 0 01-13.592 8.414c-14.416 4.136-43.965 14.044-46.428 26.363l11.443 35.148h20.435l4.904 17.165h-39.235l-24.522-54.765 38.417-42.504-10.626-20.435s-3.27-34.33 1.635-53.13M265.752 167.375s-8.757-20.763-7.483-43.957c.846-15.399-8.32-29.623-22.652-35.318-17.65-7.014-42.989-13.916-73.306-13.158 0 0-59.997 16.499-91.495 52.497 0 0-20.999 47.998-26.999 89.995l-9.218 83.584 115.713-100.083 115.44-33.56z"/>
  <path fill="#c98c51" d="M459.75 133.497l-.51 5.01-4.5-3.75c-2.24 5.57-11.95 11.74-16.47 14.38-2.18-.42-4.04-.97-5.36-1.41-1.17-.39-2.27-.98-3.21-1.79-20.43-17.75-58.13-5.74-58.53-5.74l-23.52 13.24s-4.03 45.42-31.29 92.28c-5.66 9.73-12.33 19.52-20.16 28.98-.79.95-1.6 1.9-2.41 2.84-.49.59-1 1.18-1.52 1.77-6.61 7.5-13.78 13.13-21.23 17.24-16.29 9.01-33.95 10.77-50.16 9.18-13.87-1.36-26.67-5.18-36.66-9.03-12.72-4.89-20.87-9.83-20.87-9.83s-19.59-14.36-37.53-19.42c-2.73-.78-5.42-1.34-7.99-1.59-19.52-1.97-35.24 23.56-52.09 44.04C48.88 330.387 0 342.717 0 342.717c21.88-13.41 34.6-41.7 34.6-41.7 5.2-31.58 19.75-64.04 33.13-88.77 13.64-25.26 26.08-42.47 26.08-42.47 3.26-3.54 7.07-6.77 11.26-9.71 10.93-7.66 24.42-13.33 37.35-17.46 24.14-7.72 46.33-10.09 46.33-10.09 5.88.45 11.85 1.67 17.73 3.37h.02c30.82 8.93 59.25 31.49 59.25 31.49 13.94-48.71 50.09-97.65 50.09-97.65 6.9-4.41 15.75-7.23 24.53-9.01 18.05-3.67 35.82-2.99 35.82-2.99 25.24 8.53 23.11 36.71 62.3 40.95 9.19.99 11.94 12.43 15.73 16.91 4.2 4.97 6.18 11.43 5.53 17.91z"/>
  <path fill="#b27747" d="M220.877 305.714v.012c-13.867-1.361-26.667-5.174-36.66-9.024l38.094-49.129c.001 0 7.639 36.868-1.434 58.141zM293.793 277.538c-.49.589-1.005 1.177-1.52 1.766-6.608 7.504-13.781 13.131-21.236 17.239-4.353-19.777-17.557-37.396-17.557-37.396l22.486-36.868 17.827 55.259z"/>
  <path fill="#b27747" d="M316.365 245.721c-5.664 9.723-12.334 19.519-20.169 28.972l-13.83-32.565 24.252-16.491 4.622 9.612 5.125 10.472z"/>
  <path fill="#c98c51" d="M275.364 212.978s-3.685 26.925-16.535 48.052c0 0 48.29 54.959 30.733 82.056l18.135 13.524 13.712-10.318s-.149-66.304-21.077-90.832c0 0 16.322-16.879 21.348-28.071"/>
  <path fill="#b27747" d="M371.171 140.192s-24.96 4.216-40.853-5.897l17.337 19.139 23.516-13.242zM128.423 231.36s-12.296 16.317-10.598 34.494l20.365 3.51-9.767-38.004z"/>
  <path fill="#c98c51" d="M223.24 239.534s-1.873 26.259-12.261 48.226l-24.988 27.345a29.368 29.368 0 01-13.592 8.414c-14.416 4.136-43.965 14.044-46.428 26.363l11.443 35.148h20.435l4.904 17.165h-39.235L98.996 347.43l38.417-42.504-10.626-20.435s-3.27-34.33 1.635-53.13l94.818 8.173z"/>
  <path fill="#a56f42" d="M442.19 128.947c6.24 1.99 10.08 4.09 12.55 5.81-.65 1.62-1.94 3.3-3.55 4.93-6.21-3.3-15.58-7.14-35.67-9.41-33.67-3.79-41.23 10.04-54 2.67-12.77-7.37-7.33-21.33-7.33-21.33s3.33 21.33 20 15.33c16.67-6 48.36-4.28 68 2zM458.32 137.747l-3.56-2.97c1.75 1.22 2.81 2.26 3.56 2.97z"/>
  <path fill="#c98c51" d="M458.38 137.797l.86.71c-.25-.16-.52-.4-.86-.71z"/>
  <path fill="#4d4d4d" d="M377.547 76.714l1.803 12.542 15.925-3z"/>
  <path fill="#c98c51" d="M242.19 161.197s-.086-43.408 2.5-54.5l-10 48 7.5 6.5zM224.69 147.697l2.5-54-13.5 50zM202.19 141.197l2-55.5-10.5 54.5zM177.19 142.197l10.5-2-3.5-56zM168.69 143.197l-5.5-56-5.5 59.5zM149.69 148.197l-7.5-54.5-.5 56.5zM122.69 113.697l12 38-8 1.5zM104.69 124.697l16 37.5-8.5 1.5zM85.19 136.697l22.5 34.5-10 6.5zM74.19 155.697l23.5 22-6 8.5zM68.69 172.197l20 19.5-7 7.5zM59.69 188.197l18 18-4 7zM54.19 208.197l15 10.5-5 8.5z"/>
</svg>
