<svg xmlns="http://www.w3.org/2000/svg" viewBox="0 0 459.875 459.875">
  <path fill="#9fa396" d="M274.737 251.664s-1.873 26.259-12.261 48.226l-24.988 27.345a29.368 29.368 0 01-13.592 8.414c-14.416 4.136-43.965 14.044-46.428 26.363l11.443 35.148h20.435l4.904 17.165h-39.235l-24.522-54.765 38.417-42.504-10.626-20.435s-3.27-34.33 1.635-53.13"/>
  <path fill="#ba8e88" d="M376.195 69.858s-72.854-36.011-135.539-20.37c-9.276 2.314-17.184 8.631-20.999 17.397a25.685 25.685 0 00-1.248 3.516c-2.617 9.595 21.781 12.051 28.378 3.682s16.195-22.19 50.188-.703c6.905 4.367 10.38 11.1 11.537 19.066"/>
  <path fill="#d2d8ca" d="M459.753 145.627l-1.149 11.392c-10.826 9.588-26.925 14.541-26.925 14.541-20.144-19.188-60.102-19.237-60.507-19.237l-23.516 13.242s-4.034 45.426-31.29 92.287c-5.665 9.723-12.334 19.519-20.169 28.972-.785.956-1.594 1.9-2.403 2.844-.49.589-1.005 1.177-1.52 1.766-6.608 7.504-13.781 13.131-21.236 17.239-16.282 9.012-33.95 10.777-50.159 9.183-13.867-1.361-26.667-5.174-36.66-9.024-12.715-4.892-20.868-9.833-20.868-9.833s-19.593-14.357-37.531-19.421c-2.734-.785-5.419-1.336-7.994-1.594-19.519-1.962-35.238 23.565-52.084 44.041C48.884 342.513 0 354.847 0 354.847c21.885-13.413 34.6-41.699 34.6-41.699 5.199-31.584 19.752-64.038 33.129-88.768 13.646-25.257 26.079-42.471 26.079-42.471 3.261-3.543 7.075-6.768 11.268-9.711 10.924-7.663 24.411-13.328 37.346-17.459 24.142-7.724 46.334-10.091 46.334-10.091 5.873.454 11.844 1.667 17.729 3.372h.012c30.824 8.926 59.257 31.486 59.257 31.486 13.94-48.712 50.085-97.645 50.085-97.645 6.903-4.414 15.755-7.234 24.534-9.012 18.048-3.666 35.814-2.992 35.814-2.992 25.245 8.534 47.143 26.091 62.31 40.951a248.03 248.03 0 0115.724 16.91 24.002 24.002 0 015.532 17.909z"/>
  <path fill="#c6b1ac" d="M438.496 110.808c-8.509 8.999-31.339 25.601-53.408 25.601-36.206 0-45.782-20.427-45.782-20.427-28.359 12.665-42.472 48.957-47.903 67.079a38.898 38.898 0 01-21.236 24.289c-.294.135-.601.27-.895.405-8.117 3.58-17.202 4.095-25.772 1.827-23.553-6.229-61.942-8.595-61.942-8.595-43.33 13.082-53.138 42.508-53.138 42.508s-5.395 19.348-2.599 36.084c-2.734-.785-5.419-1.336-7.994-1.594-19.519-1.962-35.238 23.565-52.084 44.041C48.884 342.513 0 354.847 0 354.847c21.885-13.413 34.6-41.699 34.6-41.699 10.532-63.842 59.207-131.24 59.207-131.24 27.673-30.076 94.948-37.261 94.948-37.261 36.672 2.869 76.998 34.858 76.998 34.858 13.94-48.712 50.085-97.645 50.085-97.645 21.064-13.487 60.348-12.003 60.348-12.003 25.246 8.533 47.144 26.091 62.31 40.951z"/>
  <path fill="#b3b7ac" d="M220.879 317.844v.012c-13.867-1.361-26.667-5.174-36.66-9.024l38.094-49.129s7.639 36.869-1.434 58.141z"/>
  <path fill="#d2d8ca" d="M223.241 251.664s-1.873 26.259-12.261 48.226l-24.988 27.345a29.368 29.368 0 01-13.592 8.414c-14.416 4.136-43.965 14.044-46.428 26.363l11.443 35.148h20.435l4.904 17.165H123.52L98.998 359.56l38.417-42.504-10.626-20.435s-3.27-34.33 1.635-53.13"/>
  <path fill="#b3b7ac" d="M293.794 289.669c-.49.589-1.005 1.177-1.52 1.766-6.608 7.504-13.781 13.131-21.236 17.239-4.353-19.777-17.557-37.396-17.557-37.396l22.486-36.868 17.827 55.259z"/>
  <path fill="#b3b7ac" d="M316.366 257.852c-5.665 9.723-12.334 19.519-20.169 28.972l-13.83-32.565 24.252-16.491 4.622 9.612 5.125 10.472z"/>
  <path fill="#d2d8ca" d="M277.431 226.684s-3.106 22.69-13.935 40.495c0 0 29.413 37.254 25.9 69.15l15.283 11.397c7.442-5.6 11.562-14.592 10.874-23.88-1.339-18.081-5.309-47.564-17.081-61.361 0 0 13.755-14.224 17.99-23.656"/>
  <path fill="#ba8e88" d="M206.485 148.019c-1.017.13-51.171 6.382-67.867 42.327-1.938 4.173-4.887 7.841-8.836 10.202-3.278 1.959-7.59 3.592-12.727 3.418-9.809-.331 4.071-27.648 25.368-49.227 24.142-7.724 46.334-10.091 46.334-10.091 5.871.453 11.842 1.667 17.728 3.371zM88.129 224.917c.157 2.501-.121 5.017-1.073 7.335-1.753 4.268-5.644 9.711-14.031 9.183-4.782-.307-5.885-7.638-5.297-17.055 13.646-25.257 26.079-42.471 26.079-42.471 3.261-3.543 7.075-6.768 11.268-9.711-7.26 14.428-17.856 38.24-16.946 52.719z"/>
  <path fill="#b3b7ac" d="M371.172 152.323s-24.96 4.216-40.853-5.897l17.337 19.139 23.516-13.242z"/>
  <path fill="#ba8e88" d="M459.753 145.627l-1.149 11.392c-19.458-43.354-118.231-84.158-118.231-84.158v-.012c18.048-3.666 35.814-2.992 35.814-2.992 25.245 8.534 47.143 26.091 62.31 40.951a248.03 248.03 0 0115.724 16.91 24.002 24.002 0 015.532 17.909z"/>
  <circle cx="391.134" cy="110.293" r="7.356" fill="#666"/>
  <path fill="#b3b7ac" d="M458.604 157.019l-18.755-8.346-28.609 1.635-17.982-7.356 17.982 12.669 27.894-2.759 13.547 8.672z"/>
</svg>