<svg xmlns="http://www.w3.org/2000/svg" viewBox="0 0 468.647 468.647">
  <path fill="#6bd65f" d="M468.647 162.332l-11.072 3.109-1.38 6.921c-13.147 5.531-60.532 8.989-60.532 8.989s-24.831 24.436-52.857 46.185c-6.402 4.96-12.97 9.785-19.446 14.143a237.263 237.263 0 01-7.243 4.701 103.584 103.584 0 01-7.824 4.4c-5.717 2.926-11.85 5.479-18.138 7.72-7.792 2.771-15.834 5.053-23.596 6.921-11.237 2.698-21.915 4.534-30.496 5.759-3.352.467-6.371.851-8.996 1.152-6.568.768-10.563 1.027-10.563 1.027-7.222 0-14.423-.135-21.479-.374-21.396-.716-41.558-2.376-57.703-4.057a193.505 193.505 0 00-73.631 6.579c-2.345.674-4.711 1.359-7.077 2.023v.01a3528.123 3528.123 0 01-15.959 4.534l-1.307.374A5773.519 5773.519 0 010 293.407c12.223-8.664 25.349-17.598 38.486-26.315a881.303 881.303 0 003.186-2.117 3011.395 3011.395 0 0116.104-10.542h.01c1.048-.674 2.086-1.349 3.123-2.023a2462.192 2462.192 0 0118.107-11.601c1.297-.83 2.584-1.65 3.86-2.449a3704.287 3704.287 0 0124.685-15.482 1621.33 1621.33 0 015.624-3.476 3155.447 3155.447 0 0121.147-12.95c3.341-2.013 5.416-3.258 5.935-3.57a229 229 0 0120.919-11.591c1.38-.674 2.74-1.328 4.088-1.951h.01a224.2 224.2 0 0118.501-7.606c1.079-.384 2.137-.757 3.185-1.11 9.328-3.206 17.629-5.354 24.405-6.797 1.401-.301 2.74-.571 4.005-.809 9.38-1.774 14.952-2.044 14.952-2.044 2.241.083 4.483.197 6.724.353 1.1.062 2.19.145 3.289.239 6.392.519 12.753 1.287 18.875 2.2 1.141.176 2.283.353 3.404.529 8.27 1.339 16.031 2.905 22.838 4.431.944.218 1.878.436 2.781.633 10.117 2.366 17.754 4.555 21.126 5.562.986.291 1.598.488 1.816.55.052.021.083.031.083.031 6.817-1.982 13.707-4.337 20.566-6.931.965-.353 1.93-.726 2.885-1.1a390.282 390.282 0 0020.981-8.882c1.069-.477 2.117-.955 3.165-1.453a515.695 515.695 0 0020.13-9.878c.986-.508 1.961-1.017 2.916-1.515a651.173 651.173 0 0024.945-13.811l3.009-1.774a567.212 567.212 0 006.998-4.2 30.117 30.117 0 0121.67-3.818c13.031 2.645 22.851 6.327 22.851 6.327 4.153 6.226 7.263 23.865 7.263 23.865z"/>
  <path fill="#5eb252" d="M238.636 262.288l-11.57 10.044c-6.568.768-10.563 1.027-10.563 1.027-7.222 0-14.423-.135-21.479-.374l11.788-14.849-19.456-39.327 51.28 43.479zM266.58 265.401l-.021.021c-11.237 2.698-21.915 4.534-30.496 5.759l12.088-29.905 18.429 24.125zM308.293 250.781c-5.717 2.926-11.85 5.479-18.138 7.72l17.661-21.801.477 14.081zM342.805 227.538c-6.402 4.96-12.97 9.785-19.446 14.143l-2.407-2.221-.508-23.419s10.999-3.217 22.351 11.487l.01.01z"/>
  <path fill="#6bd65f" d="M329.26 268.522c1.34 17.44-13.59 30.33-14.49 31.08 6.88-8.31 6.88-23.48 6.88-23.48-2.05 7.49-17.5 21.69-17.98 22.13 8.29-14.52 9.68-24.2 9.68-24.2l-18.68 2.77c0-11.76 13.14-40.13 13.14-40.13l-3.46-21.44s22.83-4.84 30.44 13.83c4.4 10.8-3.46 21.6-10.87 28.79-4.87 4.73-9.55 7.9-10.42 8.48l-.15.09 15.91 2.08zM221.178 261.061c-1.353 1.837-32.017 44.084-32.017 44.084l8.117 31.961h25.509l2.706-5.143-16.04-3.306-4.96-21.675 50.054-42.615-10.372-37.472-19.841-10.654-36.977 2.572 33.821 42.248z"/>
  <path fill="#54ad47" d="M60.909 252.41c-.166.56-.342 1.11-.508 1.66-.457 1.733-.955 3.445-1.349 5.105-.363 1.671-.768 3.289-1.048 4.835-.27 1.546-.508 3.019-.737 4.368a339.14 339.14 0 00-.405 3.736c-.156 1.11-.104 2.086-.166 2.895a255.054 255.054 0 00-.083 2.522c-.01-.125-.073-1.027-.177-2.522-.031-.809-.187-1.785-.156-2.916.01-1.131.01-2.407.01-3.798.083-1.39.176-2.895.28-4.483.114-1.598.353-3.258.54-5.001.187-1.422.436-2.885.664-4.379h.01c1.05-.673 2.088-1.348 3.125-2.022zM82.876 238.36c-.156.467-.311.923-.478 1.38-.56 1.733-1.09 3.486-1.619 5.209-.446 1.733-.944 3.435-1.349 5.105-.353 1.67-.757 3.279-1.048 4.825-.259 1.556-.508 3.02-.737 4.379-.145 1.359-.28 2.615-.405 3.725-.156 1.121-.104 2.096-.156 2.895l-.083 2.532s-.073-.913-.187-2.532c-.031-.799-.187-1.785-.145-2.916 0-1.121.01-2.397.01-3.787.083-1.39.177-2.895.27-4.493.125-1.588.363-3.258.55-4.991.228-1.733.54-3.507.82-5.323.228-1.173.446-2.366.695-3.559 1.299-.83 2.586-1.65 3.862-2.449zM113.186 219.403c-.27.643-.54 1.297-.799 1.971-.654 1.588-1.266 3.238-1.899 4.929-.643 1.671-1.193 3.414-1.795 5.136-.571 1.733-1.09 3.486-1.619 5.209-.456 1.733-.955 3.435-1.349 5.105-.363 1.67-.768 3.279-1.048 4.825-.27 1.556-.508 3.02-.737 4.379a314.555 314.555 0 00-.405 3.725c-.156 1.121-.104 2.096-.166 2.895l-.083 2.532s-.062-.913-.176-2.532c-.031-.799-.187-1.785-.156-2.916.01-1.121.01-2.397.01-3.787.093-1.39.176-2.895.28-4.493.125-1.588.353-3.258.54-4.991.228-1.733.54-3.507.82-5.323.353-1.795.695-3.621 1.079-5.448.436-1.805.799-3.642 1.276-5.406.197-.789.405-1.567.602-2.335a1783.61 1783.61 0 015.625-3.475zM140.268 202.883a147.63 147.63 0 00-1.598 3.86c-.654 1.587-1.266 3.237-1.888 4.929-.654 1.67-1.193 3.414-1.805 5.136-.571 1.733-1.09 3.486-1.619 5.209-.456 1.733-.944 3.435-1.349 5.105-.363 1.671-.768 3.279-1.048 4.825-.259 1.556-.508 3.02-.737 4.379-.145 1.359-.28 2.615-.405 3.725-.156 1.121-.104 2.096-.156 2.895-.062 1.608-.093 2.532-.093 2.532s-.062-.913-.177-2.532c-.031-.799-.187-1.785-.145-2.916 0-1.121 0-2.397.01-3.787.083-1.39.176-2.895.27-4.493.124-1.587.353-3.258.54-4.991.228-1.733.55-3.507.82-5.323.353-1.795.695-3.621 1.09-5.448.426-1.805.799-3.642 1.276-5.406.353-1.401.706-2.781 1.079-4.13 3.341-2.012 5.416-3.257 5.935-3.569zM165.275 189.342c-.467 1.307-.892 2.625-1.359 3.943-.56 1.743-1.09 3.486-1.619 5.209-.457 1.733-.944 3.435-1.349 5.105-.363 1.671-.768 3.279-1.048 4.825-.259 1.556-.509 3.02-.737 4.379a576.06 576.06 0 01-.405 3.735c-.156 1.11-.104 2.086-.156 2.885l-.083 2.542s-.073-.924-.187-2.532c-.031-.809-.187-1.795-.145-2.916 0-1.131 0-2.407.01-3.798.083-1.391.176-2.895.27-4.483.124-1.598.363-3.258.55-5.001.218-1.722.54-3.497.809-5.313.353-1.795.695-3.632 1.09-5.448.093-.394.187-.789.27-1.183 1.381-.673 2.74-1.326 4.089-1.949zM186.972 180.626c-.363 1.121-.695 2.231-1.038 3.341-.456 1.733-.955 3.435-1.349 5.105-.363 1.671-.768 3.279-1.048 4.825-.27 1.556-.508 3.02-.737 4.379a341.8 341.8 0 00-.405 3.735c-.156 1.11-.104 2.086-.166 2.885l-.083 2.542s-.062-.924-.176-2.532c-.031-.809-.187-1.795-.156-2.916.01-1.131.01-2.407.01-3.798.093-1.391.176-2.895.28-4.483.125-1.598.353-3.258.54-5.001.228-1.722.54-3.497.82-5.313.104-.55.218-1.1.322-1.66 1.08-.383 2.138-.756 3.186-1.109zM311.188 185.472c-.301 1.349-.612 2.656-.841 3.912-.27 1.546-.508 3.019-.737 4.368-.156 1.37-.29 2.625-.405 3.735-.156 1.11-.104 2.086-.166 2.895l-.083 2.532s-.062-.924-.176-2.532c-.031-.809-.187-1.795-.156-2.916.01-1.131.01-2.407.01-3.798.083-1.39.176-2.895.28-4.483.093-1.37.291-2.791.457-4.265.987.292 1.599.49 1.817.552zM334.722 177.472l-.311 1.027c-.457 1.743-.955 3.445-1.349 5.105-.363 1.671-.768 3.289-1.048 4.835-.27 1.546-.508 3.02-.737 4.369a341.8 341.8 0 00-.405 3.735c-.166 1.11-.104 2.086-.166 2.895l-.083 2.532s-.062-.923-.176-2.532c-.031-.799-.187-1.785-.156-2.916.01-1.131.01-2.407.01-3.798.083-1.38.176-2.895.28-4.483.114-1.598.353-3.258.54-4.991.197-1.525.467-3.092.716-4.68a131.7 131.7 0 002.885-1.098zM358.868 167.137c-.28.903-.55 1.805-.83 2.698-.457 1.733-.944 3.445-1.349 5.105-.363 1.671-.768 3.289-1.048 4.836a2045.47 2045.47 0 01-.737 4.368 576.06 576.06 0 01-.405 3.735c-.156 1.11-.104 2.086-.156 2.895l-.083 2.532s-.073-.924-.187-2.532c-.031-.809-.187-1.795-.145-2.916 0-1.131 0-2.407.011-3.798.083-1.39.176-2.895.27-4.483.125-1.598.363-3.258.55-5.001.218-1.723.54-3.497.82-5.313.042-.218.083-.446.125-.674a147.29 147.29 0 003.164-1.452zM381.914 155.743c-.083.259-.156.519-.239.778-.457 1.733-.955 3.435-1.349 5.105-.363 1.67-.768 3.279-1.048 4.825-.27 1.556-.508 3.02-.737 4.379-.145 1.37-.291 2.615-.405 3.725-.156 1.121-.104 2.096-.166 2.895-.052 1.619-.083 2.532-.083 2.532s-.062-.913-.176-2.522c-.031-.809-.187-1.795-.156-2.916.011-1.131.011-2.407.011-3.798.093-1.39.176-2.895.28-4.493.125-1.588.353-3.258.54-4.991.177-1.318.394-2.646.612-4.005.986-.507 1.961-1.016 2.916-1.514zM409.868 140.158c-.125.394-.239.778-.363 1.173-.457 1.733-.944 3.435-1.349 5.105-.353 1.671-.757 3.279-1.048 4.825-.259 1.556-.508 3.02-.737 4.379-.145 1.359-.28 2.615-.405 3.725-.156 1.121-.104 2.096-.156 2.895l-.083 2.532s-.073-.913-.187-2.532c-.031-.799-.187-1.785-.145-2.916 0-1.121.01-2.397.01-3.787.083-1.39.177-2.895.27-4.493.125-1.588.363-3.258.55-4.991.176-1.359.405-2.739.633-4.14 1.038-.613 2.045-1.204 3.01-1.775zM215.383 173.02c-.01.021-.01.041-.021.062-.654 1.681-1.193 3.414-1.805 5.147-.56 1.733-1.09 3.476-1.619 5.198-.446 1.733-.944 3.445-1.349 5.105-.353 1.671-.757 3.289-1.048 4.835-.259 1.546-.508 3.02-.737 4.369a576.06 576.06 0 01-.405 3.735c-.156 1.11-.104 2.086-.156 2.895l-.083 2.532s-.072-.923-.187-2.532c-.031-.809-.187-1.785-.145-2.916 0-1.131.01-2.407.01-3.798.083-1.391.176-2.895.27-4.483.124-1.598.363-3.258.55-5.001.229-1.722.54-3.497.82-5.313.342-1.795.685-3.632 1.079-5.448.28-1.193.54-2.387.82-3.58 1.402-.298 2.74-.568 4.006-.807zM239.799 199.968c.207 1.287.332 2.137.373 2.407-.073-.259-.291-1.089-.633-2.355-.177-.789-.519-1.723-.695-2.833-.207-1.11-.446-2.366-.706-3.735-.176-1.38-.374-2.874-.571-4.452-.187-1.588-.27-3.268-.415-5.012-.104-1.743-.125-3.538-.197-5.375.011-1.826 0-3.694.042-5.562a991.5 991.5 0 00.062-1.723c1.1.062 2.19.145 3.289.239l-.249 1.723c-.228 1.816-.415 3.632-.612 5.416-.125 1.795-.28 3.559-.363 5.271-.042 1.712-.135 3.372-.124 4.939.042 1.577.072 3.061.104 4.431l.311 3.746c.052 1.121.29 2.076.384 2.875zM265.677 205.623c-.073-.187-.394-1.006-.892-2.324-.27-.768-.706-1.66-.996-2.75a591.559 591.559 0 00-1.09-3.642c-.322-1.349-.674-2.822-1.038-4.369-.343-1.556-.602-3.227-.934-4.939-.28-1.723-.498-3.507-.757-5.323-.187-1.826-.384-3.673-.54-5.531-.062-.996-.145-1.992-.207-2.978 1.141.176 2.283.353 3.404.529l-.093 2.355c-.031 1.826-.031 3.653-.031 5.458.062 1.785.083 3.559.187 5.271.145 1.702.218 3.362.394 4.929.207 1.556.394 3.04.571 4.4.249 1.349.488 2.594.695 3.684.166 1.11.508 2.034.685 2.822.362 1.36.59 2.221.642 2.408zM291.411 204.398c-.072-.187-.394-1.006-.892-2.324-.27-.768-.706-1.66-.996-2.75-.322-1.079-.685-2.304-1.09-3.632-.322-1.359-.664-2.822-1.038-4.379-.342-1.556-.602-3.217-.934-4.939-.28-1.712-.498-3.507-.758-5.323-.083-.768-.156-1.546-.239-2.324.944.218 1.878.436 2.781.633-.01.508-.01 1.017-.01 1.525.062 1.795.083 3.57.187 5.271.145 1.712.218 3.372.394 4.929.208 1.567.394 3.04.571 4.4.249 1.349.488 2.594.695 3.694.176 1.11.508 2.023.685 2.812.364 1.359.592 2.221.644 2.407zM40.655 282.076l-.031-.913c-.021-1.567.062-3.227.083-4.939.073-1.712.218-3.476.322-5.271.187-1.795.353-3.611.571-5.416.031-.187.052-.374.073-.56a801.185 801.185 0 01-3.186 2.117c0 1.266.01 2.532.01 3.787.083 1.826.125 3.632.239 5.365.156 1.743.259 3.424.446 5.012.052.405.114.809.166 1.193l1.307-.375z"/>
  <path fill="#5eb252" d="M457.575 165.442l-17.982 3.462-15.911-1.383-5.88 4.842 13.144-2.075 12.451 1.383 13.634-3.499z"/>
  <path fill="#666" d="M430.297 140.058s-.814 2.016-.514 4.006c0 0 5.237 1.893 9.81.628l1.791-2.481s-1.878-2.94-5.446-3.591c0 .001-3.724-.121-5.641 1.438z"/>
  <path fill="#5eb252" d="M323.92 257.872c-4.87 4.73-9.55 7.9-10.42 8.48l-.15.09-8.27-1.33 18.84-7.24zM209.453 328.657l-6.036-1.208 4.183-6.89z"/>
</svg>