<?xml version="1.0" encoding="iso-8859-1"?>
<!-- Generator: Adobe Illustrator 18.0.0, SVG Export Plug-In . SVG Version: 6.00 Build 0)  -->
<!DOCTYPE svg PUBLIC "-//W3C//DTD SVG 1.1//EN" "http://www.w3.org/Graphics/SVG/1.1/DTD/svg11.dtd">
<svg version="1.1" id="Capa_1" xmlns="http://www.w3.org/2000/svg" xmlns:xlink="http://www.w3.org/1999/xlink" x="0px" y="0px"
	 viewBox="0 0 473.466 473.466" style="enable-background:new 0 0 473.466 473.466;" xml:space="preserve">
<g>
	<path style="fill:#DD8D6B;" d="M0,334.671c0,0,109.734-18.106,136.07-14.814c0,0,1.064,4.796,6.847,8.943
		c4.181,2.985,10.853,5.641,21.376,5.86c0.461,0.011,0.933,0.011,1.405,0.011c20.016,0,57.775,5.07,87.754,3.654
		c5.794-0.274,11.303-0.79,16.329-1.646c3.182-0.527,6.189-1.185,8.943-2.008c0,0,2.743-0.055,7.166-0.68
		c6.891-0.966,17.865-3.281,28.937-8.833c12.356-6.2,24.833-16.427,31.933-33.283l21.727-16.899
		c9.701-7.55,16.603-18.117,19.609-30.045c10.568-41.94,28.421-110.129,38.769-124.241c0,0,7.133-22.496,19.752-31.274l14.265,1.097
		l5.487-4.938l2.215,0.246c1.617,0.18,3.162-0.72,3.803-2.216l0.777-1.814c0.778-1.815-0.003-3.928-1.785-4.779
		c-4.781-2.283-13.568-7.14-17.081-13.385c0,0-0.011,0-0.022,0.011c-0.7,0.115-14.554,2.657-24.486,8.305
		c-2.451,1.394-4.49,3.4-5.947,5.814c-7.329,12.139-33.509,56.585-41.969,85.728c0,0-20.85,76.814-87.787,73.522
		c0,0-57.062-10.973-104.248-6.584c0,0-48.283,14.265-85.593,40.602c0,0-32.821,28.125-78.01,51.421
		C17.876,326.759,9.086,330.896,0,334.671z"/>
	<path style="fill:#BF7156;" d="M26.237,322.446c54.867-7.133,118.568-74.487,178.417-76.112
		c34.621-0.944,91.628,17.74,138.814-7.133c33.268-17.537,55.769-99.909,72.79-129.486c22.313-38.773,37.152-45.737,38.019-46.077
		c-0.7,0.115-14.559,2.658-24.49,8.308c-2.448,1.393-4.484,3.396-5.94,5.807c-7.325,12.133-33.51,56.586-41.972,85.732
		c0,0-19.315,71.161-80.45,73.563c-4.02,0.158-8.041-0.198-12.007-0.871c-14.554-2.473-60.46-9.392-99.578-5.753
		c0,0-48.283,14.265-85.593,40.602C104.248,271.025,71.426,299.15,26.237,322.446z"/>
	<path style="fill:#BF7156;" d="M314.827,325.157c-1.756-6.782,5.048-18.468,5.048-18.468l-20.85-20.849l-13.135,48.151
		C292.782,333.025,303.755,330.709,314.827,325.157z"/>
	<path style="fill:#BF7156;" d="M246.353,326.441l7.1,11.873v0.011c5.794-0.274,11.303-0.79,16.329-1.646l-4.225-35.477
		l-7.681-3.841L246.353,326.441z"/>
	<path style="fill:#BF7156;" d="M198.07,294.618c0,0,5.027,31.018,11.566,42.668l-18.167-1.296L198.07,294.618z"/>
	<path style="fill:#BF7156;" d="M142.918,328.8c4.181,2.985,10.853,5.641,21.376,5.86l-14.507-37.299c0,0-1.657,27.752-6.858,31.428
		L142.918,328.8z"/>
	<path style="fill:#DD8D6B;" d="M257.876,297.361l-3.841,24.142l10.973,12.619l4.389,47.734l2.195,27.982h34.566l-3.841-15.363
		l-6.035-4.938c0,0-1.646-31.274,1.097-46.088s15.363-34.566,15.363-34.566l-13.717-23.044L257.876,297.361z"/>
	<path style="fill:#DD8D6B;" d="M149.787,297.361c0,32.372,10.425,52.124,10.425,52.124c-9.327,4.389-14.814,38.407-14.814,38.407
		l-4.389,20.301h43.894l-6.584-14.265h-6.035c0,0,7.681-18.655,12.619-29.628c4.938-10.973,13.717-15.363,13.717-15.363
		l3.292-15.363l-3.841-38.956L149.787,297.361z"/>
	<polygon style="fill:#BF7156;" points="446.618,89.415 460.884,90.512 466.371,85.574 451.37,83.741 	"/>
	<polygon style="fill:#4D4D4D;" points="456.129,71.674 452.837,68.382 448.813,72.772 	"/>
</g>
<g>
</g>
<g>
</g>
<g>
</g>
<g>
</g>
<g>
</g>
<g>
</g>
<g>
</g>
<g>
</g>
<g>
</g>
<g>
</g>
<g>
</g>
<g>
</g>
<g>
</g>
<g>
</g>
<g>
</g>
</svg>
