<svg xmlns="http://www.w3.org/2000/svg" viewBox="0 0 512 512"><circle cx="256" cy="256" r="256" fill="#fe5022"/><path d="M256 0c-11.317 0-22.461.744-33.391 2.167C348.216 18.53 445.217 125.933 445.217 256s-97.002 237.47-222.609 253.833A258.556 258.556 0 0 0 256 512c141.385 0 256-114.616 256-256S397.385 0 256 0z" fill="#ff3501"/><g fill="#ece5dd"><path d="M322.783 122.991c-18.719 0-33.948-15.229-33.948-33.948s15.229-33.948 33.948-33.948 33.948 15.229 33.948 33.948-15.229 33.948-33.948 33.948zM256 456.904c-96.049 0-174.191-65.16-174.191-145.252S159.951 166.4 256 166.4s174.191 65.16 174.191 145.252S352.049 456.904 256 456.904z"/><path d="M424.432 278.477c-7.866-27.651-25.328-52.607-50.498-72.169l-8.19-6.365 7.533-7.131c10.409-9.854 24.099-15.281 38.548-15.281 30.994 0 56.209 25.215 56.209 56.209 0 21.051-12.183 40.777-31.038 50.256l-9.618 4.836-2.946-10.355zM75.002 283.995c-18.854-9.48-31.037-29.206-31.037-50.256 0-30.994 25.215-56.209 56.209-56.209 14.453 0 28.144 5.426 38.55 15.28l7.532 7.131-8.19 6.364c-25.17 19.562-42.633 44.518-50.499 72.17l-2.946 10.355-9.619-4.835z"/></g><g fill="#fe5022"><path d="M178.087 312.209c-18.719 0-33.948-15.229-33.948-33.948s15.229-33.948 33.948-33.948 33.948 15.229 33.948 33.948-15.229 33.948-33.948 33.948zM333.913 312.209c-18.719 0-33.948-15.229-33.948-33.948s15.229-33.948 33.948-33.948 33.948 15.229 33.948 33.948-15.229 33.948-33.948 33.948zM342.794 370.786c-22.714 18.928-53.539 29.353-86.794 29.353s-64.08-10.425-86.794-29.353a8.349 8.349 0 0 0-10.688 12.826c25.709 21.425 60.328 33.223 97.483 33.223s71.774-11.798 97.483-33.222a8.35 8.35 0 0 0-10.69-12.827z"/></g><path d="M264.348 178.087v-71.896l18.201-6.067c4.867 17.653 21.055 30.659 40.234 30.659 23.016 0 41.739-18.724 41.739-41.739s-18.724-41.739-41.739-41.739c-20.919 0-38.289 15.469-41.281 35.57l-28.142 9.381a8.347 8.347 0 0 0-5.708 7.919v77.913h16.696zM322.783 64c13.81 0 25.043 11.234 25.043 25.043s-11.234 25.043-25.043 25.043-25.043-11.234-25.043-25.043S308.973 64 322.783 64z" fill="#ece5dd"/></svg>