<svg xmlns="http://www.w3.org/2000/svg" viewBox="0 0 467.26 467.26">
  <path d="M188.202 343.884l-9.688 10.569 5.578 4.404 2.894 14.092h-56.913s-5.285-22.9 3.523-35.23l-10.569-30.827s9.688-20.257 34.35-24.661c0 0 27.304 3.523 36.111 14.973l-5.286 46.68zM334.408 301.021l1.466 30.496a40.316 40.316 0 01-5.855 22.936l6.738 4.404 2.894 14.092h-41.879s-6.814-29.652-1.53-67.818l38.166-4.11z" fill="#3b9352"/>
  <path d="M53.983 338.914s-18-.667-29.333-21.333c0 0 19.827 12.698 38.58 11.349l-9.247 9.984zM41.046 355.581s-18-.667-29.333-21.333c0 0 19.827 12.698 38.58 11.349l-9.247 9.984zM200.063 164.722s-9.746-14.032-10.913-33.587c0 0 8.975-20.095 28.571-36.825 0 0 23.545 19.047 28.571 36.825 0 0-.851 17.395-10.913 33.587h-35.316zM252.505 167.597s-.618-17.073 8.968-34.157c0 0 18.411-12.058 43.94-15.545 0 0 9.518 28.75 4.139 46.424 0 0-10.117 14.176-27.333 22.363l-29.714-19.085zM187.897 169.668s-1.302-17.035-12.745-32.935c0 0-19.648-9.916-45.407-10.516 0 0-6.232 29.636 1.097 46.596 0 0 11.644 12.951 29.669 19.154l27.386-22.299zM130.232 212.117s-4.071-12.217-15.348-21.748c0 0-16.181-3.653-35.125.624 0 0 .87 22.81 9.333 33.868 0 0 10.884 7.338 25.2 8.573l15.94-21.317zM101.028 257.843s-7.632-8.556-20.212-12.378c0 0-14.519 2.712-28.504 12.883 0 0 8.746 18.347 19.562 24.409 0 0 11.486 2.166 23.628-1.866l5.526-23.048z" fill="#775c38"/>
  <path d="M467.26 215.611c-.32 3.19-.79 5.94-1.34 8.3-2.11 9.23-5.32 12.47-5.32 12.47l-65.02 7.91s-14.09 61.35-32.99 77.57c0 0-87.42 34.57-200.21 15.36 0 0-102.38 29.88-162.38 28.84 0 0 72.22-35.71 85.72-58.23 0 0 3.84-50.35 10.76-63.97 0 0 14.42-20.05 38.4-42.33 3.93-3.64 8.12-7.35 12.54-11.03 7.77-6.5 16.28-12.93 25.39-18.86 3.6-2.36 7.29-4.63 11.08-6.79 8.31-4.77 17.04-9.05 26.13-12.54 2.6-1.02 5.24-1.96 7.9-2.83 0 0 7.25-.11 19.34 2.27 7.22 1.41 16.16 3.71 26.31 7.45 6.66 2.45 13.83 5.52 21.39 9.36h.01a214.89 214.89 0 0125.28 15.11c5.62 3.88 11.35 8.2 17.13 13.02 0 0 6.97 47.65 20.31 58.08 0 0 22.46-26.2 27.13-49.41 1.14-5.67 5.19-10.31 10.53-12.47l25.507-10.416a14.2 14.2 0 0112.106.641c12.815 6.898 41.978 23.458 44.297 32.495z" fill="#46af64"/>
  <path d="M347.682 254.775s14.28 12.483 26.024 14.539c0 0-20.461-12.562-21.387-20.373l-4.637 5.834z" fill="#389350"/>
  <path fill="#4d4d4d" d="M428.313 205.312l-17.322-1.468.881-4.698 13.505-2.642 4.991 3.817z"/>
  <path d="M465.92 223.911c-2.11 9.23-5.32 12.47-5.32 12.47l-65.02 7.91s-14.09 61.35-32.99 77.57c0 0-20.4 8.06-54.2 14.24a424.366 424.366 0 01-41.74 5.49c-21.81 1.79-46.46 2.14-73.02-.29-10.16-.93-20.59-2.26-31.25-4.08 0 0-8.06 2.35-20.98 5.72-33.13 8.61-98.23 23.87-141.4 23.12 55.82.48 127.97-44.5 127.97-44.5 16.02-7.45 32.81-11.92 46.12-14.56 13.12-2.61 26.63-2.05 39.67.96 18.98 4.38 44.63 4.94 69.04 3.48 5.23-.31 10.41-.71 15.45-1.19 26.03-2.47 48.46-6.91 56.52-10.84 18.94-9.25 38.31-63.86 38.31-63.86 10.13-13.21 72.84-11.64 72.84-11.64z" fill="#62cc7e"/>
  <path d="M193.63 341.301c-10.16-.93-20.59-2.26-31.25-4.08 0 0-8.06 2.35-20.98 5.72-2.95-.51-4.75-.86-4.75-.86l42.61-31.1s-.15 19.55 14.37 30.32zM308.39 336.101a424.366 424.366 0 01-41.74 5.49c13-6.99 16.15-30.15 16.15-30.15l13.44-6.31 2.01 5.12 10.14 25.85z" fill="#58a366"/>
  <path d="M175.535 343.884l-9.688 10.569 5.578 4.404 4.225 14.092h-58.245s-5.285-22.9 3.523-35.23l-10.569-30.827s9.688-20.257 34.35-24.661c0 0 27.304 3.523 36.111 14.973l-5.285 46.68zM321.741 301.021l1.466 30.496a40.316 40.316 0 01-5.855 22.936l6.738 4.404 3.227 14.092h-42.212s-6.814-29.652-1.529-67.818l38.165-4.11z" fill="#46af64"/>
  <path fill="#389350" d="M317.352 354.453l-16.035 4.795 22.773-.391zM165.847 354.453l-14.864 4.404h20.442zM310.25 183.671c-8.68 14.75-20.92 39.34-24.27 65.24 0 0 .62-44.91 16.63-70.31 2.52 1.6 5.07 3.28 7.64 5.07zM284.96 168.561c-30.62 28.35-39.64 77.69-39.64 77.69-2.37-47.2 10.69-75.08 18.25-87.05 6.66 2.45 13.83 5.52 21.39 9.36zM220.65 233.581c-9-21.36-10.41-67.36-10.63-81.27 2.6-1.02 5.24-1.96 7.9-2.83 0 0 7.25-.11 19.34 2.27-17.99 34.03-16.61 81.83-16.61 81.83zM196.65 228.911s-18.42-23.76-23.84-57.27c3.6-2.36 7.29-4.63 11.08-6.79-.66 13.67.12 40.18 12.76 64.06zM164.65 238.251c-18.21-12.44-26.36-27.83-29.77-36.72 3.93-3.64 8.12-7.35 12.54-11.03 3.48 26.64 17.23 47.75 17.23 47.75z"/>
</svg>