<svg xmlns="http://www.w3.org/2000/svg" viewBox="0 0 444.178 444.178">
  <path fill="#b77d4e" d="M355.64 308.052s-44.79 8.22-82.66 14.9c-5.17.91-10.22 1.79-15 2.62-3.4.59-7.02 1.11-10.82 1.58v.01c-21.91 2.72-49.4 3.59-70.11 3.82-17.76.18-30.54-.1-30.54-.1l-7.01-1.98-20.75-5.86-21.08-5.96c-2.84 1.09-5.79 2.08-8.82 2.99l-.01.01c-38.25 11.48-88.84 9.2-88.84 9.2 28.14-12.2 78.56-79.62 78.56-79.62 15.93-75.37 49.9-112 49.9-112 55.73-21.23 110.94-18.58 110.94-18.58 31.85 5.31 61.61 31.26 61.61 31.26l54.63 157.71z"/>
  <path fill="#96633e" d="M272.98 322.952c-5.17.91-10.22 1.79-15 2.62-3.4.59-7.02 1.11-10.82 1.58 6.43-12.06 6.15-32.81 6.15-32.81l19.67 28.61z"/>
  <path fill="#b77d4e" d="M265.122 343.244l-2.401 16.212h69.05l-3.603-15.611-13.81-2.402 3.002-28.821-6.737-21.679-39.592-17.721-17.721 21.115z"/>
  <path fill="#e0d48c" d="M317.73 139.222l8.5-54.5 5 1.5 14 34zM311.232 153.915l-12.02-28.05-3.865 7.369 3.438 38.848z"/>
  <path fill="#96633e" d="M123.73 319.722l-4.98 3.32-21.08-5.96c-2.84 1.09-5.79 2.08-8.82 2.99l19.19-30.64 15.69 30.29zM177.05 330.982c-17.76.18-30.54-.1-30.54-.1l-7.01-1.98 10.23-22.68 8.84-16.41s9.69 41.29 18.16 41.16c.11 0 .21 0 .32.01z"/>
  <path fill="#e0d48c" d="M298.73 180.222l-16.167-16.334-2.333 5.834 11.5 32.5"/>
  <path fill="#b77d4e" d="M102.365 313.823l7.805 29.421-2.402 16.212h69.051l-3.603-15.611-13.81-2.402 3.002-28.821-3.839-22.81-20.738-10.18-29.787 9.803z"/>
  <path fill="#e0d48c" d="M287.438 204.222l-12 9.666 11.666 7zM288.849 220.449l-10.492 11.284 12.548 5.258z"/>
  <path fill="#e0d48c" d="M290.816 234.415l-8.312 12.975 13.285 2.936zM400.232 217.816s15.238-14.837 17.482-39.282c.286-3.116 4.529-3.85 5.862-1.019 6.277 13.325 13.892 36.636 2.134 55.164-17.516 27.601-25.478-14.863-25.478-14.863z"/>
  <path fill="#af754a" d="M440.57 304.342l-12.74-14.87-12.74-3.71-8.49 18.05-50.96 4.24s-14.56-5.02-29.44-13.12v-.01c-7.3-3.97-14.68-8.7-20.45-13.94 0 0-28.13-33.97-21.23-87.05 0 0 7.96-39.28 29.72-61.58 0 0 20.17-23.35 45.12-33.97l6.37 10.62s-29.73 56.26-6.9 101.38c0 0 20.7-3.71 49.89 2.66 0 0 20.18 8.49 35.04 27.6 0 0 2.12 33.97-3.19 63.7z"/>
  <path fill="#af754a" d="M334.942 204.546l29.195-7.962 10.085 20.701z"/>
  <path fill="#e0d48c" d="M357.939 198.274l9.914-13.899-.286 19.248z"/>
  <circle cx="367.563" cy="228.722" r="12.833" fill="#96633e"/>
  <path fill="#4d4d4d" d="M361.198 233.934s7.258.435 13.598-4.618l-1.47-4.012s-8.312-1.323-13.757-.785c0 .001-1.954 7.088 1.629 9.415z"/>
  <path fill="#96633e" d="M415.09 285.762l-8.49 18.05-50.96 4.24s-14.56-5.02-29.44-13.12v-.01l25.2-13.94 63.69 4.78zM323.73 134.722s-3.575 43.148 11.212 69.824l-4.212 6.676s-26.5-17-22-55.5l15-21zM326.23 223.222s-15.63-4.011-29-13.5c0 0-3 11 1 17l25.5 4 2.5-7.5zM331.622 253.283l3.108 5.438s-11.388 6.442-25 6.5l-5.5-12c0 .001 18.392 5.562 27.392.062zM159.406 341.443l-21.676 3.779 22.761-14.193zM314.358 341.443l-21.628 4.779 23.073-18.649z"/>
  <circle cx="270.73" cy="150.222" r="10" fill="#96633e"/>
  <circle cx="238.23" cy="137.722" r="10" fill="#96633e"/>
  <circle cx="205.73" cy="139.222" r="10" fill="#96633e"/>
  <circle cx="174.783" cy="144.911" r="8.447" fill="#96633e"/>
  <circle cx="143.23" cy="155.858" r="7.5" fill="#96633e"/>
  <circle cx="126.23" cy="180.722" r="7.5" fill="#96633e"/>
  <circle cx="84.23" cy="267.222" r="7.5" fill="#96633e"/>
  <circle cx="110.73" cy="217.222" r="7.5" fill="#96633e"/>
  <circle cx="100.23" cy="245.472" r="3.75" fill="#96633e"/>
  <circle cx="112.48" cy="236.222" r="3.75" fill="#96633e"/>
  <circle cx="288.038" cy="153.222" r="3.75" fill="#96633e"/>
  <circle cx="63.617" cy="290.768" r="5.644" fill="#96633e"/>
  <circle cx="45.23" cy="307.222" r="5.644" fill="#96633e"/>
  <circle cx="221.98" cy="155.722" r="3.75" fill="#96633e"/>
  <circle cx="154.48" cy="140.222" r="3.75" fill="#96633e"/>
</svg>