<svg xmlns="http://www.w3.org/2000/svg" viewBox="0 0 370.096 370.096">
  <path fill="#99e28f" d="M214.386 184.472l-1.132 53.667 31.912-11.586 8.25 19.578 3.92-29.511-26.997 1.073c7.396-11.99 1.524-27.736-11.917-31.955l-4.036-1.266z"/>
  <path fill="#93ce89" d="M159.118 192.656l45.167 6.686 36.278 68.899a10.48 10.48 0 01.344 9.048l-21.418 49.474c-2.851 6.587 1.685 14.01 8.847 14.477a14.548 14.548 0 0111.497 6.98l5.023 8.291-40.025 6.703-15.224-35.75 6.55-45.144-45.601-24.751c.001 0-7.585-29.822 8.562-64.913z"/>
  <path fill="#99e28f" d="M364.22 154.553l-17.96-6.28-20.44 28.11c-38.33-1.28-81.77-24.28-81.77-24.28-.73 1.5-1.41 3.02-2.05 4.55-17.33 41.38-3.06 91.28-3.06 91.28-7.67 23-34.5 53.66-34.5 53.66C130.33 328.433 0 320.763 0 320.763s.01 0 .03-.01c58.77-24.3 111.14-118.82 111.14-118.82 43.44-123.94 97.1-198.04 97.1-198.04 106.05 20.44 159.72 60.05 159.72 60.05 6.38 48.55-3.77 90.61-3.77 90.61z"/>
  <path fill="#72ba81" d="M238.94 247.933c-7.67 23-34.5 53.66-34.5 53.66C130.33 328.433 0 320.763 0 320.763s.01 0 .03-.01c2.58-.9 167.74-58.79 178.33-67.38 27.34-23.82 35.59-105.17 35.59-105.17l28.05 8.45c-17.33 41.38-3.06 91.28-3.06 91.28z"/>
  <path fill="#72ba81" d="M139.275 190.436s-22.085 15.267-27.585 66.767l21.324 15.351 12.136-4.671-5.875-77.447z"/>
  <path fill="#99e28f" d="M139.275 190.436l43.442 14.055 24.4 73.945a10.48 10.48 0 01-1.155 8.981l-29.295 45.257c-3.9 6.025-.652 14.096 6.334 15.74a14.551 14.551 0 0110.186 8.783l3.584 9.006H156.19l-9.11-37.774 13.916-43.442-40.887-31.943s-2.555-30.665 19.166-62.608z"/>
  <path fill="#72ba81" d="M346.265 148.272l-88.162-40.887-16.61 10.222 18.198-3.403s56.925 22.946 80.463 42.473l6.111-8.405zM244.048 152.105l-35.776-20.443-3.833-63.886-1.748 74.427s22.04 12.235 37.77 18.367l3.587-8.465z"/>
  <path fill="#99e28f" d="M189.349 174.776l28.199 45.676 20.501-27.061 17.561 11.957-12.737-26.907-22.085 15.565c-.302-14.084-13.786-24.116-27.363-20.358l-4.076 1.128z"/>
  <path fill="#4d4d4d" d="M261.19 40.703s9.5.5 17 8l-2.5 5s-11 .5-18-1c0 0-1.5-9.5 3.5-12z"/>
  <path fill="#fff" d="M323.65 137.783c-.31.99-.72 2.03-1.19 3.06-2.64 5.85-7.27 11.86-7.27 11.86-3.39-5.42-2.97-12.51-2.35-16.51.3-1.91.64-3.12.64-3.12l10.17 4.71zM309.43 131.193l-1.86 2.45-5.38 7.06c-.96-1.93-.96-6.81-.83-10.06.07-1.81.18-3.11.18-3.11l7.89 3.66zM339.43 144.693l-2.43 3.19-4.81 6.32c-.87-1.74-.95-5.89-.86-9.07.06-2.31.21-4.1.21-4.1l7.89 3.66z"/>
  <path fill="#ccc" d="M301.54 127.533l7.89 3.66-1.86 2.45-6.21-3c.07-1.81.18-3.11.18-3.11zM313.48 133.073l10.17 4.71c-.31.99-.72 2.03-1.19 3.06l-9.62-4.65c.3-1.91.64-3.12.64-3.12zM339.43 144.693l-2.43 3.19-5.67-2.75c.06-2.31.21-4.1.21-4.1l7.89 3.66z"/>
  <circle cx="221.69" cy="39.703" r="9" fill="#72ba81"/>
  <circle cx="208.69" cy="24.036" r="5" fill="#72ba81"/>
  <circle cx="235.857" cy="51.87" r="2.5" fill="#72ba81"/>
  <circle cx="183.857" cy="65.703" r="2.5" fill="#72ba81"/>
  <circle cx="201.69" cy="43.37" r="2.5" fill="#72ba81"/>
  <circle cx="207.357" cy="55.536" r="4.596" fill="#72ba81"/>
  <path fill="#72ba81" d="M189.349 174.776l11.698 36.712 3.238-12.146z"/>
</svg>