<svg xmlns="http://www.w3.org/2000/svg" viewBox="0 0 444.045 444.045">
  <path fill="#afb7a3" d="M408.724 208.364l20.73-15.35 1.333 6s3.48 9.396-3.927 20.365c-7.407 10.969-12.74 9.635-12.74 9.635l-5.396-20.65z"/>
  <path fill="#96633e" d="M374.12 291.011l-8.13 5.44-10.35 6.92s-44.79 8.22-82.66 14.9c-5.17.91-10.22 1.79-15 2.62-3.4.59-7.02 1.11-10.82 1.58v.01c-21.91 2.72-49.4 3.59-70.11 3.82-17.76.18-30.54-.1-30.54-.1l-7.01-1.98-20.75-5.86-21.08-5.96c-2.84 1.09-5.79 2.08-8.82 2.99l-.01.01C50.59 326.881 0 324.6 0 324.6c28.14-12.2 78.56-79.62 78.56-79.62 15.93-75.37 49.9-112 49.9-112 55.73-21.23 110.94-18.58 110.94-18.58 31.85 5.31 61.61 31.26 61.61 31.26l73.11 145.351z"/>
  <path fill="#af754a" d="M365.99 296.451l-10.35 6.92s-44.79 8.22-82.66 14.9c-5.17.91-10.22 1.79-15 2.62-3.4.59-7.02 1.11-10.82 1.58v.01c-21.91 2.72-49.4 3.59-70.11 3.82-17.76.18-30.54-.1-30.54-.1l-7.01-1.98-20.75-5.86-21.08-5.96c-2.84 1.09-5.79 2.08-8.82 2.99l-.01.01C50.59 326.881 0 324.6 0 324.6s60.79-13.59 96.12-48.25c35.33-34.67 189.33-36.67 248-1.34 9.13 5.501 16.29 12.881 21.87 21.441z"/>
  <path fill="#96633e" d="M272.984 318.274c-5.17.91-10.22 1.79-15 2.62-3.4.59-7.02 1.11-10.82 1.58 6.43-12.06 6.15-32.81 6.15-32.81l19.67 28.61z"/>
  <path fill="#af754a" d="M265.126 338.567l-2.402 16.212h69.05l-3.602-15.611-13.81-2.402 3.002-28.821-6.738-21.679-39.591-17.722-17.722 21.116z"/>
  <path fill="#96633e" d="M123.734 315.044l-4.98 3.32-21.08-5.96c-2.84 1.09-5.79 2.08-8.82 2.99l19.19-30.64 15.69 30.29zM177.054 326.304c-17.76.18-30.54-.1-30.54-.1l-7.01-1.98 10.23-22.68 9.104-48.186s20.822 72.893 29.292 72.763c.109.001-11.186.173-11.076.183z"/>
  <path fill="#af754a" d="M440.57 299.661l-12.74-14.87-12.74-3.71-7.81 16.61a2.761 2.761 0 01-2.267 1.572l-49.373 4.108s-6.28-2.16-14.81-5.95l10.57-21.12-29.95-33.95-11.82.19c-12.93.22-23.89-9.41-25.37-22.26-1.09-9.39-1.2-19.77.26-31.03 0 0 7.96-39.28 29.72-61.58 0 0 20.17-23.35 45.12-33.97l1.62 2.7a17.531 17.531 0 011.13 15.8c-7.15 17.04-20.93 58.61-3.28 93.5 0 0 24.79-.81 49.89 2.66 0 0 2.333.982 5.997 3.028 18.73 10.464 29.949 30.567 29.302 52.011-.333 11.022-1.26 24.002-3.449 36.261zM102.368 309.146l7.806 29.421-2.402 16.212h69.05l-3.602-15.611-13.81-2.402 3.002-28.821-3.839-22.81.265-31.776-50.791 31.399z"/>
  <path fill="#4d4d4d" d="M364.364 213.379s5.556 4.69 13.659 4.433l1.222-4.094s-5.869-6.032-10.555-8.858c0 .001-5.805 4.511-4.326 8.519z"/>
  <path fill="#96633e" d="M159.41 336.766l-21.676 3.778 22.76-14.192zM314.362 336.766l-21.628 4.778 23.073-18.648z"/>
  <path fill="#af754a" d="M352.514 188.114l15.729 2.546a27.698 27.698 0 0120.721 15.73l-46.843 5.957 10.393-24.233z"/>
  <path fill="#96633e" d="M424.118 236.848c-.397 0-.8-.095-1.175-.294l-10-5.333a2.5 2.5 0 112.354-4.412l10 5.333a2.5 2.5 0 01-1.179 4.706z"/>
  <circle cx="285.489" cy="225.658" r="8.631" fill="#af754a"/>
  <circle cx="283.114" cy="208.523" r="8.631" fill="#af754a"/>
  <circle cx="284.364" cy="191.273" r="8.631" fill="#af754a"/>
  <circle cx="287.864" cy="174.523" r="8.631" fill="#af754a"/>
  <circle cx="294.12" cy="158.812" r="8.631" fill="#af754a"/>
  <circle cx="302.439" cy="144.53" r="8.631" fill="#af754a"/>
  <circle cx="311.638" cy="130.018" r="8.631" fill="#af754a"/>
  <circle cx="323.972" cy="117.851" r="8.631" fill="#af754a"/>
  <circle cx="337.506" cy="107.24" r="8.631" fill="#af754a"/>
  <circle cx="351.877" cy="97.897" r="8.631" fill="#af754a"/>
  <path fill="#96633e" d="M415.094 281.084l-7.811 16.607a2.76 2.76 0 01-2.269 1.576l-38.592 3.211a26.956 26.956 0 01-27.475-36.331l1.043-2.782 11.413 12.94 63.691 4.779z"/>
  <circle cx="140.12" cy="149.014" r="7.333" fill="#af754a"/>
  <circle cx="91.911" cy="255.681" r="7.333" fill="#af754a"/>
  <circle cx="264.12" cy="141.681" r="7.333" fill="#af754a"/>
  <circle cx="149.787" cy="161.681" r="3.667" fill="#af754a"/>
  <circle cx="77.787" cy="263.014" r="3.667" fill="#af754a"/>
  <circle cx="282.63" cy="144.681" r="3.667" fill="#af754a"/>
  <circle cx="272.473" cy="158.014" r="3.667" fill="#af754a"/>
  <circle cx="159.787" cy="146.681" r="9.667" fill="#af754a"/>
  <circle cx="242.397" cy="135.681" r="9.667" fill="#af754a"/>
  <path fill="#afb7a3" d="M343.316 191.284c-10.424-7.489-6.858-23.769 5.73-26.276 17.191-3.423 40.534-6.039 67.043-3.566 6.15.574 12.471 1.421 18.925 2.596l-.011.02a21.77 21.77 0 01-15.98 11.208c-15.194 2.262-43.01 7.458-59.622 16.96-4.967 2.841-11.107 2.635-15.753-.703l-.332-.239z"/>
</svg>