<svg xmlns="http://www.w3.org/2000/svg" viewBox="0 0 443.185 443.185">
  <path fill="#869369" d="M165.444 190.636s-20.646 4.673-33.466 12.945c0 0-19.28 50.499-19.393 79.555 0 0-35.372 8.501-55.022 22.835l2.449 46.697 46.629 24.919 2.284-21.901-27.622-15.618-1.402-23.015 68.598-.165s47.751-41.279 64.391-69.21c0 0 3.169-17.147-4.55-31.548l-42.896-25.494z"/>
  <path fill="#b8d38d" d="M441.095 159.91c-4.951.431-13.595-4.532-13.595-4.532-12.089 7.557-33.24 11.329-33.24 11.329-29.456-5.291-75.521-35.495-75.521-35.495l-14.354 73.255c-21.899 29.456-111.786 71.76-111.786 71.76s-21.276 3.217-48.943-26.08a154.108 154.108 0 01-6.945-7.908 2.454 2.454 0 00-.227-.261c-4.6-5.529-10.82-9.732-18.082-12.893-4.498-1.971-9.392-3.535-14.547-4.758-31.779-7.602-73.459-2.402-92.934.804C4.101 226.254 0 227.127 0 227.127c28.709-34.736 89.127-79.305 150.306-86.85 61.178-7.557 114.8 5.279 114.8 5.279 7.557-40.026 33.24-80.053 33.24-80.053 14.762-4.566 29.196-5.381 40.411-4.928 12.881.499 21.514 2.662 21.514 2.662 52.115 33.988 82.33 70.989 82.33 70.989s2.04 22.172-1.506 25.684z"/>
  <path fill="#9baf75" d="M427.497 155.379l-12.84-12.84-12.839.756-7.553-14.351-14.728 2.266-10.197-10.574-15.105-2.266-9.819-10.574 7.325 18.013 15.577-1.416 9.064 15.011 16.144-5.098 5.948 15.861 15.861-3.116 6.814 11.651z"/>
  <path fill="#666" d="M350.081 80.228s-3.399 4.154-4.154 9.063c0 0 10.952 8.308 22.659 8.686l6.042-4.532s-2.266-8.308-10.196-12.462c-.001 0-8.687-3.021-14.351-.755z"/>
  <path fill="#9baf75" d="M178.969 254.113l-35.313-3.965a154.108 154.108 0 01-6.945-7.908 2.454 2.454 0 00-.227-.261c-4.6-5.529-10.82-9.732-18.082-12.893-4.498-1.971-9.392-3.535-14.547-4.758l13.369-13.833 35.347-20.37 26.398 63.988zM250.76 204.85s-15.622 27.79-15.383 49.289l13.861-7.91 1.522-41.379zM221.304 218.068s-2.669 25.807 2.706 42.255l-31.412 15.905 28.706-58.16zM290.791 199.186s4.898 4.542 5.451 14.157l-24.465 18.815 4.625-33.559 14.389.587z"/>
  <path fill="#b8d38d" d="M152.573 190.122s-16.006 13.852-23.414 27.19c0 0 6.798 53.625 20.393 79.305 0 0-27.19 24.169-37.764 46.072l24.169 40.03h52.87l-8.308-20.393-31.722-.755-12.085-19.637 60.423-32.477s22.659-58.912 24.169-91.39c0 0-5.287-16.616-18.882-25.68l-49.849-2.265zM290.791 199.186c0 12.085-11.109 27.5-11.109 27.5 23.668-15.497 52.65-19.191 52.65-19.191-3.021 35.498-27.946 56.646-27.946 56.646 6.042-13.595 1.511-30.967 1.511-30.967-17.372 15.861-59.668 31.722-59.668 31.722-3.021-27.19 4.532-60.045 4.532-60.045l19.409-17.014 20.621 11.349z"/>
  <path fill="#9baf75" d="M318.886 87.572s-5.891-21.095-20.393-8.497c-14.343 12.462 3.002 30.192 3.387 30.578-.521-.261-18.206-9.301-24.347 11.907-6.072 20.971 8.282 27.961 9.029 28.312l-21.458-4.317c7.557-40.026 33.24-80.053 33.24-80.053 14.762-4.566 29.196-5.381 40.411-4.928.002.001-21.569 7.739-19.869 26.998zM265.105 145.556s-6.265-.204-31.756-.77c-25.491-.566-27.19 11.329-27.19 11.329s-9.63-14.162-29.456-13.029-25.491 14.728-25.491 14.728-18.127-12.462-39.086-3.399C91.167 163.479 92.3 171.409 92.3 171.409s-9.063-5.098-18.127 0c-9.063 5.098-7.364 11.896-7.364 11.896s-11.329-2.832-19.26 5.098c-7.931 7.93-8.497 13.595-8.497 13.595s-4.532-2.832-10.763 3.399-6.231 9.63-6.231 9.63-7.659.374-11.896 5.665c-.793.986-.397 2.549.759 4.441C4.101 226.254 0 227.127 0 227.127c28.709-34.736 89.127-79.305 150.306-86.85 61.178-7.557 114.799 5.279 114.799 5.279zM148.797 361.572h-15.712l10.888-7.838zM183.531 382.72l-5.664-13.048-3.399 13.048zM174.468 382.72l-5.665-13.048-3.399 13.048z"/>
</svg>