<?xml version="1.0" encoding="utf-8"?><!DOCTYPE svg PUBLIC "-//W3C//DTD SVG 1.1//EN" "http://www.w3.org/Graphics/SVG/1.1/DTD/svg11.dtd"><svg xmlns="http://www.w3.org/2000/svg" xmlns:xlink="http://www.w3.org/1999/xlink"><symbol viewBox="0 0 472.137 472.137" id="si-allosaurus" xmlns="http://www.w3.org/2000/svg"><path fill="#b77d4e" d="M289.804 276.3s-2.314-32.392-12.34-59.385c0 0-29.307-13.111-55.529-13.882 0 0-24.816 24.111-30.078 41.646s-6.941 92.548-6.941 92.548 29.645 32.392 45.07 57.842h84.835a28.945 28.945 0 00-26.35-16.967h-28.407l-14.992-29.307c.001 0 27.765-37.79 44.732-72.495z"/><path fill="#c98c51" d="M461.968 196.347c-.022-.022-.055-.044-.109-.087l-3.924-2.899c-10.53 9.156-26.989 9.396-26.989 9.396-15.424-16.972-56.126-16.438-56.126-16.438-24.679 55.527-100.262 127.251-100.262 127.251-33.29-5.537-64.704-20.133-89.208-34.521a378.113 378.113 0 01-24.286-15.533c-15.849-10.998-25.322-19.348-25.322-19.348-26.978 26.095-53.063 39.59-75.027 46.294-7.848 2.398-15.173 3.935-21.823 4.862C15.184 298.636 0 294.298 0 294.298c86.163-33.827 117.572-101.841 125.844-124.296 2.334-6.335 6.097-12.066 11.125-16.572 29.061-26.042 71.983-24.253 92.35-21.56a41.923 41.923 0 0119.434 7.845l20.726 15.319 8.938 6.606s0-.011.011-.033C311.587 94.538 354 72.955 354 72.955c3.63 1.09 7.173 2.224 10.628 3.401a326.758 326.758 0 0112.928 4.633h.011c11.816 4.513 22.455 9.32 31.949 14.181 14.639 7.489 26.575 15.097 35.928 21.877a198.97 198.97 0 018.164 6.18c12.459 9.887 18.389 16.819 18.389 16.819 1.536 22.369-10.029 56.301-10.029 56.301z"/><path fill="#b77d4e" d="M200.523 207.15l-15.173 71.899a378.113 378.113 0 01-24.286-15.533c.403-6.072 1.395-13.113 3.532-20.089 5.7-18.575 35.927-36.277 35.927-36.277zm55.528 13.878s18.093 43.654 18.093 63.82l-13.936 25.764-25.85-6.688 21.693-82.896z"/><path fill="#c98c51" d="M268.391 280.412s-2.314-32.392-12.34-59.385c0 0-29.307-13.111-55.529-13.882 0 0-24.816 24.111-30.078 41.646-5.262 17.535-6.941 92.548-6.941 92.548s29.645 32.392 45.07 57.842h84.835a28.945 28.945 0 00-26.35-16.967h-28.407l-14.992-29.307c.001.001 27.765-37.789 44.732-72.495z"/><path fill="#b77d4e" d="M305.471 229.76l-3.14 55.451 18.14-20.529z"/><path fill="#4d4d4d" d="M390.577 97.413s9.631 3.845 14.744 14.214l-4.332 4.285s-11.529-3.338-18.229-7.339c-.001 0 1.78-10.332 7.817-11.16z"/><path fill="#a36e46" d="M358.622 153.934c51.199 8.197 87.606 31.164 99.313 39.427-10.53 9.156-26.989 9.396-26.989 9.396-15.424-16.972-56.126-16.438-56.126-16.438-10.792-10.017-16.198-32.385-16.198-32.385z"/><path fill="#c98c51" d="M305.471 229.76l9.135 47.836c1.43 7.487 9.933 11.203 16.399 7.167l21.192-13.229 14.603 20.955-2.779-35.68-31.475 8.021c5.695-15.949-5.153-32.994-22.013-34.59l-5.062-.48z"/><path fill="#b77d4e" d="M287.675 215.848s-11.729-22.335-6.3-44.975l8.938 6.606s-6.268 16.568-2.638 38.369zm-49.024 166.367h-19.832l13.6-5.777z"/><circle cx="208.469" cy="147.776" r="7.903" fill="#b77d4e"/><circle cx="345.657" cy="107.989" r="7.903" fill="#b77d4e"/><circle cx="188.623" cy="160.631" r="9.218" fill="#b77d4e"/><circle cx="196.953" cy="273.631" r="9.218" fill="#b77d4e"/><circle cx="107.914" cy="245.653" r="9.218" fill="#b77d4e"/><circle cx="225.91" cy="154.043" r="4.088" fill="#b77d4e"/><circle cx="174.406" cy="295.475" r="4.088" fill="#b77d4e"/><circle cx="198.943" cy="254.054" r="4.088" fill="#b77d4e"/><circle cx="184.171" cy="256.37" r="5.859" fill="#b77d4e"/><circle cx="363.527" cy="118.617" r="5.723" fill="#b77d4e"/><circle cx="368.16" cy="102.811" r="4.088" fill="#b77d4e"/><circle cx="453.567" cy="132.9" r="3.382" fill="#b77d4e"/><path fill="#b77d4e" d="M453.608 123.228a5.239 5.239 0 01-4.785 3.096 5.257 5.257 0 01-5.254-5.254 5.24 5.24 0 011.875-4.022 200.351 200.351 0 018.164 6.18z"/><circle cx="439.012" cy="129.79" r="4.088" fill="#b77d4e"/><circle cx="125.354" cy="236.886" r="4.088" fill="#b77d4e"/><circle cx="180.174" cy="310.418" r="6.586" fill="#b77d4e"/><circle cx="168.683" cy="161.674" r="4.088" fill="#b77d4e"/><path fill="#b77d4e" d="M409.516 95.17c-20.449-7.587-47.918-5.058-47.918-5.058l3.03-13.756a326.758 326.758 0 0112.928 4.633h.011c11.816 4.513 22.454 9.32 31.949 14.181z"/><path fill="#b77d4e" d="M377.556 80.989s-64.803 29.257-88.696 101.58c0 0-31.251-29.802-53.772-36.342 0 0-1.529-.278-4.274-.565-41.472-4.339-80.94 18.571-98.368 56.453-14.332 31.152-39.121 74.048-71.731 88.346-6.932 3.052-14.214 4.796-21.823 4.862C15.184 298.636 0 294.298 0 294.298c88.763-34.847 119.418-105.978 126.53-126.202 1.522-4.33 3.94-8.297 7.17-11.557 28.836-29.104 73.909-27.486 95.222-24.72a43.278 43.278 0 0120.152 8.134l20.405 15.082 8.938 6.606s0-.011.011-.033C311.587 94.538 354 72.955 354 72.955a345.204 345.204 0 0123.556 8.034z"/></symbol><symbol viewBox="0 0 463.05 463.05" id="si-ankylosaurus" xmlns="http://www.w3.org/2000/svg"><path d="M347.3 242.071c-26.76 31.25-82.85 40.04-82.85 40.04-41.39 21.47-87.38 11.5-87.38 11.5s-33.73-19.93-52.13-20.69c-13.28-.56-35.35 10.87-46.59 17.27-5.18 2.95-11 4.62-16.95 4.77-1.2.03-2.39.04-3.56.04-2.76 0-5.41-.08-7.96-.24l-16.15 7.28-25.3-2.3L0 276.751l16.1-13.03 17.63-1.54 19.93 6.9c29.89-14.56 43.69-43.69 43.69-43.69 12.26-62.85 79.72-93.51 79.72-93.51 59.02-6.9 111.14 9.2 111.14 9.2 20.7 13.79 41.17 38.33 41.17 38.33l11.6 40.55 6.32 22.11z" fill="#1aa060"/><path d="M442.35 216.011l1.53 13.8c-28.36 16.86-67.45 28.36-67.45 28.36-19.16-3.83-29.13-16.1-29.13-16.1-1.48-2.47-2.85-4.97-4.1-7.48-18.22-36.48-13.53-76.07-13.53-76.07l18.4-6.9c40.62 4.6 99.65 24.53 99.65 24.53 10.73 14.57 15.33 39.86 15.33 39.86h-20.7z" fill="#22b573"/><path d="M347.3 242.071c-11.99 14.01-29.88 23.5-45.97 29.71a197.54 197.54 0 01-14.13 4.85c-13.15 3.97-22.75 5.48-22.75 5.48-2.25 1.17-4.51 2.24-6.78 3.22-6.98 3.05-14.01 5.27-20.86 6.87-14.54 3.4-28.25 3.99-38.86 3.63-.01 0-.02-.01-.03-.01-12.62-.43-20.85-2.21-20.85-2.21s-2.97-1.76-7.63-4.25c-8.72-4.65-23.33-11.87-35.46-14.96-3.25-.83-6.31-1.37-9.04-1.48-3.48-.15-7.55.53-11.88 1.72-12.21 3.36-26.41 10.82-34.71 15.55-5.18 2.95-11 4.62-16.95 4.77-1.2.03-2.39.04-3.56.04-2.76 0-5.41-.08-7.96-.24 0 0 17.57-8.81 52.83-42.54 0 0 29.13-19.93 82.02-5.37 52.3 14.41 129.34-6.42 156.25-26.89l6.32 22.11z" fill="#e2cb6a"/><path d="M315.109 143.961s21.462 1.533 40.625 13.031l-2.3 13.797-13.797 7.665s-26.828-6.899-24.528-34.493zM338.801 184.768s10.731 12.264 3.833 27.595c0 0-6.899 8.432-19.163 2.3s-22.229-29.128-22.229-29.128 13.797-6.133 37.559-.767zM267.515 148.354s4.233-12.698 22.856-22.009c0 0 9.312 8.465 11.851 34.707l-7.619 7.619-27.088-20.317zM220.757 152.574s22.229 5.366 34.493 1.533c0 0 .767-24.529-9.198-33.727 0 0-23.762 3.066-25.295 32.194zM165.977 149.689s-3.955-11.864-21.354-20.564c0 0-8.7 7.909-11.073 32.427l7.118 7.118 25.309-18.981zM127.498 182.327s-5.668-8.483-21.235-11.58c0 0-5.142 8.098-1.726 27.903l7.135 4.067 15.826-20.39zM212.734 152.574s-22.229 5.366-34.493 1.533c0 0-.767-24.529 9.198-33.727 0 0 23.762 3.066 25.295 32.194zM134.908 222.327s-10.731 13.031-6.132 28.361c0 0 27.595 0 36.026-18.396 0 0-6.132-12.265-29.894-9.965zM297.214 222.327s10.731 13.031 6.132 28.361c0 0-27.595 0-36.026-18.396-.001 0 6.132-12.265 29.894-9.965zM199.295 233.058s15.33-13.031 36.026-1.533c0 0-2.3 22.229-14.564 29.894 0 0-22.229-9.198-21.462-28.361z" fill="#d2d8ca"/><path d="M443.88 229.811c-28.36 16.86-67.45 28.36-67.45 28.36-19.16-3.83-29.13-16.1-29.13-16.1-.15-.26-.31-.51-.45-.77a107.34 107.34 0 01-3.65-6.71l59.22-8.43 9.97-10.15h29.96l.61 5.5.92 8.3z" fill="#ceba65"/><path d="M443.88 229.811c-28.36 16.86-67.45 28.36-67.45 28.36-19.16-3.83-29.13-16.1-29.13-16.1-.15-.26-3.96-7.22-4.1-7.48l59.22-8.43 12.03-4.65h28.51l.92 8.3z" fill="#e2cb6a"/><path d="M341.867 219.261s16.097 7.665 16.863 25.295c0 0-16.097 16.863-30.661 21.462 0 0-14.12-14.624-3.833-34.493s17.631-12.264 17.631-12.264z" fill="#d2d8ca"/><path d="M197.92 295.821c-12.62-.43-20.85-2.21-20.85-2.21s-2.97-1.76-7.63-4.25l1.49-28.71s16.51 32.19 26.99 35.17zM133.98 274.401c-3.25-.83-6.31-1.37-9.04-1.48-3.48-.15-7.55.53-11.88 1.72l14.18-17.05 6.74 16.81zM257.67 285.331c-6.98 3.05-14.01 5.27-20.86 6.87 6.87-10.56 9.96-24.56 9.96-24.56l10.9 17.69zM301.33 271.781a197.54 197.54 0 01-14.13 4.85l3.27-17s5.25 9.16 10.86 12.15z" fill="#ceba65"/><path d="M170.934 260.653c9.198 14.564 14.564 42.925 14.564 42.925l-4.599 23.762 15.33 5.366-4.599 9.965h-53.656l3.833-32.194c-12.264-4.599-23.762-21.462-23.762-21.462 3.066-16.097 9.198-31.427 9.198-31.427s23.185-5.544 43.691 3.065zM290.474 259.632c5.827 14.568 7.284 45.89 7.284 45.89l-3.642 20.395 15.297 5.099-5.099 11.654h-58.272l3.23-30.143c-5.827-14.568-2.501-44.883-2.501-44.883s8.668-8.037 20.071-10.888c-.002 0 16.856-.901 23.632 2.876z" fill="#22b573"/><path fill="#1c995d" d="M180.899 327.34H165.44l17.133-8.65zM294.116 325.917l-14.176-2.656 15.817-6.533zM141.806 310.476l1.134-11.715-7.182 8.502z"/><path d="M379.264 182.153s8.28 4.154 18.241 1.421l.294-5.436s-9.068-5.723-15.714-7.827c-.001 0-5.848 7.317-2.821 11.842z" fill="#4d4d4d"/><path d="M103.44 221.761s-10-2-15.5 0c0 0 4.5 12.5 9.5 13.5 0 0 6-4 6-13.5zM149.961 189.346s-7.581-6.821-13.332-7.907c0 0-2.506 13.047 1.285 16.458 0 0 7.201-.38 12.047-8.551zM182.767 175.258s-4.376-9.211-9.268-12.424c0 0-7.329 11.081-5.141 15.687.001 0 6.794 2.417 14.409-3.263zM278.528 184.846s7.581-6.821 13.332-7.907c0 0 2.506 13.047-1.285 16.458.001 0-7.201-.38-12.047-8.551zM245.723 175.258s4.376-9.211 9.268-12.424c0 0 7.329 11.081 5.141 15.687-.001 0-6.795 2.417-14.409-3.263zM223.426 176.735s-2.347-9.924-6.456-14.091c0 0-9.49 9.298-8.316 14.26 0 0 6.136 3.788 14.772-.169zM91.154 245.791s-8.115-6.176-13.936-6.786c0 0-1.427 13.208 2.631 16.297 0-.001 7.146-.97 11.305-9.511zM71.573 263.862s-6.98-7.435-12.62-9c0 0-3.594 12.79-.104 16.507.001 0 7.208.227 12.724-7.507zM61.52 287.261l-11.64 7.5-16.15 7.28-25.3-2.3L0 276.751l16.1-13.03 17.63-1.54 19.93 6.9s7.98 10.48 7.86 18.18zM163.779 198.489s-2.157 11.326 9.346 19.821c0 0 22.287-5.663 23.006-16.99.001.001-9.95-20.059-32.352-2.831zM264.606 198.489s2.157 11.326-9.346 19.821c0 0-22.287-5.663-23.006-16.99-.001.001 9.95-20.059 32.352-2.831z" fill="#d2d8ca"/></symbol><symbol viewBox="0 0 361.77 361.77" id="si-calendar" xmlns="http://www.w3.org/2000/svg"><path d="M323.885 43.77h-27.5V25c0-13.807-11.193-25-25-25h-1c-13.807 0-25 11.193-25 25v18.77h-129V25c0-13.807-11.193-25-25-25h-1c-13.807 0-25 11.193-25 25v18.77h-27.5c-13.807 0-25 11.193-25 25v268c0 13.809 11.193 25 25 25h286c13.807 0 25-11.191 25-25v-268c0-13.807-11.194-25-25-25zm-17 278.5h-252v-203h252v203z"/><path d="M89.136 211.134h43.498a4 4 0 004-4v-43.498a4 4 0 00-4-4H89.136a4 4 0 00-4 4v43.498a4 4 0 004 4zm70 0h43.498a4 4 0 004-4v-43.498a4 4 0 00-4-4h-43.498a4 4 0 00-4 4v43.498a4 4 0 004 4zm70 0h43.498a4 4 0 004-4v-43.498a4 4 0 00-4-4h-43.498a4 4 0 00-4 4v43.498a4 4 0 004 4zm-140 70h43.498a4 4 0 004-4v-43.498a4 4 0 00-4-4H89.136a4 4 0 00-4 4v43.498a4 4 0 004 4zm70 0h43.498a4 4 0 004-4v-43.498a4 4 0 00-4-4h-43.498a4 4 0 00-4 4v43.498a4 4 0 004 4zm70 0h43.498a4 4 0 004-4v-43.498a4 4 0 00-4-4h-43.498a4 4 0 00-4 4v43.498a4 4 0 004 4z"/></symbol><symbol viewBox="0 0 464.202 464.202" id="si-camarasaur" xmlns="http://www.w3.org/2000/svg"><path d="M462.13 165.801l-1.92 2.22-4.57-.42-7.69 11.09c-9.61.6-38.25 1.87-51.55-3.45 0 0-10.58 44.81-41.58 90.12-8.2 11.99-19.97 21.08-33.56 26.24-14.55 5.53-33.87 12.58-45.71 15.77-1.56.42-3.58.69-5.98.82-4.94.26-11.51-.06-19.01-.76-17.38-1.64-39.82-5.38-58.94-8.93-7.97-1.48-15.37-2.93-21.59-4.18-11.2-2.26-18.56-3.87-18.56-3.87s-1.21.33-3.34.89c-4.47 1.16-12.98 3.33-22.74 5.57v.01c-18.98 4.38-42.67 9.06-50.46 7.23 0 0-58.81-26.59-74.93-59.62 0 0 30.62 14.5 62.04 16.11 21.82 1.12 35.48-14.85 41.79-24.72 4.17-6.52 9.44-12.25 15.72-16.77 14.45-10.42 41.93-26.84 79.46-34.24 0 0 51.188 0 118.643 32.752 3.982 1.934 8.782.473 11.043-3.334 10.099-17.006 37.337-61.367 58.989-82.885a14.221 14.221 0 017.025-3.819c9.077-1.962 31.223-6.323 38.75-3.945 7.13 2.25 22.01 21.77 29.11 31.54a8.515 8.515 0 01-.44 10.581z" fill="#c98c51"/><path d="M411.854 139.112s-1.523 1.861-1.861 4.061c0 0 2.458 1.865 5.755 3.015 2.402.838 5.069.373 7.104-1.154 0 0-1.015-3.722-4.568-5.584 0 0-3.892-1.353-6.43-.338z" fill="#666"/><path d="M455.64 167.597h.006c-8.974-1.294-30.31-4.744-51.186-10.887l-8.06 18.53c10.077 4.035 28.975 4.282 41.717 3.901a19.29 19.29 0 0015.276-8.302l2.247-3.242z" fill="#bc8053"/><path d="M276.35 246.141l-.5 43.89-6.28 18.16c-4.94.26-11.51-.06-19.01-.76l-.01-.01c4.02-8.6 1.3-25.39 1.3-25.39l24.5-35.89zM295.69 280.034l5.977 18.811-12.04 4.18zM125.39 296.911c5.87-7.45.43-23.57.43-23.57l9.37 1.69 12.94 16.31c-4.47 1.16-12.98 3.33-22.74 5.57zM191.62 298.501c-7.97-1.48-15.37-2.93-21.59-4.18l12.06-21.59s1.96 18.899 9.53 25.77z" fill="#9e6439"/><path fill="#c98c51" d="M276.354 246.143l19.336 13.696v60.427l10.474 7.251v13.696h-36.256l-5.639-17.725-7.252-41.09zM182.089 272.73s-.806 24.976-12.085 44.313l14.502 11.28-2.417 12.891h-42.701l6.445-33.033-21.753-37.867 20.948-15.308 37.061 17.724z"/></symbol><symbol viewBox="0 0 472.141 472.141" id="si-cerato" xmlns="http://www.w3.org/2000/svg"><path fill="#dbd6a9" d="M400.834 110.697s2.506-4.115 15.506-2.115c0 0 10.777 5.099 15.888 20.549 0 0-19.991-7.596-25.19 12.427S383.079 125.5 383.079 125.5l17.755-14.803z"/><path fill="#57845e" d="M266.032 277.096s-1.878-26.294-10.017-48.206c0 0-23.79-10.643-45.076-11.269 0 0-20.144 19.572-24.416 33.807s-5.634 75.126-5.634 75.126 24.065 26.294 36.586 46.954h68.866a23.496 23.496 0 00-21.39-13.773h-23.06l-12.17-23.79s22.538-30.677 36.311-58.849z"/><path fill="#79b585" d="M461.97 210.933c-.02-.02-.05-.04-.11-.08l-3.92-2.9c-10.53 9.15-26.99 9.39-26.99 9.39-15.43-16.97-56.13-16.44-56.13-16.44-6.16 23.19-18.26 40.55-32.61 53.54-5.48 4.96-11.3 9.28-17.23 13.04-1.89 1.2-3.79 2.34-5.69 3.43-6.96 3.97-13.98 7.22-20.77 9.87l-.01.01c-18.61 7.29-35.37 10.16-43.68 11.21-3.49.45-5.49.58-5.49.58-13.62-2.27-22.7-.09-30.36 2.28-11.06 3.43-19.15 7.27-33.63-1.23-.09-.05-.18-.11-.27-.16a379.045 379.045 0 01-24.01-15.37c-1.61-1.12-3.16-2.21-4.63-3.26-13.05-9.35-20.7-16.09-20.7-16.09-26.97 26.1-53.06 39.59-75.02 46.3-7.85 2.39-15.18 3.93-21.82 4.86-23.71 3.31-38.9-1.03-38.9-1.03 86.17-33.83 117.58-101.85 125.85-124.3 2.33-6.33 6.09-12.06 11.12-16.56 29.06-26.05 71.98-24.26 92.35-21.56 7.04.93 13.73 3.62 19.44 7.84 15.927 11.776 38.435 7.904 49.552-8.489 9.853-14.53 21.082-30.178 27.948-36.821 14.93-14.45 37.42-17.86 55.9-8.35 42.97 22.12 89.84 53.99 89.84 53.99 1.54 22.37-10.03 56.3-10.03 56.3z"/><path fill="#6aa073" d="M399.84 153.083s11.5-9.5 5.5-17-27-26-34-12 6 37 6 37l9 2.5 13.5-10.5z"/><path fill="#4d4d4d" d="M386.579 127.501s9.631 3.845 14.744 14.214L396.991 146s-11.529-3.338-18.229-7.339c0 0 1.781-10.332 7.817-11.16z"/><path fill="#dbd6a9" d="M460.191 146.811s10.149-15.229 3.149-25.229-19.564 14.718-19.564 14.718l16.415 10.511z"/><path fill="#6aa073" d="M258.34 277.083l-3.51 14.92c-3.49.45-5.49.58-5.49.58-13.62-2.27-22.7-.09-30.36 2.28l19.65-62.63s19.65 30.42 19.71 44.85zm-64.78-56.12l-.22 69.12s-3.46 1.82-8.26 3.39a379.045 379.045 0 01-24.01-15.37c-1.61-1.12-3.16-2.21-4.63-3.26 1.1-35.25 37.12-53.88 37.12-53.88zm104.96 59.82c9.68-12.8 6.95-36.43 6.95-36.43l13.82 26.56c-6.96 3.97-13.98 7.22-20.77 9.87zm43.69-26.34c-5.48 4.96-11.3 9.28-17.23 13.04l-6.91-20.79s12.5.09 24.13 7.74c0 0 .01 0 .01.01z"/><path fill="#79b585" d="M248.65 280.434s-1.878-26.294-10.017-48.206c0 0-23.79-10.643-45.076-11.269 0 0-20.144 19.572-24.416 33.807-4.272 14.234-5.634 75.126-5.634 75.126s24.065 26.294 36.586 46.954h68.866a23.496 23.496 0 00-21.39-13.773h-23.06l-12.17-23.79s22.537-30.676 36.311-58.849zm56.824-36.086l9.135 47.836c1.43 7.487 9.933 11.203 16.399 7.167l21.192-13.229 14.603 20.955-1.489-19.115c-.674-8.651-8.983-14.605-17.391-12.462l-15.374 3.918c5.695-15.949-5.153-32.994-22.013-34.59l-5.062-.48z"/><path fill="#6aa073" d="M224.508 363.073H212.84l5.221-12.603zm-88.768-104.32s6.1-4.17 10.1-12.67l-2.04 19.28-8.06-6.61zm322.198-50.804l-60.098-27.366-14 5-12-14.5-14.5 12 15-.5 11.5 12.5 15.5-8 52.464 24.993z"/><circle cx="149.09" cy="185.333" r="8.75" fill="#6aa073"/><circle cx="235.34" cy="165.583" r="8.75" fill="#6aa073"/><circle cx="161.84" cy="172.083" r="3.5" fill="#6aa073"/><circle cx="165.84" cy="183.583" r="3.5" fill="#6aa073"/><circle cx="241.34" cy="181.083" r="3.5" fill="#6aa073"/><circle cx="353.34" cy="108.583" r="3.5" fill="#6aa073"/><circle cx="250.84" cy="171.583" r="5" fill="#6aa073"/><circle cx="354.34" cy="121.083" r="5" fill="#6aa073"/><circle cx="341.84" cy="115.583" r="5" fill="#6aa073"/></symbol><symbol viewBox="0 0 512 512" id="si-dino-marker" xmlns="http://www.w3.org/2000/svg"><path d="M512 256c0 141.387-114.613 256-256 256S0 397.387 0 256 114.613 0 256 0s256 114.613 256 256zm0 0" fill="#ff8597"/><path d="M301.395 507.984C421.125 486.56 512 381.894 512 256c0-.32-.012-.64-.012-.965l-59.34-59.34-38.91 38.235-151.18-151.184 9.458 134.68-35.286 92.262-87.644-87.645-65.16 60.812L228.125 427.06l-1.762 5.894zm0 0" fill="#ff3636"/><path d="M452.496 195.543c-8.555-8.555-40.672 9.691-49.281 18.266-15.145-4.22-32.059-.387-43.969 11.523-10.656 10.656-32.367 64.555-54.129 84.805-4.52 4.207-10.242 8.84-16.55 13.629-3.52-18.762-6.325-36.95-6.325-49.563 0-33.828 18.785-90.125 18.785-107.71 0-16.907-9.32-31.626-23.097-39.329v-.02c0-12.113-9.817-47.808-21.93-47.808s-21.93 35.695-21.93 47.809v.02c-13.78 7.702-23.097 22.42-23.097 39.327 0 17.711 18.093 74.89 18.093 108.387 0 11.668-2.027 28.21-4.668 45.555-6.562-5.153-12.37-10.086-16.632-14.43-19.309-19.684-44.555-70.215-55.012-80.672-11.996-11.996-29.078-15.8-44.305-11.43-8.73-8.613-40.664-26.71-49.191-18.183-8.567 8.562 9.73 40.746 18.297 49.312-4.227 15.149-.395 32.07 11.515 43.98 9.813 9.81 58.797 33.274 74.567 51.739 15.765 18.465 50.14 79.766 60.523 90.148a44.917 44.917 0 0015.309 10.047 44.875 44.875 0 0017.926 3.72c13.05 0 24.796-5.56 33.02-14.427l.972.875c9.867-10.922 39.14-69.37 56.715-92.793 17.574-23.418 65.18-39.664 74.824-49.308 12-12 15.804-29.09 11.426-44.32 8.628-8.79 26.656-40.633 18.144-49.149zm0 0" fill="#005285"/><path d="M257.398 444.664c13.047 0 24.793-5.559 33.02-14.426l.969.875c9.867-10.922 39.144-69.37 56.718-92.793 17.57-23.418 65.176-39.664 74.825-49.308 12-12 15.8-29.09 11.425-44.32 8.625-8.79 26.653-40.637 18.141-49.149-8.555-8.555-40.672 9.687-49.281 18.266-15.145-4.22-32.059-.387-43.969 11.52-10.656 10.66-32.367 64.558-54.129 84.808-4.52 4.203-10.242 8.836-16.55 13.629-3.52-18.766-6.325-36.95-6.325-49.563 0-33.832 18.785-90.125 18.785-107.71 0-16.907-9.32-31.63-23.097-39.329v-.02c0-12.113-9.817-47.808-21.93-47.808zm0 0" fill="#001035"/></symbol><symbol viewBox="0 0 512 512" id="si-discord" xmlns="http://www.w3.org/2000/svg"><circle cx="256" cy="256" r="256" fill="#a8adf0"/><path d="M256 0c-11.317 0-22.461.744-33.391 2.167C348.216 18.53 445.217 125.933 445.217 256s-97.002 237.47-222.609 253.833A258.556 258.556 0 00256 512c141.385 0 256-114.616 256-256S397.385 0 256 0z" fill="#989fec"/><path d="M417.824 114.172l-1.264-3.206a.388.388 0 00-.199-.209l-3.138-1.425c-25.832-11.733-62.269-14.628-94.507-15.911h-36.31c-.41 0-.535.554-.166.731l74.584 35.757c.421.201.188.827-.264.709-33.543-8.76-67.429-13.194-100.89-13.194-33.353 0-67.129 4.407-100.569 13.111-.455.118-.686-.515-.259-.712l77.201-35.667c.374-.173.252-.733-.161-.733h-39.257c-32.237 1.283-68.676 4.178-94.507 15.911l-3.138 1.425a.381.381 0 00-.199.209l-1.264 3.206C67.081 181.16 59.569 294.879 67.58 366.12l.42 3.736 2.972 2.305c41.298 32.024 96.519 48.489 131.258 52.858l4.492.565a3.176 3.176 0 003.371-2.038l22.61-60.407a3.176 3.176 0 00-2.481-4.251l-6.938-1.09c-24.193-3.801-58.47-13.877-87.437-40.147-.618-.561-.022-1.569.76-1.279 2.354.875 4.95 1.889 7.623 2.933 6.55 2.559 13.324 5.205 17.744 6.255 31.064 7.386 62.565 11.132 93.694 11.132v-.554h.065l.004.554c31.066 0 62.566-3.745 93.627-11.132 4.422-1.051 11.196-3.696 17.747-6.256a499.28 499.28 0 017.619-2.932c.782-.29 1.378.719.76 1.279-28.87 26.154-63.19 36.204-87.437 40.002l-6.936 1.086a3.175 3.175 0 00-2.484 4.248l22.614 60.556a3.176 3.176 0 003.371 2.04l4.496-.565c34.737-4.369 89.954-20.834 131.253-52.858l2.972-2.305.42-3.736c8.012-71.24.5-184.96-25.935-251.947zm-235.95 164.462c-28.083 2.504-51.512-20.923-49.011-49.006 1.918-21.527 19.252-38.863 40.78-40.783 28.083-2.504 51.512 20.923 49.011 49.006-1.919 21.527-19.253 38.863-40.78 40.783zm155.826 0c-28.083 2.504-51.512-20.923-49.011-49.006 1.918-21.527 19.252-38.863 40.78-40.783 28.082-2.504 51.512 20.923 49.011 49.006-1.919 21.527-19.253 38.863-40.78 40.783z" fill="#fff"/></symbol><symbol viewBox="0 -85 512.002 512" id="si-fossil" xmlns="http://www.w3.org/2000/svg"><path d="M511.031 115.457c-18.402-52.676-66.203-89.945-121.816-94.953l-49.36-4.211c-4.125-.352-7.761 2.707-8.113 6.836a7.502 7.502 0 006.836 8.11l49.328 4.21c49.727 4.48 92.496 37.824 108.961 84.95.121.351.16.73.11 1.093-1.704 12.293-22.016 25.45-54.332 35.195-35.68 10.754-82.7 16.68-132.399 16.68h-81.039c-42.36 0-51.25 22.551-51.25 41.469 0 .273.016.547.043.816l2.055 18.743c.11.996-.43 1.55-.899 1.84s-1.203.519-2.047-.028c-.047-.027-.093-.059-.136-.086l-22.371-13.844a12.785 12.785 0 00-9.715-1.855c-3.344.715-6.27 2.785-8.02 5.687-3.316 5.477-19.879 13.192-46.344 13.192-7.125.05-14.14-1.02-20.855-3.078-20.488-6.278-36.984-21.418-46.45-42.633-9.62-21.567-10.835-46.762-3.425-70.945 3.289-10.73 8.121-20.73 14.371-29.73a7.504 7.504 0 00-1.887-10.442 7.503 7.503 0 00-10.437 1.886C14.707 94.633 9.19 106.035 5.45 118.25c-8.473 27.652-7.028 56.578 4.07 81.453 3.566 7.992 7.992 15.262 13.156 21.711a30.458 30.458 0 00-11.739 15.313c-3.007 8.789-1.785 18.296 3.36 26.085 33.539 50.817 89.605 79.981 148.344 79.977 15.496 0 31.183-2.031 46.687-6.23l70.77-19.16h25.593a7.502 7.502 0 000-15.004h-26.59c-.66 0-1.32.09-1.96.261l-71.735 19.422a163.154 163.154 0 01-42.75 5.703c-4.59 0-9.16-.207-13.703-.593l-6.738-17.727 9.363-20.848a7.502 7.502 0 00-13.687-6.144l-7.543 16.797-12.532-5.63a7.508 7.508 0 00-9.918 3.77 7.507 7.507 0 003.77 9.918l16.5 7.41 3.848 10.121c-42.133-8.093-80.395-32.73-105.2-70.308-2.597-3.938-3.195-8.54-1.683-12.961 1.387-4.043 4.402-7.309 8.187-8.977 9.235 8.184 20.02 14.301 31.953 17.957a85.449 85.449 0 0025.07 3.735h.2c26.785 0 48.945-7.117 57.7-18.317l20.777 12.856c5.523 3.547 12.417 3.61 18.011.164 5.617-3.461 8.66-9.688 7.938-16.246l-.153-1.41h5.352c10.629 0 21.223 2.3 30.637 6.644 19.004 8.797 49.988 18.899 121.492 18.899 40.015 0 82.93-3.477 107.66-8.692-5.687 20.875-20.117 38.047-39.785 47.266a2.562 2.562 0 01-2.43-.121l-18.715-11.578c-3.843-2.38-8.535-2.563-12.554-.493-4.02 2.07-6.594 6-6.891 10.512l-.562 8.613h-40.665a7.497 7.497 0 00-7.5 7.5c0 4.145 3.356 7.5 7.5 7.5h43.008c6.567 0 12.043-5.132 12.473-11.683l.473-7.227 15.543 9.614c5.05 3.12 11.289 3.476 16.687.945 24.25-11.367 41.883-32.777 48.371-58.73a13.918 13.918 0 00-3.543-13.176c-3.414-3.516-8.312-4.98-13.097-3.926-5 1.105-10.961 2.137-17.625 3.074 1.109-4.121 1.304-8.89-.293-14.039a7.498 7.498 0 00-9.387-4.941 7.501 7.501 0 00-4.942 9.382c1.961 6.329-2.707 10.914-3.246 11.418l.067-.062.3.336a661.138 661.138 0 01-25.894 2.09c1.219-4.223 1.492-9.149-.164-14.489a7.504 7.504 0 00-9.387-4.941c-3.957 1.23-6.172 5.43-4.941 9.387 1.664 5.37-1.442 9.476-2.75 10.906-7.828.3-15.711.484-23.461.535 1.254-4.254 1.555-9.234-.121-14.64a7.504 7.504 0 00-9.387-4.942 7.502 7.502 0 00-4.941 9.387c1.418 4.578-.63 8.234-2.078 10.101-8.536-.152-16.383-.46-23.598-.898 1.644-4.567 2.246-10.086.367-16.137a7.496 7.496 0 00-9.387-4.941 7.498 7.498 0 00-4.941 9.383c1.504 4.84-.875 8.652-2.316 10.41-8.942-.89-16.696-1.98-23.422-3.18 2.148-4.875 3.199-11.05 1.074-17.902a7.504 7.504 0 00-9.387-4.942c-3.957 1.23-6.172 5.434-4.941 9.39 1.426 4.602-.657 8.278-2.106 10.134-12.336-3.196-19.593-6.555-24.261-8.715-11.38-5.254-24.149-8.031-36.934-8.031h-6.996l-.207-1.907c.09-12.226 4.46-26.07 36.246-26.07h12.7c1.347 1.984 2.894 5.387 1.624 9.473a7.5 7.5 0 004.942 9.386c.742.23 1.488.34 2.226.34a7.5 7.5 0 007.16-5.28c1.582-5.099 1.407-9.825.328-13.919h22.715c1.348 1.984 2.89 5.387 1.625 9.473a7.5 7.5 0 004.942 9.386c.742.23 1.488.34 2.226.34a7.5 7.5 0 007.16-5.28c1.582-5.099 1.407-9.825.328-13.915h13.063c3.422 0 6.836-.031 10.23-.086 1.36 1.973 2.973 5.41 1.684 9.559a7.497 7.497 0 004.945 9.382c.739.23 1.489.34 2.223.34a7.5 7.5 0 007.16-5.28c1.656-5.333 1.383-10.255.172-14.474 8.106-.34 16.102-.84 23.953-1.488 1.45 1.813 3.672 5.559 2.207 10.274a7.502 7.502 0 007.168 9.722 7.5 7.5 0 007.16-5.277c1.899-6.121 1.262-11.695-.422-16.29a488.57 488.57 0 0026.86-3.76c1.34 1.573 4.07 5.57 2.504 10.62a7.498 7.498 0 004.941 9.387c.738.23 1.488.34 2.223.34 3.199 0 6.164-2.063 7.164-5.282 2.144-6.91 1.055-13.136-1.133-18.027 9.098-1.902 17.75-4.05 25.867-6.441 1.406 1.851 3.453 5.535 2.047 10.058a7.5 7.5 0 004.942 9.387c.742.23 1.488.34 2.226.34a7.5 7.5 0 007.16-5.281c2.332-7.516.844-14.223-1.726-19.286 24.406-8.855 49.199-22.777 52.035-43.25.375-2.718.094-5.519-.809-8.105zm0 0"/><path d="M50.496 72.457c1.594 0 3.2-.508 4.559-1.55C71.473 58.323 90.832 52.19 109.57 53.66c4.727.367 9.535-.527 13.91-2.59a57.772 57.772 0 019.024-3.37c4.469-1.255 8.05-4.442 9.828-8.747 1.742-4.219 1.465-8.894-.754-12.832-2.004-3.547-.512-6.57.223-7.707 1.531-2.371 4.117-3.625 6.96-3.379l157.247 13.426c4.125.352 7.762-2.711 8.113-6.836a7.504 7.504 0 00-6.836-8.113L150.07.09a22.408 22.408 0 00-20.875 10.183 22.398 22.398 0 00-.808 23 73.074 73.074 0 00-11.309 4.23c-2.02.954-4.215 1.372-6.344 1.204-22.433-1.742-45.449 5.453-64.808 20.297-3.285 2.52-3.91 7.23-1.387 10.516a7.487 7.487 0 005.957 2.937zm0 0"/><path d="M265.11 43.66c-29.036-8.969-59.079-5.75-78.407 8.399a13.792 13.792 0 00-5.621 11.023c-.02 4.39 1.984 8.418 5.5 11.043 11.453 8.555 19.586 20.867 22.895 34.668 3.023 12.598 9.937 23.52 19.48 30.758 11.23 8.523 24.582 13.027 38.61 13.027 17.14 0 33.304-6.773 45.507-19.074 13.973-14.082 16.172-35.5 5.344-52.082-11.066-16.957-30.5-30.719-53.309-37.762zm37.316 79.278c-9.367 9.437-21.746 14.636-34.86 14.636-10.726 0-20.941-3.449-29.543-9.972-6.785-5.149-11.742-13.075-13.957-22.309-3.988-16.633-13.582-31.52-27.097-42.11 15.46-10.382 40.219-12.445 63.71-5.187 19.524 6.027 35.993 17.555 45.176 31.625 6.926 10.606 5.516 24.305-3.43 33.317zm0 0M389.547 114.813c9.219 3.558 18.605 5.273 27.383 5.273 15.715 0 29.48-5.5 36.86-15.77a7.504 7.504 0 001.198-6.148c-4.097-16.883-19.847-32.469-41.11-40.672-24.077-9.281-49.304-6.617-62.769 6.621a7.514 7.514 0 00-2.218 5.977c1.507 17.945 17.843 35.914 40.656 44.719zm18.937-43.32c14.864 5.737 26.516 15.945 30.793 26.69-8.761 8.094-26.925 9.348-44.328 2.633-15.586-6.015-27.515-17.285-30.465-28.351 9.961-6.871 27.34-7.39 44-.973zm0 0M107.668 82.79c-13.488 13.491-10.57 38.355 6.504 55.433 7.992 7.988 17.93 13.191 27.984 14.652 1.938.281 3.836.418 5.692.418 8.554 0 16.14-2.953 21.754-8.57 13.488-13.489 10.57-38.356-6.504-55.43-17.07-17.074-41.938-19.992-55.43-6.504zm51.328 51.323c-3.402 3.403-8.613 4.793-14.684 3.914-6.878-.996-13.812-4.695-19.53-10.414-11.036-11.035-14.016-26.703-6.505-34.215 2.813-2.812 6.766-4.152 11.192-4.152 7.398 0 16.12 3.75 23.023 10.652 11.035 11.04 14.012 26.707 6.504 34.215zm0 0M178.191 300.977c-4.144 0-7.48 3.359-7.48 7.5 0 4.144 3.383 7.503 7.523 7.503a7.503 7.503 0 100-15.004zm0 0M80.992 163.875c-4.14 0-7.48 3.36-7.48 7.504 0 4.14 3.383 7.5 7.523 7.5a7.503 7.503 0 100-15.004zm0 0"/></symbol><symbol viewBox="0 0 512 512" id="si-gallery-icon" xmlns="http://www.w3.org/2000/svg"><path d="M256 17.68c112.43 0 203.93 87.31 203.93 194.96C459.93 363.95 256 494.32 256 494.32S52.07 363.95 52.07 212.64c0-107.65 91.5-194.96 203.93-194.96zm148.89 200.33A148.89 148.89 0 10256 366.91a148.89 148.89 0 00148.89-148.9z" fill="#00acea"/><path d="M351.45 248.03v-95.3h-190.9v136.54h190.9zM256 69.12a148.9 148.9 0 11-148.89 148.89A148.89 148.89 0 01256 69.12z" fill="#fedb41"/><path fill="#00efd1" d="M351.45 248.03v41.24H211.46l42.9-42.16 40.12-39.43 56.97 40.35z"/><path d="M351.45 152.73v95.3l-56.97-40.35-40.12 39.43-.02-.02-46.77-22.79-47.02 27.27v-98.84zm-90.69 44.73a14.96 14.96 0 10-14.96 14.96 14.963 14.963 0 0014.96-14.96z" fill="#f4b844"/><circle cx="245.8" cy="197.46" r="14.96" fill="#00efd1"/><path fill="#00acea" d="M254.36 247.11l-42.9 42.16h-50.91v-37.7l47.02-27.27 46.77 22.79.02.02z"/><path d="M360 153a8 8 0 00-8-8H161a8 8 0 00-8 8v137a8 8 0 008 8h191a8 8 0 008-8zm-17 8v71.56l-44.121-31.408a7.845 7.845 0 00-10.119.823l-36.026 35.461-41.688-20.328a7.526 7.526 0 00-7.278.271L169 237.682V161zm-174 95.176l39.123-22.818L240.8 249.2 208.188 281H169zM231.015 281l64.076-63.059L343 252.167V281z" fill="#083863"/><path d="M245.8 220.42a22.96 22.96 0 10-22.96-22.96 22.986 22.986 0 0022.96 22.96zm0-29.92a6.96 6.96 0 11-6.96 6.96 6.968 6.968 0 016.96-6.96z" fill="#083863"/><path d="M256 9.68c-116.858 0-211.93 91.048-211.93 202.96 0 35.922 11.075 73.54 32.916 111.812 17.261 30.245 41.271 61 71.364 91.4 51.022 51.548 101.229 83.858 103.341 85.208a8 8 0 008.618 0c2.112-1.35 52.319-33.664 103.341-85.211 30.093-30.4 54.1-61.152 71.364-91.4 21.841-38.272 32.916-75.89 32.916-111.812C467.93 100.728 372.858 9.68 256 9.68zm165.2 306.7c-16.532 29-39.646 58.609-68.7 87.993a677.641 677.641 0 01-96.5 80.344 676.515 676.515 0 01-96.278-80.124c-29.11-29.408-52.27-59.04-68.838-88.072C70.437 280.7 60.07 245.745 60.07 212.64c0-103.09 87.894-186.96 195.93-186.96s195.93 83.87 195.93 186.96c0 33.06-10.339 67.96-30.73 103.738z" fill="#083863"/><path d="M256 61.12c-86.509 0-156.89 70.38-156.89 156.89s70.381 156.9 156.89 156.9 156.89-70.385 156.89-156.9S342.509 61.12 256 61.12zm0 297.79c-77.687 0-140.89-63.207-140.89-140.9S178.313 77.12 256 77.12s140.89 63.2 140.89 140.89-63.203 140.9-140.89 140.9z" fill="#083863"/></symbol><symbol viewBox="0 0 408.507 408.507" id="si-gallimimus" xmlns="http://www.w3.org/2000/svg"><path fill="#808c93" d="M156.175 186.41s-19.016 24.161-19.739 44.155c0 0 23.714 35.074 22.352 56.386l-58.237 31.222 14.971 68.275L159.416 406l-1.552-18.653-22-10-2.792-52.389 66.062-26.697a17.397 17.397 0 0010.825-17.497l-5.269-66.809-25.225-25.226"/><path fill="#a6b2bc" d="M394.12 68.592a4.883 4.883 0 011.828 5.729c-1.583 4.278-3.927 11.007-4.394 11.495-.95 1-1.97 1.97-3.05 2.89-1.18 1-2.53 1.7-3.97 2.1-2.18.62-4.56.54-6.77-.26-7.37-2.67-22.79-14.58-35.59-8.5-9.56 4.55-12.21-1.11-15.21-1.38-.1.49-.21.98-.34 1.49-7.08 27.81 45.07 63.52 21.74 89.52-9.2 10.25-21.49 16.03-33.01 19.26-5.54 1.56-10.23 5.24-13.13 10.2-3 5.14-6.52 10.45-10.53 15.75l-.01.02c-6.25 8.26-13.68 16.48-22.1 23.87-4.65 4.09-9.61 7.93-14.84 11.39-8.44 5.6-17.62 10.2-27.39 13.28-3.03.97-6.13 1.78-9.28 2.43-3.92.8-7.72 1.5-11.42 2.13-25.32 4.24-45.3 4.41-58.89 3.53-13.34-.87-20.51-2.74-20.51-2.74-65.92 43.95-115 40.29-115 40.29 56.39-25.63 88.63-97.42 88.63-97.42 25.63-31.49 87.16-60.8 87.16-60.8 16.685-4.71 58.038-5.833 75.14-6.181a60.16 60.16 0 0115.425 1.703c9.118 2.213 18.152 4.638 26.635 8.308 2.99 1.29 6.54.86 8.92-1.35 7.64-7.11-6.47-22.33-6.47-22.33-23-26.5-18.41-52.71-14.68-64.16.89-2.75 6.48-9.52 11.58-14.2a27.08 27.08 0 019.55-5.66c6.42-2.21 19.48-6.15 33.12-7 4.45-.28 8.87.9 12.59 3.37 0 .001 25.156 16.995 34.266 23.226z"/><path fill="#8a949b" d="M206.655 270.005c-25.325 4.241-45.3 4.406-58.891 3.527-4.373-24.359 7.636-56.266 7.636-56.266l51.255 52.739zm48.091-17.843c-8.449 5.603-17.624 10.207-27.391 13.284l-15.877-7.834 13.097-22.095 30.171 16.645z"/><path fill="#a6b2bc" d="M156.546 210.736s-6.592 30.032 1.465 48.344c0 0 36.624 21.242 44.681 41.019L163.87 353.57l43.216 54.936h44.277l-9.522-16.115h-12.78L196.1 345.513l47.837-52.807a17.396 17.396 0 002.122-20.465l-33.844-57.843-33.694-11.72"/><path fill="#8a949b" d="M291.697 216.882l-.011.022c-6.252 8.262-13.679 16.481-22.106 23.875l-8.284-21.249 9.614-26.666 20.787 24.018z"/><path fill="#a6b2bc" d="M284.609 184.509l14.039 6.45s10.987 32.962 8.057 57.134l26.543 15.926a10.43 10.43 0 012.009 16.319l-13.392 14.51-19.13-.894 9.098-4.109 9.486-14.064-34.39-15.968-16.847-48.344.827-18.6 13.7-8.36z"/><circle cx="349.122" cy="55.586" r="4.503" fill="#4d4d4d"/><path fill="#8a949b" d="M326.962 80.666s-8.598-9.319-4.098-19.319c0 0-9.629 18.255 3.186 28.378l.912-9.059zm61.542 8.041c-1.18 1-2.53 1.7-3.97 2.1-8.33-6.03-25.67-13.21-36.17-14.21-10.23-.97-11.68-6.69-11.74-6.99.26.17 4.45 2.99 10.99 2.99 16-.25 40.89 16.11 40.89 16.11zM229.062 392.392h-14.198l7.962-8.87z"/></symbol><symbol class="akocticon akocticon-mark-github akv-align-middle" viewBox="0 0 16 16" id="si-github"><path fill-rule="evenodd" d="M8 0C3.58 0 0 3.58 0 8c0 3.54 2.29 6.53 5.47 7.59.4.07.55-.17.55-.38 0-.19-.01-.82-.01-1.49-2.01.37-2.53-.49-2.69-.94-.09-.23-.48-.94-.82-1.13-.28-.15-.68-.52-.01-.53.63-.01 1.08.58 1.23.82.72 1.21 1.87.87 2.33.66.07-.52.28-.87.51-1.07-1.78-.2-3.64-.89-3.64-3.95 0-.87.31-1.59.82-2.15-.08-.2-.36-1.02.08-2.12 0 0 .67-.21 2.2.82.64-.18 1.32-.27 2-.27.68 0 1.36.09 2 .27 1.53-1.04 2.2-.82 2.2-.82.44 1.1.16 1.92.08 2.12.51.56.82 1.27.82 2.15 0 3.07-1.87 3.75-3.65 3.95.29.25.54.73.54 1.48 0 1.07-.01 1.93-.01 2.2 0 .21.15.46.55.38A8.013 8.013 0 0016 8c0-4.42-3.58-8-8-8z"/></symbol><symbol viewBox="0 0 459.278 459.278" id="si-guanlong" xmlns="http://www.w3.org/2000/svg"><path fill="#729da0" d="M167.091 200.105l-18.897 21.567 8.605 55.532s-36.415 6.069-53.819 24.908c0 0 9.726 25.416 1.914 48.324l39.105 21.406.451-16.3-18.946-10.371 4.691-38.799s60.443-6.781 72.007-14.951c0 0 4.041-46.246-4.623-62.808-8.662-16.561-30.488-28.508-30.488-28.508zm46.305 154.964l18.667 10.796h-23.334z"/><path fill="#91bec4" d="M459.278 147.72s-50.8-42.507-133.74-33.176c0 0-21.772 44.58-49.764 61.168 0 0-49.764-7.257-82.94-2.073 0 0-52.874 18.94-94.344 73.609 0 0-22.808 30.066-98.491 44.58 0 0 97.454 0 128.556-10.367l55.984-25.919s71.535-4.147 93.307-23.845c0 0 41.47-67.388 73.609-70.499l13.478 13.478s37.323-9.331 70.499-3.11l5.184-11.404 11.404 3.11 7.258-15.552z"/><path fill="#dd8d6b" d="M435.504 133.064s-3.178-18.519-13.549-27.85c0 0-43.74-18.468-69.104-17.758-1.545.043-2.857 1.127-3.233 2.627-.647 2.578-1.162 6.675.801 9.947 3.11 5.184 20.93 4.615 23.943 14.748"/><path fill="#729da0" d="M440.617 160.161l-65.315-9.33-9.331 8.294 14.758-1.26 57.416 7.734z"/><path fill="#4d4d4d" d="M372.456 136.346s8.585 4.307 18.911 1.474l.304-5.636s-9.401-5.934-16.292-8.115c.001 0-6.061 7.586-2.923 12.277z"/><path fill="#729da0" d="M152.401 235.844s8.799 17.279.563 34.317l19.016-8.804-19.579-25.513zm56.393-7.877l27.26 20.527-12.74 2.463zm54.992-4.79s-4.241 14.601-9.982 20.644l16.255-6.738-6.273-13.906zm22.356-27.766l11.339 8.521-13.361 18.221z"/><path fill="#91bec4" d="M158.622 207.852l-6.22 27.992 34.213 44.58s-29.029 22.808-35.249 47.69c0 0 20.735 17.625 24.882 41.47h44.58l-7.431-14.514h-21.598l-14.514-36.286s49.764-34.97 55.984-47.69c0 0-18.661-42.507-34.213-52.874-15.552-10.368-40.434-10.368-40.434-10.368zm161.731 63.236c-5.18 12.72-26.95 19.7-26.95 19.7l9.33-13.47-5.19-14.52-26.95 13.48c-11.41-18.66-6.22-59.1-6.22-59.1l21.77-21.77c18.45 28.71-3.65 57.42-4.14 58.05l23.84-13.47c6.22 8.3 14.51 31.1 14.51 31.1z"/><path fill="#729da0" d="M320.353 271.088c-5.18 12.72-26.95 19.7-26.95 19.7l9.33-13.47 17.62-6.23z"/></symbol><symbol viewBox="0 -28 512 512" id="si-heart" xmlns="http://www.w3.org/2000/svg"><path d="M471.383 44.578C444.879 15.832 408.512 0 368.973 0c-29.555 0-56.621 9.344-80.45 27.77C276.5 37.07 265.605 48.45 256 61.73c-9.602-13.277-20.5-24.66-32.527-33.96C199.648 9.344 172.582 0 143.027 0c-39.539 0-75.91 15.832-102.414 44.578C14.426 72.988 0 111.801 0 153.871c0 43.3 16.137 82.938 50.781 124.742 30.992 37.395 75.535 75.356 127.117 119.313 17.614 15.012 37.579 32.027 58.309 50.152A30.023 30.023 0 00256 455.516a30.03 30.03 0 0019.785-7.43c20.73-18.129 40.707-35.152 58.328-50.172 51.575-43.95 96.117-81.906 127.11-119.305C495.867 236.81 512 197.172 512 153.867c0-42.066-14.426-80.879-40.617-109.289zm0 0"/></symbol><symbol viewBox="0 0 465.01 465.01" id="si-iguanodon" xmlns="http://www.w3.org/2000/svg"><circle cx="383.866" cy="130.822" r="7.354" fill="#e5ba8f"/><circle cx="397.212" cy="135.279" r="7.354" fill="#e5ba8f"/><circle cx="371.116" cy="134.572" r="7.354" fill="#e5ba8f"/><circle cx="359.97" cy="142.176" r="7.354" fill="#e5ba8f"/><circle cx="355.47" cy="152.676" r="7.354" fill="#e5ba8f"/><circle cx="355.47" cy="166.176" r="7.354" fill="#e5ba8f"/><circle cx="355.324" cy="179.822" r="7.354" fill="#e5ba8f"/><circle cx="350.574" cy="193.572" r="7.354" fill="#e5ba8f"/><circle cx="336.074" cy="194.322" r="7.354" fill="#e5ba8f"/><circle cx="325.102" cy="182.072" r="7.354" fill="#e5ba8f"/><circle cx="311.102" cy="170.322" r="7.354" fill="#e5ba8f"/><circle cx="294.852" cy="161.822" r="7.354" fill="#e5ba8f"/><circle cx="279.102" cy="154.572" r="7.354" fill="#e5ba8f"/><circle cx="263.102" cy="149.572" r="7.354" fill="#e5ba8f"/><circle cx="247.352" cy="146.322" r="7.354" fill="#e5ba8f"/><circle cx="212.352" cy="147.723" r="7.354" fill="#e5ba8f"/><circle cx="194.852" cy="152.01" r="7.354" fill="#e5ba8f"/><circle cx="162.97" cy="162.926" r="7.354" fill="#e5ba8f"/><circle cx="145.72" cy="169.426" r="7.354" fill="#e5ba8f"/><circle cx="127.97" cy="178.426" r="7.354" fill="#e5ba8f"/><circle cx="101.72" cy="201.426" r="7.354" fill="#e5ba8f"/><circle cx="89.72" cy="216.176" r="7.354" fill="#e5ba8f"/><circle cx="77.367" cy="229.706" r="7.354" fill="#e5ba8f"/><circle cx="64.256" cy="243.764" r="7.354" fill="#e5ba8f"/><circle cx="51.654" cy="257.322" r="7.354" fill="#e5ba8f"/><circle cx="38.072" cy="271.304" r="7.354" fill="#e5ba8f"/><circle cx="114.22" cy="188.926" r="7.354" fill="#e5ba8f"/><circle cx="178.888" cy="156.622" r="7.354" fill="#e5ba8f"/><circle cx="229.852" cy="145.072" r="7.354" fill="#e5ba8f"/><path fill="#6ca375" d="M464.36 167.002l-1.55 4.47-2.44-.82s-3.01 9.23-9.28 8.09c-.11-.02-.21-.03-.31-.05l-7.45-1.36-29.11 10.45-14.93 36.58c-13.43 10.45-49.26 17.16-49.26 17.16-5.43 8.63-15.36 15.48-27.72 20.95-7.22 3.22-15.29 5.95-23.75 8.3h-.02c-6.98 1.95-14.25 3.64-21.55 5.09-4.02.82-8.05 1.55-12.05 2.24-7.19 1.22-14.52 1.62-21.61 1.49-10.95-.18-21.35-1.64-29.89-3.33-12.93-2.55-21.65-5.63-21.65-5.63s-1.92-3.98-6.28-8.73c-5.05-5.51-13.38-12-25.81-14.41-9.81-1.89-19.62 1.44-27.65 5.9a82.412 82.412 0 00-5.58 3.43c-15.26 10.3-32.36 17.51-50.26 21.8-34.59 8.3-74.96 14.94-76.21 15.14 20.89-8.22 42.51-31.34 42.51-31.34l73.15-79.86c53-33.59 114.95-40.31 114.95-40.31 40.3 3.73 72.4 21.65 72.4 21.65 11.9 7.37 23.55 18.81 31.66 27.61 5.45 5.95 15.32 2.77 16.39-5.24 2.33-17.22.46-38.05.46-38.05 4.48-14.18 32.85-20.15 32.85-20.15 26.12 7.46 30.6 11.2 30.6 11.2 14.93-3.74 30.6-.75 30.6-.75 6.38 5.01 12.76 12.25 16.76 17.13 2.61 3.18 3.37 7.47 2.03 11.35z"/><path fill="#58935f" d="M414.222 187.784l-13.634 1.778a8.226 8.226 0 01-6.286-1.801l-14.514-11.922a8.23 8.23 0 01-2.907-7.628l3.006-19.241-8.751 20.712a8.228 8.228 0 002.492 9.669l20.778 16.345a8.227 8.227 0 005.171 1.761l10.741-.109 3.904-9.564zM213.44 276.262c-12.928-2.553-21.646-5.628-21.646-5.628s-1.926-3.986-6.285-8.733l7.27-33.364 18.794 22.69 1.867 25.035zm-53.74-28.766c-9.808-1.896-19.616 1.433-27.647 5.896l-3.329-10.002 16.54-23.691 14.436 27.797zm117.289 28.363a385.046 385.046 0 01-12.047 2.239c-7.195 1.224-14.525 1.627-21.616 1.493 11.569-5.24 23.094-20.66 23.094-20.66l10.569 16.928zm45.321-13.391c-7.225 3.224-15.286 5.956-23.75 8.3l5.896-35.738 19.078 6.494s-3.568 12.421-1.224 20.944z"/><path fill="#6ca375" d="M147.011 215.4l-11.196 27.617 14.928 24.631-24.631 47.023 20.899 26.87h37.32l4.478-11.942-26.87-12.689 33.588-29.856s10.45-20.153 9.703-36.574l-15.674-27.617m79.118 32.097s-17.237 29.605-20.153 42.545c0 0 26.87 16.421 35.081 35.827h44.038l3.675-10.792-32.038-12.347 13.435-35.827 1.493-31.349-16.421-13.435"/><path fill="#4d4d4d" d="M406.012 141.88l7.837 4.105-11.196 4.479z"/><path fill="#58935f" d="M460.37 170.653l-21.9-7.832-24.75 9.5-12.75-3 14.5 9 23.25-8.25 18.18 6.486c2.33-2.422 3.469-5.904 3.47-5.904z"/><circle cx="133.97" cy="191.78" r="6" fill="#58935f"/><circle cx="291.635" cy="191.93" r="6" fill="#58935f"/><circle cx="307.47" cy="188.072" r="6" fill="#58935f"/><circle cx="149.624" cy="240.572" r="6" fill="#58935f"/><circle cx="145.47" cy="307.072" r="6" fill="#58935f"/><circle cx="145.47" cy="319.572" r="3" fill="#58935f"/><circle cx="269.47" cy="278.072" r="3" fill="#58935f"/><circle cx="152.624" cy="253.572" r="3" fill="#58935f"/><circle cx="262.77" cy="290.072" r="3" fill="#58935f"/><circle cx="378.591" cy="140.572" r="6" fill="#58935f"/><circle cx="283.97" cy="171.498" r="9.073" fill="#58935f"/><circle cx="145.47" cy="198.323" r="2.25" fill="#58935f"/><circle cx="296.47" cy="178.822" r="2.25" fill="#58935f"/><circle cx="269.97" cy="285.822" r="2.25" fill="#58935f"/><circle cx="136.22" cy="317.072" r="2.25" fill="#58935f"/><circle cx="390.131" cy="145.802" r="2.25" fill="#58935f"/><circle cx="153.817" cy="184.663" r="8.581" fill="#58935f"/></symbol><symbol viewBox="0 0 511.999 511.999" id="si-leaf" xmlns="http://www.w3.org/2000/svg"><path fill="#76cc5b" d="M90.738 421.262c145.944 145.945 485.68-115.381 410.554-410.554C206.118-64.418-55.206 275.318 90.738 421.262z"/><path d="M90.738 374.976c-23.112-23.112-36-51.091-40.166-81.509-6.04 48.061 5.702 93.332 40.166 127.795C226.369 556.893 529.369 340.778 511.216 72.64 494.625 318.485 218.465 502.704 90.738 374.976z" opacity=".2"/><path fill="#599944" d="M399.172 206.679l-64.02-13.466 62.685-62.685c4.519-4.519 4.519-11.846 0-16.365s-11.846-4.519-16.364 0l-62.687 62.687-13.466-64.02c-1.316-6.253-7.449-10.259-13.705-8.941-6.255 1.316-10.257 7.452-8.943 13.705l16.574 78.796-58.589 58.589-13.466-64.02c-1.316-6.255-7.449-10.259-13.705-8.943-6.253 1.316-10.257 7.452-8.941 13.705l16.574 78.796-58.589 58.589-13.466-64.02c-1.316-6.253-7.451-10.257-13.705-8.941-6.255 1.316-10.257 7.452-8.942 13.705l16.574 78.795L3.389 492.247c-4.519 4.519-4.519 11.845 0 16.364 2.259 2.259 5.221 3.388 8.182 3.388s5.923-1.129 8.182-3.388l139.602-139.602 78.796 16.574c.804.17 1.605.25 2.393.25 5.357 0 10.166-3.741 11.312-9.192 1.316-6.253-2.688-12.391-8.943-13.705l-64.02-13.466 58.589-58.589 78.796 16.574c.804.168 1.605.25 2.393.25 5.357 0 10.164-3.741 11.312-9.192 1.316-6.253-2.688-12.389-8.941-13.705l-64.02-13.466 58.589-58.589 78.796 16.575c.804.168 1.605.25 2.393.25 5.357 0 10.166-3.741 11.312-9.192 1.317-6.256-2.685-12.392-8.94-13.707z"/></symbol><symbol viewBox="0 0 489.7 489.7" id="si-list" xmlns="http://www.w3.org/2000/svg"><path d="M52.7 134.75c29.1 0 52.7-23.7 52.7-52.7s-23.6-52.8-52.7-52.8S0 52.95 0 81.95s23.7 52.8 52.7 52.8zm0-81c15.6 0 28.2 12.7 28.2 28.2s-12.7 28.2-28.2 28.2-28.2-12.7-28.2-28.2 12.7-28.2 28.2-28.2zm0 243.8c29.1 0 52.7-23.7 52.7-52.7s-23.6-52.7-52.7-52.7S0 215.75 0 244.85s23.7 52.7 52.7 52.7zm0-80.9c15.6 0 28.2 12.7 28.2 28.2s-12.7 28.2-28.2 28.2-28.2-12.6-28.2-28.2 12.7-28.2 28.2-28.2zm0 243.8c29.1 0 52.7-23.7 52.7-52.7 0-29.1-23.7-52.7-52.7-52.7S0 378.75 0 407.75c0 29 23.7 52.7 52.7 52.7zm0-81c15.6 0 28.2 12.7 28.2 28.2 0 15.6-12.7 28.2-28.2 28.2s-28.2-12.7-28.2-28.2 12.7-28.2 28.2-28.2zm123.2-285.2h301.5c6.8 0 12.3-5.5 12.3-12.3s-5.5-12.3-12.3-12.3H175.9c-6.8 0-12.3 5.5-12.3 12.3s5.5 12.3 12.3 12.3zm0 162.9h301.5c6.8 0 12.3-5.5 12.3-12.3s-5.5-12.3-12.3-12.3H175.9c-6.8 0-12.3 5.5-12.3 12.3s5.5 12.3 12.3 12.3zm0 162.8h301.5c6.8 0 12.3-5.5 12.3-12.3s-5.5-12.3-12.3-12.3H175.9c-6.8 0-12.3 5.5-12.3 12.3s5.5 12.3 12.3 12.3z"/></symbol><symbol viewBox="0 0 33.468 33.468" id="si-map-point" xmlns="http://www.w3.org/2000/svg"><path d="M16.734 0C9.375 0 3.408 5.966 3.408 13.325c0 11.076 13.326 20.143 13.326 20.143S30.06 23.734 30.06 13.324C30.06 5.965 24.093 0 16.734 0zm0 19.676a6.353 6.353 0 116.352-6.351 6.352 6.352 0 01-6.352 6.351z"/></symbol><symbol viewBox="0 0 512 512" id="si-meat" xmlns="http://www.w3.org/2000/svg"><path fill="#ff7b8b" d="M205.092 446.971c65.849-28.698 12.448-104.132 106.191-148.588 83.04-39.38 169.854-51.351 154.558-170.846C450.641 8.789 237.712-55.8 112.145 63.403c-130.813 124.183-57.148 448.982 92.947 383.568z"/><path fill="#ff4755" d="M196.889 416.444c33.35-14.459 18.7-119.444 105.104-149.756 79.755-27.98 143.274-62.545 139.206-127.378-5.53-88.121-198.27-156.208-307.369-49.218-106.424 104.366-55.151 377.605 63.059 326.352z"/><path fill="#994e37" d="M311.283 298.383c-93.743 44.456-40.342 119.889-106.191 148.588-95.658 41.689-160.265-75.114-160.69-197.469l-.009-.003.17 50.859.037-.009c1.507 111.081 59.351 222.377 159.209 210.822 70.512-8.159 66.745-129.744 107.474-154.529 72.909-44.367 156.867-50.635 156.229-147.001l.017-.002.003-51.104c-2.708 90.992-81.025 104.175-156.249 139.848z"/><path fill="#8c4534" d="M302.013 338.103c-53.337 36.57-36.961 146.369-107.474 154.529-55.568 6.43-98.117-25.191-125.197-73.638 26.097 58.669 72.083 99.397 134.467 92.178 70.512-8.16 66.745-129.744 107.474-154.529 72.909-44.367 156.868-50.635 156.229-147l.017-.002.003-51.104c.075 128.448-95.128 131.303-165.519 179.566z"/><ellipse cx="265.313" cy="146.594" fill="#f4e9d3" rx="43.047" ry="28.075"/><path fill="#e5d6be" d="M265.313 156.129c-18.792 0-34.762-7.856-40.634-18.805-1.557 2.903-2.413 6.02-2.413 9.27 0 15.505 19.273 28.075 43.048 28.075 23.774 0 43.047-12.569 43.047-28.075 0-3.25-.856-6.367-2.413-9.27-5.873 10.949-21.843 18.805-40.635 18.805z"/></symbol><symbol viewBox="0 0 459.871 459.871" id="si-ouranosaurus" xmlns="http://www.w3.org/2000/svg"><path fill="#a56f42" d="M271.238 206.214s6.9 26.285 3.114 50.722c0 0 62.036 28.991 59.798 64.046l21.93 5.553 8.719-14.78s-25.514-61.199-54.235-75.85c0 0 8.619-21.84 8.979-34.104"/><path fill="#a56f42" d="M277.906 239.534s-1.873 26.259-12.261 48.226l-24.988 27.345a29.368 29.368 0 01-13.592 8.414c-14.416 4.136-43.965 14.044-46.428 26.363l11.443 35.148h20.435l4.904 17.165h-39.235l-24.522-54.765 38.417-42.504-10.626-20.435s-3.27-34.33 1.635-53.13m82.664-63.986s-8.757-20.763-7.483-43.957c.846-15.399-8.32-29.623-22.652-35.318-17.65-7.014-42.989-13.916-73.306-13.158 0 0-59.997 16.499-91.495 52.497 0 0-20.999 47.998-26.999 89.995l-9.218 83.584 115.713-100.083 115.44-33.56z"/><path fill="#c98c51" d="M459.75 133.497l-.51 5.01-4.5-3.75c-2.24 5.57-11.95 11.74-16.47 14.38-2.18-.42-4.04-.97-5.36-1.41-1.17-.39-2.27-.98-3.21-1.79-20.43-17.75-58.13-5.74-58.53-5.74l-23.52 13.24s-4.03 45.42-31.29 92.28c-5.66 9.73-12.33 19.52-20.16 28.98-.79.95-1.6 1.9-2.41 2.84-.49.59-1 1.18-1.52 1.77-6.61 7.5-13.78 13.13-21.23 17.24-16.29 9.01-33.95 10.77-50.16 9.18-13.87-1.36-26.67-5.18-36.66-9.03-12.72-4.89-20.87-9.83-20.87-9.83s-19.59-14.36-37.53-19.42c-2.73-.78-5.42-1.34-7.99-1.59-19.52-1.97-35.24 23.56-52.09 44.04C48.88 330.387 0 342.717 0 342.717c21.88-13.41 34.6-41.7 34.6-41.7 5.2-31.58 19.75-64.04 33.13-88.77 13.64-25.26 26.08-42.47 26.08-42.47 3.26-3.54 7.07-6.77 11.26-9.71 10.93-7.66 24.42-13.33 37.35-17.46 24.14-7.72 46.33-10.09 46.33-10.09 5.88.45 11.85 1.67 17.73 3.37h.02c30.82 8.93 59.25 31.49 59.25 31.49 13.94-48.71 50.09-97.65 50.09-97.65 6.9-4.41 15.75-7.23 24.53-9.01 18.05-3.67 35.82-2.99 35.82-2.99 25.24 8.53 23.11 36.71 62.3 40.95 9.19.99 11.94 12.43 15.73 16.91 4.2 4.97 6.18 11.43 5.53 17.91z"/><path fill="#b27747" d="M220.877 305.714v.012c-13.867-1.361-26.667-5.174-36.66-9.024l38.094-49.129c.001 0 7.639 36.868-1.434 58.141zm72.916-28.176c-.49.589-1.005 1.177-1.52 1.766-6.608 7.504-13.781 13.131-21.236 17.239-4.353-19.777-17.557-37.396-17.557-37.396l22.486-36.868 17.827 55.259z"/><path fill="#b27747" d="M316.365 245.721c-5.664 9.723-12.334 19.519-20.169 28.972l-13.83-32.565 24.252-16.491 4.622 9.612 5.125 10.472z"/><path fill="#c98c51" d="M275.364 212.978s-3.685 26.925-16.535 48.052c0 0 48.29 54.959 30.733 82.056l18.135 13.524 13.712-10.318s-.149-66.304-21.077-90.832c0 0 16.322-16.879 21.348-28.071"/><path fill="#b27747" d="M371.171 140.192s-24.96 4.216-40.853-5.897l17.337 19.139 23.516-13.242zM128.423 231.36s-12.296 16.317-10.598 34.494l20.365 3.51-9.767-38.004z"/><path fill="#c98c51" d="M223.24 239.534s-1.873 26.259-12.261 48.226l-24.988 27.345a29.368 29.368 0 01-13.592 8.414c-14.416 4.136-43.965 14.044-46.428 26.363l11.443 35.148h20.435l4.904 17.165h-39.235L98.996 347.43l38.417-42.504-10.626-20.435s-3.27-34.33 1.635-53.13l94.818 8.173z"/><path fill="#a56f42" d="M442.19 128.947c6.24 1.99 10.08 4.09 12.55 5.81-.65 1.62-1.94 3.3-3.55 4.93-6.21-3.3-15.58-7.14-35.67-9.41-33.67-3.79-41.23 10.04-54 2.67-12.77-7.37-7.33-21.33-7.33-21.33s3.33 21.33 20 15.33c16.67-6 48.36-4.28 68 2zm16.13 8.8l-3.56-2.97c1.75 1.22 2.81 2.26 3.56 2.97z"/><path fill="#c98c51" d="M458.38 137.797l.86.71c-.25-.16-.52-.4-.86-.71z"/><path fill="#4d4d4d" d="M377.547 76.714l1.803 12.542 15.925-3z"/><path fill="#c98c51" d="M242.19 161.197s-.086-43.408 2.5-54.5l-10 48 7.5 6.5zm-17.5-13.5l2.5-54-13.5 50zm-22.5-6.5l2-55.5-10.5 54.5zm-25 1l10.5-2-3.5-56zm-8.5 1l-5.5-56-5.5 59.5zm-19 5l-7.5-54.5-.5 56.5zm-27-34.5l12 38-8 1.5zm-18 11l16 37.5-8.5 1.5zm-19.5 12l22.5 34.5-10 6.5zm-11 19l23.5 22-6 8.5zm-5.5 16.5l20 19.5-7 7.5zm-9 16l18 18-4 7zm-5.5 20l15 10.5-5 8.5z"/></symbol><symbol viewBox="0 0 459.875 459.875" id="si-parasaurolophus" xmlns="http://www.w3.org/2000/svg"><path fill="#9fa396" d="M274.737 251.664s-1.873 26.259-12.261 48.226l-24.988 27.345a29.368 29.368 0 01-13.592 8.414c-14.416 4.136-43.965 14.044-46.428 26.363l11.443 35.148h20.435l4.904 17.165h-39.235l-24.522-54.765 38.417-42.504-10.626-20.435s-3.27-34.33 1.635-53.13"/><path fill="#ba8e88" d="M376.195 69.858s-72.854-36.011-135.539-20.37c-9.276 2.314-17.184 8.631-20.999 17.397a25.685 25.685 0 00-1.248 3.516c-2.617 9.595 21.781 12.051 28.378 3.682s16.195-22.19 50.188-.703c6.905 4.367 10.38 11.1 11.537 19.066"/><path fill="#d2d8ca" d="M459.753 145.627l-1.149 11.392c-10.826 9.588-26.925 14.541-26.925 14.541-20.144-19.188-60.102-19.237-60.507-19.237l-23.516 13.242s-4.034 45.426-31.29 92.287c-5.665 9.723-12.334 19.519-20.169 28.972-.785.956-1.594 1.9-2.403 2.844-.49.589-1.005 1.177-1.52 1.766-6.608 7.504-13.781 13.131-21.236 17.239-16.282 9.012-33.95 10.777-50.159 9.183-13.867-1.361-26.667-5.174-36.66-9.024-12.715-4.892-20.868-9.833-20.868-9.833s-19.593-14.357-37.531-19.421c-2.734-.785-5.419-1.336-7.994-1.594-19.519-1.962-35.238 23.565-52.084 44.041C48.884 342.513 0 354.847 0 354.847c21.885-13.413 34.6-41.699 34.6-41.699 5.199-31.584 19.752-64.038 33.129-88.768 13.646-25.257 26.079-42.471 26.079-42.471 3.261-3.543 7.075-6.768 11.268-9.711 10.924-7.663 24.411-13.328 37.346-17.459 24.142-7.724 46.334-10.091 46.334-10.091 5.873.454 11.844 1.667 17.729 3.372h.012c30.824 8.926 59.257 31.486 59.257 31.486 13.94-48.712 50.085-97.645 50.085-97.645 6.903-4.414 15.755-7.234 24.534-9.012 18.048-3.666 35.814-2.992 35.814-2.992 25.245 8.534 47.143 26.091 62.31 40.951a248.03 248.03 0 0115.724 16.91 24.002 24.002 0 015.532 17.909z"/><path fill="#c6b1ac" d="M438.496 110.808c-8.509 8.999-31.339 25.601-53.408 25.601-36.206 0-45.782-20.427-45.782-20.427-28.359 12.665-42.472 48.957-47.903 67.079a38.898 38.898 0 01-21.236 24.289c-.294.135-.601.27-.895.405-8.117 3.58-17.202 4.095-25.772 1.827-23.553-6.229-61.942-8.595-61.942-8.595-43.33 13.082-53.138 42.508-53.138 42.508s-5.395 19.348-2.599 36.084c-2.734-.785-5.419-1.336-7.994-1.594-19.519-1.962-35.238 23.565-52.084 44.041C48.884 342.513 0 354.847 0 354.847c21.885-13.413 34.6-41.699 34.6-41.699 10.532-63.842 59.207-131.24 59.207-131.24 27.673-30.076 94.948-37.261 94.948-37.261 36.672 2.869 76.998 34.858 76.998 34.858 13.94-48.712 50.085-97.645 50.085-97.645 21.064-13.487 60.348-12.003 60.348-12.003 25.246 8.533 47.144 26.091 62.31 40.951z"/><path fill="#b3b7ac" d="M220.879 317.844v.012c-13.867-1.361-26.667-5.174-36.66-9.024l38.094-49.129s7.639 36.869-1.434 58.141z"/><path fill="#d2d8ca" d="M223.241 251.664s-1.873 26.259-12.261 48.226l-24.988 27.345a29.368 29.368 0 01-13.592 8.414c-14.416 4.136-43.965 14.044-46.428 26.363l11.443 35.148h20.435l4.904 17.165H123.52L98.998 359.56l38.417-42.504-10.626-20.435s-3.27-34.33 1.635-53.13"/><path fill="#b3b7ac" d="M293.794 289.669c-.49.589-1.005 1.177-1.52 1.766-6.608 7.504-13.781 13.131-21.236 17.239-4.353-19.777-17.557-37.396-17.557-37.396l22.486-36.868 17.827 55.259z"/><path fill="#b3b7ac" d="M316.366 257.852c-5.665 9.723-12.334 19.519-20.169 28.972l-13.83-32.565 24.252-16.491 4.622 9.612 5.125 10.472z"/><path fill="#d2d8ca" d="M277.431 226.684s-3.106 22.69-13.935 40.495c0 0 29.413 37.254 25.9 69.15l15.283 11.397c7.442-5.6 11.562-14.592 10.874-23.88-1.339-18.081-5.309-47.564-17.081-61.361 0 0 13.755-14.224 17.99-23.656"/><path fill="#ba8e88" d="M206.485 148.019c-1.017.13-51.171 6.382-67.867 42.327-1.938 4.173-4.887 7.841-8.836 10.202-3.278 1.959-7.59 3.592-12.727 3.418-9.809-.331 4.071-27.648 25.368-49.227 24.142-7.724 46.334-10.091 46.334-10.091 5.871.453 11.842 1.667 17.728 3.371zM88.129 224.917c.157 2.501-.121 5.017-1.073 7.335-1.753 4.268-5.644 9.711-14.031 9.183-4.782-.307-5.885-7.638-5.297-17.055 13.646-25.257 26.079-42.471 26.079-42.471 3.261-3.543 7.075-6.768 11.268-9.711-7.26 14.428-17.856 38.24-16.946 52.719z"/><path fill="#b3b7ac" d="M371.172 152.323s-24.96 4.216-40.853-5.897l17.337 19.139 23.516-13.242z"/><path fill="#ba8e88" d="M459.753 145.627l-1.149 11.392c-19.458-43.354-118.231-84.158-118.231-84.158v-.012c18.048-3.666 35.814-2.992 35.814-2.992 25.245 8.534 47.143 26.091 62.31 40.951a248.03 248.03 0 0115.724 16.91 24.002 24.002 0 015.532 17.909z"/><circle cx="391.134" cy="110.293" r="7.356" fill="#666"/><path fill="#b3b7ac" d="M458.604 157.019l-18.755-8.346-28.609 1.635-17.982-7.356 17.982 12.669 27.894-2.759 13.547 8.672z"/></symbol><symbol viewBox="0 0 468.647 468.647" id="si-plateosaurus" xmlns="http://www.w3.org/2000/svg"><path fill="#6bd65f" d="M468.647 162.332l-11.072 3.109-1.38 6.921c-13.147 5.531-60.532 8.989-60.532 8.989s-24.831 24.436-52.857 46.185c-6.402 4.96-12.97 9.785-19.446 14.143a237.263 237.263 0 01-7.243 4.701 103.584 103.584 0 01-7.824 4.4c-5.717 2.926-11.85 5.479-18.138 7.72-7.792 2.771-15.834 5.053-23.596 6.921-11.237 2.698-21.915 4.534-30.496 5.759-3.352.467-6.371.851-8.996 1.152-6.568.768-10.563 1.027-10.563 1.027-7.222 0-14.423-.135-21.479-.374-21.396-.716-41.558-2.376-57.703-4.057a193.505 193.505 0 00-73.631 6.579c-2.345.674-4.711 1.359-7.077 2.023v.01a3528.123 3528.123 0 01-15.959 4.534l-1.307.374A5773.519 5773.519 0 010 293.407c12.223-8.664 25.349-17.598 38.486-26.315a881.303 881.303 0 003.186-2.117 3011.395 3011.395 0 0116.104-10.542h.01c1.048-.674 2.086-1.349 3.123-2.023a2462.192 2462.192 0 0118.107-11.601c1.297-.83 2.584-1.65 3.86-2.449a3704.287 3704.287 0 0124.685-15.482 1621.33 1621.33 0 015.624-3.476 3155.447 3155.447 0 0121.147-12.95c3.341-2.013 5.416-3.258 5.935-3.57a229 229 0 0120.919-11.591c1.38-.674 2.74-1.328 4.088-1.951h.01a224.2 224.2 0 0118.501-7.606c1.079-.384 2.137-.757 3.185-1.11 9.328-3.206 17.629-5.354 24.405-6.797 1.401-.301 2.74-.571 4.005-.809 9.38-1.774 14.952-2.044 14.952-2.044 2.241.083 4.483.197 6.724.353 1.1.062 2.19.145 3.289.239 6.392.519 12.753 1.287 18.875 2.2 1.141.176 2.283.353 3.404.529 8.27 1.339 16.031 2.905 22.838 4.431.944.218 1.878.436 2.781.633 10.117 2.366 17.754 4.555 21.126 5.562.986.291 1.598.488 1.816.55.052.021.083.031.083.031 6.817-1.982 13.707-4.337 20.566-6.931.965-.353 1.93-.726 2.885-1.1a390.282 390.282 0 0020.981-8.882c1.069-.477 2.117-.955 3.165-1.453a515.695 515.695 0 0020.13-9.878c.986-.508 1.961-1.017 2.916-1.515a651.173 651.173 0 0024.945-13.811l3.009-1.774a567.212 567.212 0 006.998-4.2 30.117 30.117 0 0121.67-3.818c13.031 2.645 22.851 6.327 22.851 6.327 4.153 6.226 7.263 23.865 7.263 23.865z"/><path fill="#5eb252" d="M238.636 262.288l-11.57 10.044c-6.568.768-10.563 1.027-10.563 1.027-7.222 0-14.423-.135-21.479-.374l11.788-14.849-19.456-39.327 51.28 43.479zm27.944 3.113l-.021.021c-11.237 2.698-21.915 4.534-30.496 5.759l12.088-29.905 18.429 24.125zm41.713-14.62c-5.717 2.926-11.85 5.479-18.138 7.72l17.661-21.801.477 14.081zm34.512-23.243c-6.402 4.96-12.97 9.785-19.446 14.143l-2.407-2.221-.508-23.419s10.999-3.217 22.351 11.487l.01.01z"/><path fill="#6bd65f" d="M329.26 268.522c1.34 17.44-13.59 30.33-14.49 31.08 6.88-8.31 6.88-23.48 6.88-23.48-2.05 7.49-17.5 21.69-17.98 22.13 8.29-14.52 9.68-24.2 9.68-24.2l-18.68 2.77c0-11.76 13.14-40.13 13.14-40.13l-3.46-21.44s22.83-4.84 30.44 13.83c4.4 10.8-3.46 21.6-10.87 28.79-4.87 4.73-9.55 7.9-10.42 8.48l-.15.09 15.91 2.08zm-108.082-7.461c-1.353 1.837-32.017 44.084-32.017 44.084l8.117 31.961h25.509l2.706-5.143-16.04-3.306-4.96-21.675 50.054-42.615-10.372-37.472-19.841-10.654-36.977 2.572 33.821 42.248z"/><path fill="#54ad47" d="M60.909 252.41c-.166.56-.342 1.11-.508 1.66-.457 1.733-.955 3.445-1.349 5.105-.363 1.671-.768 3.289-1.048 4.835-.27 1.546-.508 3.019-.737 4.368a339.14 339.14 0 00-.405 3.736c-.156 1.11-.104 2.086-.166 2.895a255.054 255.054 0 00-.083 2.522c-.01-.125-.073-1.027-.177-2.522-.031-.809-.187-1.785-.156-2.916.01-1.131.01-2.407.01-3.798.083-1.39.176-2.895.28-4.483.114-1.598.353-3.258.54-5.001.187-1.422.436-2.885.664-4.379h.01c1.05-.673 2.088-1.348 3.125-2.022zm21.967-14.05c-.156.467-.311.923-.478 1.38-.56 1.733-1.09 3.486-1.619 5.209-.446 1.733-.944 3.435-1.349 5.105-.353 1.67-.757 3.279-1.048 4.825-.259 1.556-.508 3.02-.737 4.379-.145 1.359-.28 2.615-.405 3.725-.156 1.121-.104 2.096-.156 2.895l-.083 2.532s-.073-.913-.187-2.532c-.031-.799-.187-1.785-.145-2.916 0-1.121.01-2.397.01-3.787.083-1.39.177-2.895.27-4.493.125-1.588.363-3.258.55-4.991.228-1.733.54-3.507.82-5.323.228-1.173.446-2.366.695-3.559 1.299-.83 2.586-1.65 3.862-2.449zm30.31-18.957c-.27.643-.54 1.297-.799 1.971-.654 1.588-1.266 3.238-1.899 4.929-.643 1.671-1.193 3.414-1.795 5.136-.571 1.733-1.09 3.486-1.619 5.209-.456 1.733-.955 3.435-1.349 5.105-.363 1.67-.768 3.279-1.048 4.825-.27 1.556-.508 3.02-.737 4.379a314.555 314.555 0 00-.405 3.725c-.156 1.121-.104 2.096-.166 2.895l-.083 2.532s-.062-.913-.176-2.532c-.031-.799-.187-1.785-.156-2.916.01-1.121.01-2.397.01-3.787.093-1.39.176-2.895.28-4.493.125-1.588.353-3.258.54-4.991.228-1.733.54-3.507.82-5.323.353-1.795.695-3.621 1.079-5.448.436-1.805.799-3.642 1.276-5.406.197-.789.405-1.567.602-2.335a1783.61 1783.61 0 015.625-3.475zm27.082-16.52a147.63 147.63 0 00-1.598 3.86c-.654 1.587-1.266 3.237-1.888 4.929-.654 1.67-1.193 3.414-1.805 5.136-.571 1.733-1.09 3.486-1.619 5.209-.456 1.733-.944 3.435-1.349 5.105-.363 1.671-.768 3.279-1.048 4.825-.259 1.556-.508 3.02-.737 4.379-.145 1.359-.28 2.615-.405 3.725-.156 1.121-.104 2.096-.156 2.895-.062 1.608-.093 2.532-.093 2.532s-.062-.913-.177-2.532c-.031-.799-.187-1.785-.145-2.916 0-1.121 0-2.397.01-3.787.083-1.39.176-2.895.27-4.493.124-1.587.353-3.258.54-4.991.228-1.733.55-3.507.82-5.323.353-1.795.695-3.621 1.09-5.448.426-1.805.799-3.642 1.276-5.406.353-1.401.706-2.781 1.079-4.13 3.341-2.012 5.416-3.257 5.935-3.569zm25.007-13.541c-.467 1.307-.892 2.625-1.359 3.943-.56 1.743-1.09 3.486-1.619 5.209-.457 1.733-.944 3.435-1.349 5.105-.363 1.671-.768 3.279-1.048 4.825-.259 1.556-.509 3.02-.737 4.379a576.06 576.06 0 01-.405 3.735c-.156 1.11-.104 2.086-.156 2.885l-.083 2.542s-.073-.924-.187-2.532c-.031-.809-.187-1.795-.145-2.916 0-1.131 0-2.407.01-3.798.083-1.391.176-2.895.27-4.483.124-1.598.363-3.258.55-5.001.218-1.722.54-3.497.809-5.313.353-1.795.695-3.632 1.09-5.448.093-.394.187-.789.27-1.183 1.381-.673 2.74-1.326 4.089-1.949zm21.697-8.716c-.363 1.121-.695 2.231-1.038 3.341-.456 1.733-.955 3.435-1.349 5.105-.363 1.671-.768 3.279-1.048 4.825-.27 1.556-.508 3.02-.737 4.379a341.8 341.8 0 00-.405 3.735c-.156 1.11-.104 2.086-.166 2.885l-.083 2.542s-.062-.924-.176-2.532c-.031-.809-.187-1.795-.156-2.916.01-1.131.01-2.407.01-3.798.093-1.391.176-2.895.28-4.483.125-1.598.353-3.258.54-5.001.228-1.722.54-3.497.82-5.313.104-.55.218-1.1.322-1.66 1.08-.383 2.138-.756 3.186-1.109zm124.216 4.846c-.301 1.349-.612 2.656-.841 3.912-.27 1.546-.508 3.019-.737 4.368-.156 1.37-.29 2.625-.405 3.735-.156 1.11-.104 2.086-.166 2.895l-.083 2.532s-.062-.924-.176-2.532c-.031-.809-.187-1.795-.156-2.916.01-1.131.01-2.407.01-3.798.083-1.39.176-2.895.28-4.483.093-1.37.291-2.791.457-4.265.987.292 1.599.49 1.817.552zm23.534-8l-.311 1.027c-.457 1.743-.955 3.445-1.349 5.105-.363 1.671-.768 3.289-1.048 4.835-.27 1.546-.508 3.02-.737 4.369a341.8 341.8 0 00-.405 3.735c-.166 1.11-.104 2.086-.166 2.895l-.083 2.532s-.062-.923-.176-2.532c-.031-.799-.187-1.785-.156-2.916.01-1.131.01-2.407.01-3.798.083-1.38.176-2.895.28-4.483.114-1.598.353-3.258.54-4.991.197-1.525.467-3.092.716-4.68a131.7 131.7 0 002.885-1.098zm24.146-10.335c-.28.903-.55 1.805-.83 2.698-.457 1.733-.944 3.445-1.349 5.105-.363 1.671-.768 3.289-1.048 4.836a2045.47 2045.47 0 01-.737 4.368 576.06 576.06 0 01-.405 3.735c-.156 1.11-.104 2.086-.156 2.895l-.083 2.532s-.073-.924-.187-2.532c-.031-.809-.187-1.795-.145-2.916 0-1.131 0-2.407.011-3.798.083-1.39.176-2.895.27-4.483.125-1.598.363-3.258.55-5.001.218-1.723.54-3.497.82-5.313.042-.218.083-.446.125-.674a147.29 147.29 0 003.164-1.452zm23.046-11.394c-.083.259-.156.519-.239.778-.457 1.733-.955 3.435-1.349 5.105-.363 1.67-.768 3.279-1.048 4.825-.27 1.556-.508 3.02-.737 4.379-.145 1.37-.291 2.615-.405 3.725-.156 1.121-.104 2.096-.166 2.895-.052 1.619-.083 2.532-.083 2.532s-.062-.913-.176-2.522c-.031-.809-.187-1.795-.156-2.916.011-1.131.011-2.407.011-3.798.093-1.39.176-2.895.28-4.493.125-1.588.353-3.258.54-4.991.177-1.318.394-2.646.612-4.005.986-.507 1.961-1.016 2.916-1.514zm27.954-15.585c-.125.394-.239.778-.363 1.173-.457 1.733-.944 3.435-1.349 5.105-.353 1.671-.757 3.279-1.048 4.825-.259 1.556-.508 3.02-.737 4.379-.145 1.359-.28 2.615-.405 3.725-.156 1.121-.104 2.096-.156 2.895l-.083 2.532s-.073-.913-.187-2.532c-.031-.799-.187-1.785-.145-2.916 0-1.121.01-2.397.01-3.787.083-1.39.177-2.895.27-4.493.125-1.588.363-3.258.55-4.991.176-1.359.405-2.739.633-4.14 1.038-.613 2.045-1.204 3.01-1.775zM215.383 173.02c-.01.021-.01.041-.021.062-.654 1.681-1.193 3.414-1.805 5.147-.56 1.733-1.09 3.476-1.619 5.198-.446 1.733-.944 3.445-1.349 5.105-.353 1.671-.757 3.289-1.048 4.835-.259 1.546-.508 3.02-.737 4.369a576.06 576.06 0 01-.405 3.735c-.156 1.11-.104 2.086-.156 2.895l-.083 2.532s-.072-.923-.187-2.532c-.031-.809-.187-1.785-.145-2.916 0-1.131.01-2.407.01-3.798.083-1.391.176-2.895.27-4.483.124-1.598.363-3.258.55-5.001.229-1.722.54-3.497.82-5.313.342-1.795.685-3.632 1.079-5.448.28-1.193.54-2.387.82-3.58 1.402-.298 2.74-.568 4.006-.807zm24.416 26.948c.207 1.287.332 2.137.373 2.407-.073-.259-.291-1.089-.633-2.355-.177-.789-.519-1.723-.695-2.833-.207-1.11-.446-2.366-.706-3.735-.176-1.38-.374-2.874-.571-4.452-.187-1.588-.27-3.268-.415-5.012-.104-1.743-.125-3.538-.197-5.375.011-1.826 0-3.694.042-5.562a991.5 991.5 0 00.062-1.723c1.1.062 2.19.145 3.289.239l-.249 1.723c-.228 1.816-.415 3.632-.612 5.416-.125 1.795-.28 3.559-.363 5.271-.042 1.712-.135 3.372-.124 4.939.042 1.577.072 3.061.104 4.431l.311 3.746c.052 1.121.29 2.076.384 2.875zm25.878 5.655c-.073-.187-.394-1.006-.892-2.324-.27-.768-.706-1.66-.996-2.75a591.559 591.559 0 00-1.09-3.642c-.322-1.349-.674-2.822-1.038-4.369-.343-1.556-.602-3.227-.934-4.939-.28-1.723-.498-3.507-.757-5.323-.187-1.826-.384-3.673-.54-5.531-.062-.996-.145-1.992-.207-2.978 1.141.176 2.283.353 3.404.529l-.093 2.355c-.031 1.826-.031 3.653-.031 5.458.062 1.785.083 3.559.187 5.271.145 1.702.218 3.362.394 4.929.207 1.556.394 3.04.571 4.4.249 1.349.488 2.594.695 3.684.166 1.11.508 2.034.685 2.822.362 1.36.59 2.221.642 2.408zm25.734-1.225c-.072-.187-.394-1.006-.892-2.324-.27-.768-.706-1.66-.996-2.75-.322-1.079-.685-2.304-1.09-3.632-.322-1.359-.664-2.822-1.038-4.379-.342-1.556-.602-3.217-.934-4.939-.28-1.712-.498-3.507-.758-5.323-.083-.768-.156-1.546-.239-2.324.944.218 1.878.436 2.781.633-.01.508-.01 1.017-.01 1.525.062 1.795.083 3.57.187 5.271.145 1.712.218 3.372.394 4.929.208 1.567.394 3.04.571 4.4.249 1.349.488 2.594.695 3.694.176 1.11.508 2.023.685 2.812.364 1.359.592 2.221.644 2.407zM40.655 282.076l-.031-.913c-.021-1.567.062-3.227.083-4.939.073-1.712.218-3.476.322-5.271.187-1.795.353-3.611.571-5.416.031-.187.052-.374.073-.56a801.185 801.185 0 01-3.186 2.117c0 1.266.01 2.532.01 3.787.083 1.826.125 3.632.239 5.365.156 1.743.259 3.424.446 5.012.052.405.114.809.166 1.193l1.307-.375z"/><path fill="#5eb252" d="M457.575 165.442l-17.982 3.462-15.911-1.383-5.88 4.842 13.144-2.075 12.451 1.383 13.634-3.499z"/><path fill="#666" d="M430.297 140.058s-.814 2.016-.514 4.006c0 0 5.237 1.893 9.81.628l1.791-2.481s-1.878-2.94-5.446-3.591c0 .001-3.724-.121-5.641 1.438z"/><path fill="#5eb252" d="M323.92 257.872c-4.87 4.73-9.55 7.9-10.42 8.48l-.15.09-8.27-1.33 18.84-7.24zm-114.467 70.785l-6.036-1.208 4.183-6.89z"/></symbol><symbol viewBox="0 0 473.466 473.466" id="si-puertasaurus" xmlns="http://www.w3.org/2000/svg"><path d="M0 334.671s109.734-18.106 136.07-14.814c0 0 1.064 4.796 6.847 8.943 4.181 2.985 10.853 5.641 21.376 5.86.461.011.933.011 1.405.011 20.016 0 57.775 5.07 87.754 3.654 5.794-.274 11.303-.79 16.329-1.646 3.182-.527 6.189-1.185 8.943-2.008 0 0 2.743-.055 7.166-.68 6.891-.966 17.865-3.281 28.937-8.833 12.356-6.2 24.833-16.427 31.933-33.283l21.727-16.899a55.138 55.138 0 0019.609-30.045c10.568-41.94 28.421-110.129 38.769-124.241 0 0 7.133-22.496 19.752-31.274l14.265 1.097 5.487-4.938 2.215.246a3.693 3.693 0 003.803-2.216l.777-1.814c.778-1.815-.003-3.928-1.785-4.779-4.781-2.283-13.568-7.14-17.081-13.385 0 0-.011 0-.022.011-.7.115-14.554 2.657-24.486 8.305a16.456 16.456 0 00-5.947 5.814c-7.329 12.139-33.509 56.585-41.969 85.728 0 0-20.85 76.814-87.787 73.522 0 0-57.062-10.973-104.248-6.584 0 0-48.283 14.265-85.593 40.602 0 0-32.821 28.125-78.01 51.421-8.36 4.313-17.15 8.45-26.236 12.225z" fill="#dd8d6b"/><path d="M26.237 322.446c54.867-7.133 118.568-74.487 178.417-76.112 34.621-.944 91.628 17.74 138.814-7.133 33.268-17.537 55.769-99.909 72.79-129.486 22.313-38.773 37.152-45.737 38.019-46.077-.7.115-14.559 2.658-24.49 8.308a16.449 16.449 0 00-5.94 5.807c-7.325 12.133-33.51 56.586-41.972 85.732 0 0-19.315 71.161-80.45 73.563-4.02.158-8.041-.198-12.007-.871-14.554-2.473-60.46-9.392-99.578-5.753 0 0-48.283 14.265-85.593 40.602.001-.001-32.821 28.124-78.01 51.42zM314.827 325.157c-1.756-6.782 5.048-18.468 5.048-18.468l-20.85-20.849-13.135 48.151c6.892-.966 17.865-3.282 28.937-8.834zM246.353 326.441l7.1 11.873v.011c5.794-.274 11.303-.79 16.329-1.646l-4.225-35.477-7.681-3.841-11.523 29.08zM198.07 294.618s5.027 31.018 11.566 42.668l-18.167-1.296 6.601-41.372zM142.918 328.8c4.181 2.985 10.853 5.641 21.376 5.86l-14.507-37.299s-1.657 27.752-6.858 31.428l-.011.011z" fill="#bf7156"/><path d="M257.876 297.361l-3.841 24.142 10.973 12.619 4.389 47.734 2.195 27.982h34.566l-3.841-15.363-6.035-4.938s-1.646-31.274 1.097-46.088 15.363-34.566 15.363-34.566l-13.717-23.044-41.149 11.522zM149.787 297.361c0 32.372 10.425 52.124 10.425 52.124-9.327 4.389-14.814 38.407-14.814 38.407l-4.389 20.301h43.894l-6.584-14.265h-6.035s7.681-18.655 12.619-29.628c4.938-10.973 13.717-15.363 13.717-15.363l3.292-15.363-3.841-38.956-48.284 2.743z" fill="#dd8d6b"/><path fill="#bf7156" d="M446.618 89.415l14.266 1.097 5.487-4.938-15.001-1.833z"/><path fill="#4d4d4d" d="M456.129 71.674l-3.292-3.292-4.024 4.39z"/></symbol><symbol viewBox="0 0 512 512" id="si-reddit" xmlns="http://www.w3.org/2000/svg"><circle cx="256" cy="256" r="256" fill="#fe5022"/><path d="M256 0c-11.317 0-22.461.744-33.391 2.167C348.216 18.53 445.217 125.933 445.217 256s-97.002 237.47-222.609 253.833A258.556 258.556 0 00256 512c141.385 0 256-114.616 256-256S397.385 0 256 0z" fill="#ff3501"/><g fill="#ece5dd"><path d="M322.783 122.991c-18.719 0-33.948-15.229-33.948-33.948s15.229-33.948 33.948-33.948 33.948 15.229 33.948 33.948-15.229 33.948-33.948 33.948zM256 456.904c-96.049 0-174.191-65.16-174.191-145.252S159.951 166.4 256 166.4s174.191 65.16 174.191 145.252S352.049 456.904 256 456.904z"/><path d="M424.432 278.477c-7.866-27.651-25.328-52.607-50.498-72.169l-8.19-6.365 7.533-7.131c10.409-9.854 24.099-15.281 38.548-15.281 30.994 0 56.209 25.215 56.209 56.209 0 21.051-12.183 40.777-31.038 50.256l-9.618 4.836-2.946-10.355zm-349.43 5.518c-18.854-9.48-31.037-29.206-31.037-50.256 0-30.994 25.215-56.209 56.209-56.209 14.453 0 28.144 5.426 38.55 15.28l7.532 7.131-8.19 6.364c-25.17 19.562-42.633 44.518-50.499 72.17l-2.946 10.355-9.619-4.835z"/></g><path d="M178.087 312.209c-18.719 0-33.948-15.229-33.948-33.948s15.229-33.948 33.948-33.948 33.948 15.229 33.948 33.948-15.229 33.948-33.948 33.948zm155.826 0c-18.719 0-33.948-15.229-33.948-33.948s15.229-33.948 33.948-33.948 33.948 15.229 33.948 33.948-15.229 33.948-33.948 33.948zm8.881 58.577c-22.714 18.928-53.539 29.353-86.794 29.353s-64.08-10.425-86.794-29.353a8.349 8.349 0 00-10.688 12.826c25.709 21.425 60.328 33.223 97.483 33.223s71.774-11.798 97.483-33.222a8.35 8.35 0 00-10.69-12.827z" fill="#fe5022"/><path d="M264.348 178.087v-71.896l18.201-6.067c4.867 17.653 21.055 30.659 40.234 30.659 23.016 0 41.739-18.724 41.739-41.739s-18.724-41.739-41.739-41.739c-20.919 0-38.289 15.469-41.281 35.57l-28.142 9.381a8.347 8.347 0 00-5.708 7.919v77.913h16.696zM322.783 64c13.81 0 25.043 11.234 25.043 25.043s-11.234 25.043-25.043 25.043-25.043-11.234-25.043-25.043S308.973 64 322.783 64z" fill="#ece5dd"/></symbol><symbol viewBox="0 0 56.966 56.966" id="si-search" xmlns="http://www.w3.org/2000/svg"><path d="M55.146 51.887L41.588 37.786A22.926 22.926 0 0046.984 23c0-12.682-10.318-23-23-23s-23 10.318-23 23 10.318 23 23 23c4.761 0 9.298-1.436 13.177-4.162l13.661 14.208c.571.593 1.339.92 2.162.92.779 0 1.518-.297 2.079-.837a3.004 3.004 0 00.083-4.242zM23.984 6c9.374 0 17 7.626 17 17s-7.626 17-17 17-17-7.626-17-17 7.626-17 17-17z"/></symbol><symbol viewBox="0 0 268.765 268.765" id="si-settings-work-tool" xmlns="http://www.w3.org/2000/svg"><path d="M267.92 119.461c-.425-3.778-4.83-6.617-8.639-6.617-12.315 0-23.243-7.231-27.826-18.414-4.682-11.454-1.663-24.812 7.515-33.231a7.463 7.463 0 00.817-10.133 132.977 132.977 0 00-21.289-21.5c-3.063-2.458-7.557-2.116-10.213.825-8.01 8.871-22.398 12.168-33.516 7.529-11.57-4.867-18.866-16.591-18.152-29.176a7.455 7.455 0 00-6.595-7.849 134.163 134.163 0 00-30.232-.08 7.478 7.478 0 00-6.654 7.689c.438 12.461-6.946 23.98-18.401 28.672-10.985 4.487-25.272 1.218-33.266-7.574-2.642-2.896-7.063-3.252-10.141-.853a133.478 133.478 0 00-21.74 21.493c-2.481 3.086-2.116 7.559.802 10.214 9.353 8.47 12.373 21.944 7.514 33.53-4.639 11.046-16.109 18.165-29.24 18.165-4.261-.137-7.296 2.723-7.762 6.597a134.618 134.618 0 00-.058 30.561c.422 3.794 4.961 6.608 8.812 6.608 11.702-.299 22.937 6.946 27.65 18.415 4.698 11.454 1.678 24.804-7.514 33.23a7.469 7.469 0 00-.817 10.126 133.459 133.459 0 0021.259 21.508c3.079 2.481 7.559 2.131 10.228-.81 8.04-8.893 22.427-12.184 33.501-7.536 11.599 4.852 18.895 16.575 18.181 29.167a7.464 7.464 0 006.595 7.85 133.572 133.572 0 0030.233.081 7.479 7.479 0 006.653-7.696c-.451-12.454 6.946-23.973 18.386-28.657 11.059-4.517 25.286-1.211 33.281 7.572a7.51 7.51 0 0010.142.848 133.787 133.787 0 0021.74-21.494 7.461 7.461 0 00-.803-10.213c-9.353-8.47-12.388-21.946-7.529-33.524 4.568-10.899 15.612-18.217 27.491-18.217l1.662.043c3.853.313 7.398-2.655 7.865-6.588a134.504 134.504 0 00.06-30.561zm-133.325 60.03c-24.718 0-44.824-20.106-44.824-44.824 0-24.717 20.106-44.824 44.824-44.824 24.717 0 44.823 20.107 44.823 44.824 0 24.718-20.106 44.824-44.823 44.824z" fill-rule="evenodd" clip-rule="evenodd"/></symbol><symbol viewBox="0 0 512 512" id="si-share" xmlns="http://www.w3.org/2000/svg"><path d="M453.332 85.332c0 38.293-31.039 69.336-69.332 69.336s-69.332-31.043-69.332-69.336C314.668 47.043 345.707 16 384 16s69.332 31.043 69.332 69.332zm0 0"/><path d="M384 170.668c-47.063 0-85.332-38.273-85.332-85.336C298.668 38.273 336.938 0 384 0s85.332 38.273 85.332 85.332c0 47.063-38.27 85.336-85.332 85.336zM384 32c-29.418 0-53.332 23.938-53.332 53.332 0 29.398 23.914 53.336 53.332 53.336s53.332-23.938 53.332-53.336C437.332 55.938 413.418 32 384 32zm69.332 394.668C453.332 464.957 422.293 496 384 496s-69.332-31.043-69.332-69.332c0-38.293 31.039-69.336 69.332-69.336s69.332 31.043 69.332 69.336zm0 0"/><path d="M384 512c-47.063 0-85.332-38.273-85.332-85.332 0-47.063 38.27-85.336 85.332-85.336s85.332 38.273 85.332 85.336c0 47.059-38.27 85.332-85.332 85.332zm0-138.668c-29.418 0-53.332 23.938-53.332 53.336C330.668 456.063 354.582 480 384 480s53.332-23.938 53.332-53.332c0-29.398-23.914-53.336-53.332-53.336zM154.668 256c0 38.293-31.043 69.332-69.336 69.332C47.043 325.332 16 294.293 16 256s31.043-69.332 69.332-69.332c38.293 0 69.336 31.039 69.336 69.332zm0 0"/><path d="M85.332 341.332C38.273 341.332 0 303.062 0 256s38.273-85.332 85.332-85.332c47.063 0 85.336 38.27 85.336 85.332s-38.273 85.332-85.336 85.332zm0-138.664C55.914 202.668 32 226.602 32 256s23.914 53.332 53.332 53.332c29.422 0 53.336-23.934 53.336-53.332s-23.914-53.332-53.336-53.332zm0 0"/><path d="M135.703 245.762c-7.426 0-14.637-3.864-18.562-10.774-5.825-10.218-2.239-23.254 7.98-29.101l197.95-112.852c10.218-5.867 23.253-2.281 29.1 7.977 5.825 10.218 2.24 23.254-7.98 29.101L146.238 242.965a21.195 21.195 0 01-10.535 2.797zm197.93 176c-3.586 0-7.211-.899-10.54-2.797L125.142 306.113c-10.22-5.824-13.801-18.86-7.977-29.101 5.8-10.239 18.856-13.844 29.098-7.977l197.953 112.852c10.219 5.824 13.8 18.86 7.976 29.101-3.945 6.91-11.156 10.774-18.558 10.774zm0 0"/></symbol><symbol viewBox="0 0 461.937 461.937" id="si-spinosaurus" xmlns="http://www.w3.org/2000/svg"><path d="M225.322 228.671s-1.089 37.79-9.641 53.976c0 0-33.073 16.262-61.676 22.22l4.111 29.332 14.169 6.147-1.553 17.692-34.778-15.087-13.809-45.784 45.319-33.907-17.209-27.362 8.306-43.842 66.761 36.615z" fill="#486d4d"/><path d="M301.874 162.52c-7.02-25.975-30.889-53.354-30.889-53.354-19.657-10.53-52.652-14.743-52.652-14.743-20.359 5.616-67.395 27.379-67.395 27.379-21.061 23.167-42.546 71.478-42.546 71.478l10.252 24.701 176.912-28.783 6.318-26.678z" fill="#618466"/><path d="M116.049 193.416c4.729-10.199 22.181-46.563 39.147-65.844 7.511-3.44 45.333-20.606 63.635-25.99 6.177.899 31.53 4.964 47.685 13.171 4.042 4.848 21.829 26.963 28.105 47.929l-4.817 20.338-166.806 27.14-6.949-16.744z" fill="#486d4d"/><path d="M461.937 166.592l-12.637.14-5.616 19.657c-19.657 7.02-108.113 5.616-108.113 5.616-7.133 7.133-12.861 15.417-17.326 23.378-9.646 17.102-13.563 32.785-13.563 32.785-2.921 1.586-6.066 3.019-9.393 4.311h-.014c-5.953 2.345-12.44 4.24-19.138 5.785h-.014c-5.04 1.18-10.179 2.148-15.276 2.935l-.028.014c-8.073 1.264-16.007 2.12-23.237 2.696-17.775 1.404-31.184 1.109-31.184 1.109l-21.258-12.51h-.014l-26.467-15.571-7.596 1.896-48.567 12.145C61.779 259.401 0 255.189 0 255.189c22.465-2.808 68.799-37.91 68.799-37.91 56.163-40.718 137.598-61.779 137.598-61.779 54.759-1.404 95.476 7.02 95.476 7.02 7.02-16.849 36.506-39.314 36.506-39.314 38.109-1.03 83.773 9.273 105.401 14.837a21.087 21.087 0 0115.315 15.835l2.842 12.714z" fill="#618466"/><path fill="#486d4d" d="M449.301 166.733h-61.779l-6.319 7.02-5.616-9.829-8.424 9.829-7.723-7.722h-10.53l8.892 2.34 9.361 13.338 7.722-9.36 6.318 9.594 10.531-10.53h56.321z"/><path fill="#618466" d="M134.79 194.814l20.359-61.779-4.914 52.652zM183.23 120.399l-14.04 59.672 16.146-4.914zM216.928 107.06l-11.233 70.203 16.849-4.212zM248.519 126.015l-11.934 42.824h17.551zM272.388 131.631l4.915 42.122 14.742-4.914z"/><path fill="#486d4d" d="M185.14 252.507h-.014l-26.467-15.571-7.596 1.895 9-18.744zM260.847 261.198l-.028.014c-8.073 1.264-16.007 2.12-23.237 2.696l-1.699-36.8 24.964 34.09zM299.066 230.618l-3.777 21.861h-.014c-5.953 2.345-12.44 4.24-19.138 5.785h-.014l-5.841-15.711 21.3-37.39 7.484 25.455zM318.245 215.383c-9.646 17.102-13.563 32.785-13.563 32.785l-2.808-35.102 11.935-.702 4.436 3.019z"/><path d="M235.883 227.107s14.041 35.102 12.637 53.354c0 0-23.869 28.081-47.738 44.93l15.445 25.273h15.445l5.616 16.849h-37.91l-30.889-36.506 28.081-49.142-26.677-18.253-9.828-43.526 75.818 7.021zM293.449 199.026s-8.424 28.783-15.445 42.122l29.485 37.208-8.424 23.869s19.657-9.126 28.783-26.677c0 0-11.233-16.147-23.167-27.379l9.126-35.804-20.358-13.339z" fill="#618466"/><path d="M363.87 131.999s7.263.348 13.022 6.054l-1.893 3.831s-8.406.422-13.761-.7c0-.001-1.181-7.257 2.632-9.185z" fill="#4d4d4d"/><path fill="#486d4d" d="M216.226 350.665h-15.419l8.146-11.901z"/></symbol><symbol viewBox="0 0 467.26 467.26" id="si-stegosaurus" xmlns="http://www.w3.org/2000/svg"><path d="M188.202 343.884l-9.688 10.569 5.578 4.404 2.894 14.092h-56.913s-5.285-22.9 3.523-35.23l-10.569-30.827s9.688-20.257 34.35-24.661c0 0 27.304 3.523 36.111 14.973l-5.286 46.68zm146.206-42.863l1.466 30.496a40.316 40.316 0 01-5.855 22.936l6.738 4.404 2.894 14.092h-41.879s-6.814-29.652-1.53-67.818l38.166-4.11z" fill="#3b9352"/><path d="M53.983 338.914s-18-.667-29.333-21.333c0 0 19.827 12.698 38.58 11.349l-9.247 9.984zm-12.937 16.667s-18-.667-29.333-21.333c0 0 19.827 12.698 38.58 11.349l-9.247 9.984zm159.017-190.859s-9.746-14.032-10.913-33.587c0 0 8.975-20.095 28.571-36.825 0 0 23.545 19.047 28.571 36.825 0 0-.851 17.395-10.913 33.587h-35.316zm52.442 2.875s-.618-17.073 8.968-34.157c0 0 18.411-12.058 43.94-15.545 0 0 9.518 28.75 4.139 46.424 0 0-10.117 14.176-27.333 22.363l-29.714-19.085zm-64.608 2.071s-1.302-17.035-12.745-32.935c0 0-19.648-9.916-45.407-10.516 0 0-6.232 29.636 1.097 46.596 0 0 11.644 12.951 29.669 19.154l27.386-22.299zm-57.665 42.449s-4.071-12.217-15.348-21.748c0 0-16.181-3.653-35.125.624 0 0 .87 22.81 9.333 33.868 0 0 10.884 7.338 25.2 8.573l15.94-21.317zm-29.204 45.726s-7.632-8.556-20.212-12.378c0 0-14.519 2.712-28.504 12.883 0 0 8.746 18.347 19.562 24.409 0 0 11.486 2.166 23.628-1.866l5.526-23.048z" fill="#775c38"/><path d="M467.26 215.611c-.32 3.19-.79 5.94-1.34 8.3-2.11 9.23-5.32 12.47-5.32 12.47l-65.02 7.91s-14.09 61.35-32.99 77.57c0 0-87.42 34.57-200.21 15.36 0 0-102.38 29.88-162.38 28.84 0 0 72.22-35.71 85.72-58.23 0 0 3.84-50.35 10.76-63.97 0 0 14.42-20.05 38.4-42.33 3.93-3.64 8.12-7.35 12.54-11.03 7.77-6.5 16.28-12.93 25.39-18.86 3.6-2.36 7.29-4.63 11.08-6.79 8.31-4.77 17.04-9.05 26.13-12.54 2.6-1.02 5.24-1.96 7.9-2.83 0 0 7.25-.11 19.34 2.27 7.22 1.41 16.16 3.71 26.31 7.45 6.66 2.45 13.83 5.52 21.39 9.36h.01a214.89 214.89 0 0125.28 15.11c5.62 3.88 11.35 8.2 17.13 13.02 0 0 6.97 47.65 20.31 58.08 0 0 22.46-26.2 27.13-49.41 1.14-5.67 5.19-10.31 10.53-12.47l25.507-10.416a14.2 14.2 0 0112.106.641c12.815 6.898 41.978 23.458 44.297 32.495z" fill="#46af64"/><path d="M347.682 254.775s14.28 12.483 26.024 14.539c0 0-20.461-12.562-21.387-20.373l-4.637 5.834z" fill="#389350"/><path fill="#4d4d4d" d="M428.313 205.312l-17.322-1.468.881-4.698 13.505-2.642 4.991 3.817z"/><path d="M465.92 223.911c-2.11 9.23-5.32 12.47-5.32 12.47l-65.02 7.91s-14.09 61.35-32.99 77.57c0 0-20.4 8.06-54.2 14.24a424.366 424.366 0 01-41.74 5.49c-21.81 1.79-46.46 2.14-73.02-.29-10.16-.93-20.59-2.26-31.25-4.08 0 0-8.06 2.35-20.98 5.72-33.13 8.61-98.23 23.87-141.4 23.12 55.82.48 127.97-44.5 127.97-44.5 16.02-7.45 32.81-11.92 46.12-14.56 13.12-2.61 26.63-2.05 39.67.96 18.98 4.38 44.63 4.94 69.04 3.48 5.23-.31 10.41-.71 15.45-1.19 26.03-2.47 48.46-6.91 56.52-10.84 18.94-9.25 38.31-63.86 38.31-63.86 10.13-13.21 72.84-11.64 72.84-11.64z" fill="#62cc7e"/><path d="M193.63 341.301c-10.16-.93-20.59-2.26-31.25-4.08 0 0-8.06 2.35-20.98 5.72-2.95-.51-4.75-.86-4.75-.86l42.61-31.1s-.15 19.55 14.37 30.32zm114.76-5.2a424.366 424.366 0 01-41.74 5.49c13-6.99 16.15-30.15 16.15-30.15l13.44-6.31 2.01 5.12 10.14 25.85z" fill="#58a366"/><path d="M175.535 343.884l-9.688 10.569 5.578 4.404 4.225 14.092h-58.245s-5.285-22.9 3.523-35.23l-10.569-30.827s9.688-20.257 34.35-24.661c0 0 27.304 3.523 36.111 14.973l-5.285 46.68zm146.206-42.863l1.466 30.496a40.316 40.316 0 01-5.855 22.936l6.738 4.404 3.227 14.092h-42.212s-6.814-29.652-1.529-67.818l38.165-4.11z" fill="#46af64"/><path fill="#389350" d="M317.352 354.453l-16.035 4.795 22.773-.391zm-151.505 0l-14.864 4.404h20.442zM310.25 183.671c-8.68 14.75-20.92 39.34-24.27 65.24 0 0 .62-44.91 16.63-70.31 2.52 1.6 5.07 3.28 7.64 5.07zm-25.29-15.11c-30.62 28.35-39.64 77.69-39.64 77.69-2.37-47.2 10.69-75.08 18.25-87.05 6.66 2.45 13.83 5.52 21.39 9.36zm-64.31 65.02c-9-21.36-10.41-67.36-10.63-81.27 2.6-1.02 5.24-1.96 7.9-2.83 0 0 7.25-.11 19.34 2.27-17.99 34.03-16.61 81.83-16.61 81.83zm-24-4.67s-18.42-23.76-23.84-57.27c3.6-2.36 7.29-4.63 11.08-6.79-.66 13.67.12 40.18 12.76 64.06zm-32 9.34c-18.21-12.44-26.36-27.83-29.77-36.72 3.93-3.64 8.12-7.35 12.54-11.03 3.48 26.64 17.23 47.75 17.23 47.75z"/></symbol><symbol viewBox="0 0 444.178 444.178" id="si-styracosaurus" xmlns="http://www.w3.org/2000/svg"><path fill="#b77d4e" d="M355.64 308.052s-44.79 8.22-82.66 14.9c-5.17.91-10.22 1.79-15 2.62-3.4.59-7.02 1.11-10.82 1.58v.01c-21.91 2.72-49.4 3.59-70.11 3.82-17.76.18-30.54-.1-30.54-.1l-7.01-1.98-20.75-5.86-21.08-5.96c-2.84 1.09-5.79 2.08-8.82 2.99l-.01.01c-38.25 11.48-88.84 9.2-88.84 9.2 28.14-12.2 78.56-79.62 78.56-79.62 15.93-75.37 49.9-112 49.9-112 55.73-21.23 110.94-18.58 110.94-18.58 31.85 5.31 61.61 31.26 61.61 31.26l54.63 157.71z"/><path fill="#96633e" d="M272.98 322.952c-5.17.91-10.22 1.79-15 2.62-3.4.59-7.02 1.11-10.82 1.58 6.43-12.06 6.15-32.81 6.15-32.81l19.67 28.61z"/><path fill="#b77d4e" d="M265.122 343.244l-2.401 16.212h69.05l-3.603-15.611-13.81-2.402 3.002-28.821-6.737-21.679-39.592-17.721-17.721 21.115z"/><path fill="#e0d48c" d="M317.73 139.222l8.5-54.5 5 1.5 14 34zm-6.498 14.693l-12.02-28.05-3.865 7.369 3.438 38.848z"/><path fill="#96633e" d="M123.73 319.722l-4.98 3.32-21.08-5.96c-2.84 1.09-5.79 2.08-8.82 2.99l19.19-30.64 15.69 30.29zm53.32 11.26c-17.76.18-30.54-.1-30.54-.1l-7.01-1.98 10.23-22.68 8.84-16.41s9.69 41.29 18.16 41.16c.11 0 .21 0 .32.01z"/><path fill="#e0d48c" d="M298.73 180.222l-16.167-16.334-2.333 5.834 11.5 32.5"/><path fill="#b77d4e" d="M102.365 313.823l7.805 29.421-2.402 16.212h69.051l-3.603-15.611-13.81-2.402 3.002-28.821-3.839-22.81-20.738-10.18-29.787 9.803z"/><path fill="#e0d48c" d="M287.438 204.222l-12 9.666 11.666 7zm1.411 16.227l-10.492 11.284 12.548 5.258z"/><path fill="#e0d48c" d="M290.816 234.415l-8.312 12.975 13.285 2.936zm109.416-16.599s15.238-14.837 17.482-39.282c.286-3.116 4.529-3.85 5.862-1.019 6.277 13.325 13.892 36.636 2.134 55.164-17.516 27.601-25.478-14.863-25.478-14.863z"/><path fill="#af754a" d="M440.57 304.342l-12.74-14.87-12.74-3.71-8.49 18.05-50.96 4.24s-14.56-5.02-29.44-13.12v-.01c-7.3-3.97-14.68-8.7-20.45-13.94 0 0-28.13-33.97-21.23-87.05 0 0 7.96-39.28 29.72-61.58 0 0 20.17-23.35 45.12-33.97l6.37 10.62s-29.73 56.26-6.9 101.38c0 0 20.7-3.71 49.89 2.66 0 0 20.18 8.49 35.04 27.6 0 0 2.12 33.97-3.19 63.7z"/><path fill="#af754a" d="M334.942 204.546l29.195-7.962 10.085 20.701z"/><path fill="#e0d48c" d="M357.939 198.274l9.914-13.899-.286 19.248z"/><circle cx="367.563" cy="228.722" r="12.833" fill="#96633e"/><path fill="#4d4d4d" d="M361.198 233.934s7.258.435 13.598-4.618l-1.47-4.012s-8.312-1.323-13.757-.785c0 .001-1.954 7.088 1.629 9.415z"/><path fill="#96633e" d="M415.09 285.762l-8.49 18.05-50.96 4.24s-14.56-5.02-29.44-13.12v-.01l25.2-13.94 63.69 4.78zm-91.36-151.04s-3.575 43.148 11.212 69.824l-4.212 6.676s-26.5-17-22-55.5l15-21zm2.5 88.5s-15.63-4.011-29-13.5c0 0-3 11 1 17l25.5 4 2.5-7.5zm5.392 30.061l3.108 5.438s-11.388 6.442-25 6.5l-5.5-12c0 .001 18.392 5.562 27.392.062zm-172.216 88.16l-21.676 3.779 22.761-14.193zm154.952 0l-21.628 4.779 23.073-18.649z"/><circle cx="270.73" cy="150.222" r="10" fill="#96633e"/><circle cx="238.23" cy="137.722" r="10" fill="#96633e"/><circle cx="205.73" cy="139.222" r="10" fill="#96633e"/><circle cx="174.783" cy="144.911" r="8.447" fill="#96633e"/><circle cx="143.23" cy="155.858" r="7.5" fill="#96633e"/><circle cx="126.23" cy="180.722" r="7.5" fill="#96633e"/><circle cx="84.23" cy="267.222" r="7.5" fill="#96633e"/><circle cx="110.73" cy="217.222" r="7.5" fill="#96633e"/><circle cx="100.23" cy="245.472" r="3.75" fill="#96633e"/><circle cx="112.48" cy="236.222" r="3.75" fill="#96633e"/><circle cx="288.038" cy="153.222" r="3.75" fill="#96633e"/><circle cx="63.617" cy="290.768" r="5.644" fill="#96633e"/><circle cx="45.23" cy="307.222" r="5.644" fill="#96633e"/><circle cx="221.98" cy="155.722" r="3.75" fill="#96633e"/><circle cx="154.48" cy="140.222" r="3.75" fill="#96633e"/></symbol><symbol viewBox="0 0 370.096 370.096" id="si-t-rex" xmlns="http://www.w3.org/2000/svg"><path fill="#99e28f" d="M214.386 184.472l-1.132 53.667 31.912-11.586 8.25 19.578 3.92-29.511-26.997 1.073c7.396-11.99 1.524-27.736-11.917-31.955l-4.036-1.266z"/><path fill="#93ce89" d="M159.118 192.656l45.167 6.686 36.278 68.899a10.48 10.48 0 01.344 9.048l-21.418 49.474c-2.851 6.587 1.685 14.01 8.847 14.477a14.548 14.548 0 0111.497 6.98l5.023 8.291-40.025 6.703-15.224-35.75 6.55-45.144-45.601-24.751c.001 0-7.585-29.822 8.562-64.913z"/><path fill="#99e28f" d="M364.22 154.553l-17.96-6.28-20.44 28.11c-38.33-1.28-81.77-24.28-81.77-24.28-.73 1.5-1.41 3.02-2.05 4.55-17.33 41.38-3.06 91.28-3.06 91.28-7.67 23-34.5 53.66-34.5 53.66C130.33 328.433 0 320.763 0 320.763s.01 0 .03-.01c58.77-24.3 111.14-118.82 111.14-118.82 43.44-123.94 97.1-198.04 97.1-198.04 106.05 20.44 159.72 60.05 159.72 60.05 6.38 48.55-3.77 90.61-3.77 90.61z"/><path fill="#72ba81" d="M238.94 247.933c-7.67 23-34.5 53.66-34.5 53.66C130.33 328.433 0 320.763 0 320.763s.01 0 .03-.01c2.58-.9 167.74-58.79 178.33-67.38 27.34-23.82 35.59-105.17 35.59-105.17l28.05 8.45c-17.33 41.38-3.06 91.28-3.06 91.28z"/><path fill="#72ba81" d="M139.275 190.436s-22.085 15.267-27.585 66.767l21.324 15.351 12.136-4.671-5.875-77.447z"/><path fill="#99e28f" d="M139.275 190.436l43.442 14.055 24.4 73.945a10.48 10.48 0 01-1.155 8.981l-29.295 45.257c-3.9 6.025-.652 14.096 6.334 15.74a14.551 14.551 0 0110.186 8.783l3.584 9.006H156.19l-9.11-37.774 13.916-43.442-40.887-31.943s-2.555-30.665 19.166-62.608z"/><path fill="#72ba81" d="M346.265 148.272l-88.162-40.887-16.61 10.222 18.198-3.403s56.925 22.946 80.463 42.473l6.111-8.405zm-102.217 3.833l-35.776-20.443-3.833-63.886-1.748 74.427s22.04 12.235 37.77 18.367l3.587-8.465z"/><path fill="#99e28f" d="M189.349 174.776l28.199 45.676 20.501-27.061 17.561 11.957-12.737-26.907-22.085 15.565c-.302-14.084-13.786-24.116-27.363-20.358l-4.076 1.128z"/><path fill="#4d4d4d" d="M261.19 40.703s9.5.5 17 8l-2.5 5s-11 .5-18-1c0 0-1.5-9.5 3.5-12z"/><path fill="#fff" d="M323.65 137.783c-.31.99-.72 2.03-1.19 3.06-2.64 5.85-7.27 11.86-7.27 11.86-3.39-5.42-2.97-12.51-2.35-16.51.3-1.91.64-3.12.64-3.12l10.17 4.71zm-14.22-6.59l-1.86 2.45-5.38 7.06c-.96-1.93-.96-6.81-.83-10.06.07-1.81.18-3.11.18-3.11l7.89 3.66zm30 13.5l-2.43 3.19-4.81 6.32c-.87-1.74-.95-5.89-.86-9.07.06-2.31.21-4.1.21-4.1l7.89 3.66z"/><path fill="#ccc" d="M301.54 127.533l7.89 3.66-1.86 2.45-6.21-3c.07-1.81.18-3.11.18-3.11zm11.94 5.54l10.17 4.71c-.31.99-.72 2.03-1.19 3.06l-9.62-4.65c.3-1.91.64-3.12.64-3.12zm25.95 11.62l-2.43 3.19-5.67-2.75c.06-2.31.21-4.1.21-4.1l7.89 3.66z"/><circle cx="221.69" cy="39.703" r="9" fill="#72ba81"/><circle cx="208.69" cy="24.036" r="5" fill="#72ba81"/><circle cx="235.857" cy="51.87" r="2.5" fill="#72ba81"/><circle cx="183.857" cy="65.703" r="2.5" fill="#72ba81"/><circle cx="201.69" cy="43.37" r="2.5" fill="#72ba81"/><circle cx="207.357" cy="55.536" r="4.596" fill="#72ba81"/><path fill="#72ba81" d="M189.349 174.776l11.698 36.712 3.238-12.146z"/></symbol><symbol viewBox="0 0 444.045 444.045" id="si-triceratops" xmlns="http://www.w3.org/2000/svg"><path fill="#afb7a3" d="M408.724 208.364l20.73-15.35 1.333 6s3.48 9.396-3.927 20.365c-7.407 10.969-12.74 9.635-12.74 9.635l-5.396-20.65z"/><path fill="#96633e" d="M374.12 291.011l-8.13 5.44-10.35 6.92s-44.79 8.22-82.66 14.9c-5.17.91-10.22 1.79-15 2.62-3.4.59-7.02 1.11-10.82 1.58v.01c-21.91 2.72-49.4 3.59-70.11 3.82-17.76.18-30.54-.1-30.54-.1l-7.01-1.98-20.75-5.86-21.08-5.96c-2.84 1.09-5.79 2.08-8.82 2.99l-.01.01C50.59 326.881 0 324.6 0 324.6c28.14-12.2 78.56-79.62 78.56-79.62 15.93-75.37 49.9-112 49.9-112 55.73-21.23 110.94-18.58 110.94-18.58 31.85 5.31 61.61 31.26 61.61 31.26l73.11 145.351z"/><path fill="#af754a" d="M365.99 296.451l-10.35 6.92s-44.79 8.22-82.66 14.9c-5.17.91-10.22 1.79-15 2.62-3.4.59-7.02 1.11-10.82 1.58v.01c-21.91 2.72-49.4 3.59-70.11 3.82-17.76.18-30.54-.1-30.54-.1l-7.01-1.98-20.75-5.86-21.08-5.96c-2.84 1.09-5.79 2.08-8.82 2.99l-.01.01C50.59 326.881 0 324.6 0 324.6s60.79-13.59 96.12-48.25c35.33-34.67 189.33-36.67 248-1.34 9.13 5.501 16.29 12.881 21.87 21.441z"/><path fill="#96633e" d="M272.984 318.274c-5.17.91-10.22 1.79-15 2.62-3.4.59-7.02 1.11-10.82 1.58 6.43-12.06 6.15-32.81 6.15-32.81l19.67 28.61z"/><path fill="#af754a" d="M265.126 338.567l-2.402 16.212h69.05l-3.602-15.611-13.81-2.402 3.002-28.821-6.738-21.679-39.591-17.722-17.722 21.116z"/><path fill="#96633e" d="M123.734 315.044l-4.98 3.32-21.08-5.96c-2.84 1.09-5.79 2.08-8.82 2.99l19.19-30.64 15.69 30.29zm53.32 11.26c-17.76.18-30.54-.1-30.54-.1l-7.01-1.98 10.23-22.68 9.104-48.186s20.822 72.893 29.292 72.763c.109.001-11.186.173-11.076.183z"/><path fill="#af754a" d="M440.57 299.661l-12.74-14.87-12.74-3.71-7.81 16.61a2.761 2.761 0 01-2.267 1.572l-49.373 4.108s-6.28-2.16-14.81-5.95l10.57-21.12-29.95-33.95-11.82.19c-12.93.22-23.89-9.41-25.37-22.26-1.09-9.39-1.2-19.77.26-31.03 0 0 7.96-39.28 29.72-61.58 0 0 20.17-23.35 45.12-33.97l1.62 2.7a17.531 17.531 0 011.13 15.8c-7.15 17.04-20.93 58.61-3.28 93.5 0 0 24.79-.81 49.89 2.66 0 0 2.333.982 5.997 3.028 18.73 10.464 29.949 30.567 29.302 52.011-.333 11.022-1.26 24.002-3.449 36.261zm-338.202 9.485l7.806 29.421-2.402 16.212h69.05l-3.602-15.611-13.81-2.402 3.002-28.821-3.839-22.81.265-31.776-50.791 31.399z"/><path fill="#4d4d4d" d="M364.364 213.379s5.556 4.69 13.659 4.433l1.222-4.094s-5.869-6.032-10.555-8.858c0 .001-5.805 4.511-4.326 8.519z"/><path fill="#96633e" d="M159.41 336.766l-21.676 3.778 22.76-14.192zm154.952 0l-21.628 4.778 23.073-18.648z"/><path fill="#af754a" d="M352.514 188.114l15.729 2.546a27.698 27.698 0 0120.721 15.73l-46.843 5.957 10.393-24.233z"/><path fill="#96633e" d="M424.118 236.848c-.397 0-.8-.095-1.175-.294l-10-5.333a2.5 2.5 0 112.354-4.412l10 5.333a2.5 2.5 0 01-1.179 4.706z"/><circle cx="285.489" cy="225.658" r="8.631" fill="#af754a"/><circle cx="283.114" cy="208.523" r="8.631" fill="#af754a"/><circle cx="284.364" cy="191.273" r="8.631" fill="#af754a"/><circle cx="287.864" cy="174.523" r="8.631" fill="#af754a"/><circle cx="294.12" cy="158.812" r="8.631" fill="#af754a"/><circle cx="302.439" cy="144.53" r="8.631" fill="#af754a"/><circle cx="311.638" cy="130.018" r="8.631" fill="#af754a"/><circle cx="323.972" cy="117.851" r="8.631" fill="#af754a"/><circle cx="337.506" cy="107.24" r="8.631" fill="#af754a"/><circle cx="351.877" cy="97.897" r="8.631" fill="#af754a"/><path fill="#96633e" d="M415.094 281.084l-7.811 16.607a2.76 2.76 0 01-2.269 1.576l-38.592 3.211a26.956 26.956 0 01-27.475-36.331l1.043-2.782 11.413 12.94 63.691 4.779z"/><circle cx="140.12" cy="149.014" r="7.333" fill="#af754a"/><circle cx="91.911" cy="255.681" r="7.333" fill="#af754a"/><circle cx="264.12" cy="141.681" r="7.333" fill="#af754a"/><circle cx="149.787" cy="161.681" r="3.667" fill="#af754a"/><circle cx="77.787" cy="263.014" r="3.667" fill="#af754a"/><circle cx="282.63" cy="144.681" r="3.667" fill="#af754a"/><circle cx="272.473" cy="158.014" r="3.667" fill="#af754a"/><circle cx="159.787" cy="146.681" r="9.667" fill="#af754a"/><circle cx="242.397" cy="135.681" r="9.667" fill="#af754a"/><path fill="#afb7a3" d="M343.316 191.284c-10.424-7.489-6.858-23.769 5.73-26.276 17.191-3.423 40.534-6.039 67.043-3.566 6.15.574 12.471 1.421 18.925 2.596l-.011.02a21.77 21.77 0 01-15.98 11.208c-15.194 2.262-43.01 7.458-59.622 16.96-4.967 2.841-11.107 2.635-15.753-.703l-.332-.239z"/></symbol><symbol viewBox="0 0 438.529 438.529" id="si-user" xmlns="http://www.w3.org/2000/svg"><path d="M219.265 219.267c30.271 0 56.108-10.71 77.518-32.121 21.412-21.411 32.12-47.248 32.12-77.515 0-30.262-10.708-56.1-32.12-77.516C275.366 10.705 249.528 0 219.265 0S163.16 10.705 141.75 32.115c-21.414 21.416-32.121 47.253-32.121 77.516 0 30.267 10.707 56.104 32.121 77.515 21.416 21.411 47.251 32.121 77.515 32.121z"/><path d="M419.258 335.036c-.668-9.609-2.002-19.985-3.997-31.121-1.999-11.136-4.524-21.457-7.57-30.978-3.046-9.514-7.139-18.794-12.278-27.836-5.137-9.041-11.037-16.748-17.703-23.127-6.666-6.377-14.801-11.465-24.406-15.271-9.617-3.805-20.229-5.711-31.84-5.711-1.711 0-5.709 2.046-11.991 6.139a2716.072 2716.072 0 01-21.266 13.708c-7.898 5.037-18.182 9.609-30.834 13.695-12.658 4.093-25.361 6.14-38.118 6.14-12.752 0-25.456-2.047-38.112-6.14-12.655-4.086-22.936-8.658-30.835-13.695a2784.143 2784.143 0 01-21.267-13.708c-6.283-4.093-10.278-6.139-11.991-6.139-11.61 0-22.222 1.906-31.833 5.711-9.613 3.806-17.749 8.898-24.412 15.271-6.661 6.379-12.562 14.086-17.699 23.127-5.137 9.042-9.229 18.326-12.275 27.836-3.045 9.521-5.568 19.842-7.566 30.978-2 11.136-3.332 21.505-3.999 31.121a427.742 427.742 0 00-.998 29.554c0 22.836 6.949 40.875 20.842 54.104 13.896 13.224 32.36 19.835 55.39 19.835h249.533c23.028 0 41.49-6.611 55.388-19.835 13.901-13.229 20.845-31.265 20.845-54.104-.002-10.088-.334-19.938-1.008-29.554z"/></symbol><symbol viewBox="0 0 443.185 443.185" id="si-velociraptor" xmlns="http://www.w3.org/2000/svg"><path fill="#869369" d="M165.444 190.636s-20.646 4.673-33.466 12.945c0 0-19.28 50.499-19.393 79.555 0 0-35.372 8.501-55.022 22.835l2.449 46.697 46.629 24.919 2.284-21.901-27.622-15.618-1.402-23.015 68.598-.165s47.751-41.279 64.391-69.21c0 0 3.169-17.147-4.55-31.548l-42.896-25.494z"/><path fill="#b8d38d" d="M441.095 159.91c-4.951.431-13.595-4.532-13.595-4.532-12.089 7.557-33.24 11.329-33.24 11.329-29.456-5.291-75.521-35.495-75.521-35.495l-14.354 73.255c-21.899 29.456-111.786 71.76-111.786 71.76s-21.276 3.217-48.943-26.08a154.108 154.108 0 01-6.945-7.908 2.454 2.454 0 00-.227-.261c-4.6-5.529-10.82-9.732-18.082-12.893-4.498-1.971-9.392-3.535-14.547-4.758-31.779-7.602-73.459-2.402-92.934.804C4.101 226.254 0 227.127 0 227.127c28.709-34.736 89.127-79.305 150.306-86.85 61.178-7.557 114.8 5.279 114.8 5.279 7.557-40.026 33.24-80.053 33.24-80.053 14.762-4.566 29.196-5.381 40.411-4.928 12.881.499 21.514 2.662 21.514 2.662 52.115 33.988 82.33 70.989 82.33 70.989s2.04 22.172-1.506 25.684z"/><path fill="#9baf75" d="M427.497 155.379l-12.84-12.84-12.839.756-7.553-14.351-14.728 2.266-10.197-10.574-15.105-2.266-9.819-10.574 7.325 18.013 15.577-1.416 9.064 15.011 16.144-5.098 5.948 15.861 15.861-3.116 6.814 11.651z"/><path fill="#666" d="M350.081 80.228s-3.399 4.154-4.154 9.063c0 0 10.952 8.308 22.659 8.686l6.042-4.532s-2.266-8.308-10.196-12.462c-.001 0-8.687-3.021-14.351-.755z"/><path fill="#9baf75" d="M178.969 254.113l-35.313-3.965a154.108 154.108 0 01-6.945-7.908 2.454 2.454 0 00-.227-.261c-4.6-5.529-10.82-9.732-18.082-12.893-4.498-1.971-9.392-3.535-14.547-4.758l13.369-13.833 35.347-20.37 26.398 63.988zm71.791-49.263s-15.622 27.79-15.383 49.289l13.861-7.91 1.522-41.379zm-29.456 13.218s-2.669 25.807 2.706 42.255l-31.412 15.905 28.706-58.16zm69.487-18.882s4.898 4.542 5.451 14.157l-24.465 18.815 4.625-33.559 14.389.587z"/><path fill="#b8d38d" d="M152.573 190.122s-16.006 13.852-23.414 27.19c0 0 6.798 53.625 20.393 79.305 0 0-27.19 24.169-37.764 46.072l24.169 40.03h52.87l-8.308-20.393-31.722-.755-12.085-19.637 60.423-32.477s22.659-58.912 24.169-91.39c0 0-5.287-16.616-18.882-25.68l-49.849-2.265zm138.218 9.064c0 12.085-11.109 27.5-11.109 27.5 23.668-15.497 52.65-19.191 52.65-19.191-3.021 35.498-27.946 56.646-27.946 56.646 6.042-13.595 1.511-30.967 1.511-30.967-17.372 15.861-59.668 31.722-59.668 31.722-3.021-27.19 4.532-60.045 4.532-60.045l19.409-17.014 20.621 11.349z"/><path fill="#9baf75" d="M318.886 87.572s-5.891-21.095-20.393-8.497c-14.343 12.462 3.002 30.192 3.387 30.578-.521-.261-18.206-9.301-24.347 11.907-6.072 20.971 8.282 27.961 9.029 28.312l-21.458-4.317c7.557-40.026 33.24-80.053 33.24-80.053 14.762-4.566 29.196-5.381 40.411-4.928.002.001-21.569 7.739-19.869 26.998zm-53.781 57.984s-6.265-.204-31.756-.77c-25.491-.566-27.19 11.329-27.19 11.329s-9.63-14.162-29.456-13.029-25.491 14.728-25.491 14.728-18.127-12.462-39.086-3.399C91.167 163.479 92.3 171.409 92.3 171.409s-9.063-5.098-18.127 0c-9.063 5.098-7.364 11.896-7.364 11.896s-11.329-2.832-19.26 5.098c-7.931 7.93-8.497 13.595-8.497 13.595s-4.532-2.832-10.763 3.399-6.231 9.63-6.231 9.63-7.659.374-11.896 5.665c-.793.986-.397 2.549.759 4.441C4.101 226.254 0 227.127 0 227.127c28.709-34.736 89.127-79.305 150.306-86.85 61.178-7.557 114.799 5.279 114.799 5.279zM148.797 361.572h-15.712l10.888-7.838zm34.734 21.148l-5.664-13.048-3.399 13.048zm-9.063 0l-5.665-13.048-3.399 13.048z"/></symbol></svg>