<?xml version="1.0" encoding="utf-8"?><!DOCTYPE svg PUBLIC "-//W3C//DTD SVG 1.1//EN" "http://www.w3.org/Graphics/SVG/1.1/DTD/svg11.dtd"><svg xmlns="http://www.w3.org/2000/svg" xmlns:xlink="http://www.w3.org/1999/xlink"><symbol viewBox="0 0 361.77 361.77" id="si-calendar" xmlns="http://www.w3.org/2000/svg"><path d="M323.885 43.77h-27.5V25c0-13.807-11.193-25-25-25h-1c-13.807 0-25 11.193-25 25v18.77h-129V25c0-13.807-11.193-25-25-25h-1c-13.807 0-25 11.193-25 25v18.77h-27.5c-13.807 0-25 11.193-25 25v268c0 13.809 11.193 25 25 25h286c13.807 0 25-11.191 25-25v-268c0-13.807-11.194-25-25-25zm-17 278.5h-252v-203h252v203z"/><path d="M89.136 211.134h43.498a4 4 0 0 0 4-4v-43.498a4 4 0 0 0-4-4H89.136a4 4 0 0 0-4 4v43.498a4 4 0 0 0 4 4zm70 0h43.498a4 4 0 0 0 4-4v-43.498a4 4 0 0 0-4-4h-43.498a4 4 0 0 0-4 4v43.498a4 4 0 0 0 4 4zm70 0h43.498a4 4 0 0 0 4-4v-43.498a4 4 0 0 0-4-4h-43.498a4 4 0 0 0-4 4v43.498a4 4 0 0 0 4 4zm-140 70h43.498a4 4 0 0 0 4-4v-43.498a4 4 0 0 0-4-4H89.136a4 4 0 0 0-4 4v43.498a4 4 0 0 0 4 4zm70 0h43.498a4 4 0 0 0 4-4v-43.498a4 4 0 0 0-4-4h-43.498a4 4 0 0 0-4 4v43.498a4 4 0 0 0 4 4zm70 0h43.498a4 4 0 0 0 4-4v-43.498a4 4 0 0 0-4-4h-43.498a4 4 0 0 0-4 4v43.498a4 4 0 0 0 4 4z"/></symbol><symbol viewBox="0 0 512 512" id="si-dino-marker" xmlns="http://www.w3.org/2000/svg"><path d="M512 256c0 141.387-114.613 256-256 256S0 397.387 0 256 114.613 0 256 0s256 114.613 256 256zm0 0" fill="#ff8597"/><path d="M301.395 507.984C421.125 486.56 512 381.894 512 256c0-.32-.012-.64-.012-.965l-59.34-59.34-38.91 38.235-151.18-151.184 9.458 134.68-35.286 92.262-87.644-87.645-65.16 60.812L228.125 427.06l-1.762 5.894zm0 0" fill="#ff3636"/><path d="M452.496 195.543c-8.555-8.555-40.672 9.691-49.281 18.266-15.145-4.22-32.059-.387-43.969 11.523-10.656 10.656-32.367 64.555-54.129 84.805-4.52 4.207-10.242 8.84-16.55 13.629-3.52-18.762-6.325-36.95-6.325-49.563 0-33.828 18.785-90.125 18.785-107.71 0-16.907-9.32-31.626-23.097-39.329v-.02c0-12.113-9.817-47.808-21.93-47.808s-21.93 35.695-21.93 47.809v.02c-13.78 7.702-23.097 22.42-23.097 39.327 0 17.711 18.093 74.89 18.093 108.387 0 11.668-2.027 28.21-4.668 45.555-6.562-5.153-12.37-10.086-16.632-14.43-19.309-19.684-44.555-70.215-55.012-80.672-11.996-11.996-29.078-15.8-44.305-11.43-8.73-8.613-40.664-26.71-49.191-18.183-8.567 8.562 9.73 40.746 18.297 49.312-4.227 15.149-.395 32.07 11.515 43.98 9.813 9.81 58.797 33.274 74.567 51.739 15.765 18.465 50.14 79.766 60.523 90.148a44.917 44.917 0 0 0 15.309 10.047 44.875 44.875 0 0 0 17.926 3.72c13.05 0 24.796-5.56 33.02-14.427l.972.875c9.867-10.922 39.14-69.37 56.715-92.793 17.574-23.418 65.18-39.664 74.824-49.308 12-12 15.804-29.09 11.426-44.32 8.628-8.79 26.656-40.633 18.144-49.149zm0 0" fill="#005285"/><path d="M257.398 444.664c13.047 0 24.793-5.559 33.02-14.426l.969.875c9.867-10.922 39.144-69.37 56.718-92.793 17.57-23.418 65.176-39.664 74.825-49.308 12-12 15.8-29.09 11.425-44.32 8.625-8.79 26.653-40.637 18.141-49.149-8.555-8.555-40.672 9.687-49.281 18.266-15.145-4.22-32.059-.387-43.969 11.52-10.656 10.66-32.367 64.558-54.129 84.808-4.52 4.203-10.242 8.836-16.55 13.629-3.52-18.766-6.325-36.95-6.325-49.563 0-33.832 18.785-90.125 18.785-107.71 0-16.907-9.32-31.63-23.097-39.329v-.02c0-12.113-9.817-47.808-21.93-47.808zm0 0" fill="#001035"/></symbol><symbol viewBox="0 0 512 512" id="si-discord" xmlns="http://www.w3.org/2000/svg"><circle cx="256" cy="256" r="256" fill="#a8adf0"/><path d="M256 0c-11.317 0-22.461.744-33.391 2.167C348.216 18.53 445.217 125.933 445.217 256s-97.002 237.47-222.609 253.833A258.556 258.556 0 0 0 256 512c141.385 0 256-114.616 256-256S397.385 0 256 0z" fill="#989fec"/><path d="M417.824 114.172l-1.264-3.206a.388.388 0 0 0-.199-.209l-3.138-1.425c-25.832-11.733-62.269-14.628-94.507-15.911h-36.31c-.41 0-.535.554-.166.731l74.584 35.757c.421.201.188.827-.264.709-33.543-8.76-67.429-13.194-100.89-13.194-33.353 0-67.129 4.407-100.569 13.111-.455.118-.686-.515-.259-.712l77.201-35.667c.374-.173.252-.733-.161-.733h-39.257c-32.237 1.283-68.676 4.178-94.507 15.911l-3.138 1.425a.381.381 0 0 0-.199.209l-1.264 3.206C67.081 181.16 59.569 294.879 67.58 366.12l.42 3.736 2.972 2.305c41.298 32.024 96.519 48.489 131.258 52.858l4.492.565a3.176 3.176 0 0 0 3.371-2.038l22.61-60.407a3.176 3.176 0 0 0-2.481-4.251l-6.938-1.09c-24.193-3.801-58.47-13.877-87.437-40.147-.618-.561-.022-1.569.76-1.279 2.354.875 4.95 1.889 7.623 2.933 6.55 2.559 13.324 5.205 17.744 6.255 31.064 7.386 62.565 11.132 93.694 11.132v-.554h.065l.004.554c31.066 0 62.566-3.745 93.627-11.132 4.422-1.051 11.196-3.696 17.747-6.256a499.28 499.28 0 0 1 7.619-2.932c.782-.29 1.378.719.76 1.279-28.87 26.154-63.19 36.204-87.437 40.002l-6.936 1.086a3.175 3.175 0 0 0-2.484 4.248l22.614 60.556a3.176 3.176 0 0 0 3.371 2.04l4.496-.565c34.737-4.369 89.954-20.834 131.253-52.858l2.972-2.305.42-3.736c8.012-71.24.5-184.96-25.935-251.947zm-235.95 164.462c-28.083 2.504-51.512-20.923-49.011-49.006 1.918-21.527 19.252-38.863 40.78-40.783 28.083-2.504 51.512 20.923 49.011 49.006-1.919 21.527-19.253 38.863-40.78 40.783zm155.826 0c-28.083 2.504-51.512-20.923-49.011-49.006 1.918-21.527 19.252-38.863 40.78-40.783 28.082-2.504 51.512 20.923 49.011 49.006-1.919 21.527-19.253 38.863-40.78 40.783z" fill="#fff"/></symbol><symbol viewBox="0 -85 512.002 512" id="si-fossil" xmlns="http://www.w3.org/2000/svg"><path d="M511.031 115.457c-18.402-52.676-66.203-89.945-121.816-94.953l-49.36-4.211c-4.125-.352-7.761 2.707-8.113 6.836a7.502 7.502 0 0 0 6.836 8.11l49.328 4.21c49.727 4.48 92.496 37.824 108.961 84.95.121.351.16.73.11 1.093-1.704 12.293-22.016 25.45-54.332 35.195-35.68 10.754-82.7 16.68-132.399 16.68h-81.039c-42.36 0-51.25 22.551-51.25 41.469 0 .273.016.547.043.816l2.055 18.743c.11.996-.43 1.55-.899 1.84s-1.203.519-2.047-.028c-.047-.027-.093-.059-.136-.086l-22.371-13.844a12.785 12.785 0 0 0-9.715-1.855c-3.344.715-6.27 2.785-8.02 5.687-3.316 5.477-19.879 13.192-46.344 13.192-7.125.05-14.14-1.02-20.855-3.078-20.488-6.278-36.984-21.418-46.45-42.633-9.62-21.567-10.835-46.762-3.425-70.945 3.289-10.73 8.121-20.73 14.371-29.73a7.504 7.504 0 0 0-1.887-10.442 7.503 7.503 0 0 0-10.437 1.886C14.707 94.633 9.19 106.035 5.45 118.25c-8.473 27.652-7.028 56.578 4.07 81.453 3.566 7.992 7.992 15.262 13.156 21.711a30.458 30.458 0 0 0-11.739 15.313c-3.007 8.789-1.785 18.296 3.36 26.085 33.539 50.817 89.605 79.981 148.344 79.977 15.496 0 31.183-2.031 46.687-6.23l70.77-19.16h25.593a7.502 7.502 0 0 0 0-15.004h-26.59c-.66 0-1.32.09-1.96.261l-71.735 19.422a163.154 163.154 0 0 1-42.75 5.703c-4.59 0-9.16-.207-13.703-.593l-6.738-17.727 9.363-20.848a7.502 7.502 0 0 0-13.687-6.144l-7.543 16.797-12.532-5.63a7.508 7.508 0 0 0-9.918 3.77 7.507 7.507 0 0 0 3.77 9.918l16.5 7.41 3.848 10.121c-42.133-8.093-80.395-32.73-105.2-70.308-2.597-3.938-3.195-8.54-1.683-12.961 1.387-4.043 4.402-7.309 8.187-8.977 9.235 8.184 20.02 14.301 31.953 17.957a85.449 85.449 0 0 0 25.07 3.735h.2c26.785 0 48.945-7.117 57.7-18.317l20.777 12.856c5.523 3.547 12.417 3.61 18.011.164 5.617-3.461 8.66-9.688 7.938-16.246l-.153-1.41h5.352c10.629 0 21.223 2.3 30.637 6.644 19.004 8.797 49.988 18.899 121.492 18.899 40.015 0 82.93-3.477 107.66-8.692-5.687 20.875-20.117 38.047-39.785 47.266a2.562 2.562 0 0 1-2.43-.121l-18.715-11.578c-3.843-2.38-8.535-2.563-12.554-.493-4.02 2.07-6.594 6-6.891 10.512l-.562 8.613h-40.665a7.497 7.497 0 0 0-7.5 7.5c0 4.145 3.356 7.5 7.5 7.5h43.008c6.567 0 12.043-5.132 12.473-11.683l.473-7.227 15.543 9.614c5.05 3.12 11.289 3.476 16.687.945 24.25-11.367 41.883-32.777 48.371-58.73a13.918 13.918 0 0 0-3.543-13.176c-3.414-3.516-8.312-4.98-13.097-3.926-5 1.105-10.961 2.137-17.625 3.074 1.109-4.121 1.304-8.89-.293-14.039a7.498 7.498 0 0 0-9.387-4.941 7.501 7.501 0 0 0-4.942 9.382c1.961 6.329-2.707 10.914-3.246 11.418l.067-.062.3.336a661.138 661.138 0 0 1-25.894 2.09c1.219-4.223 1.492-9.149-.164-14.489a7.504 7.504 0 0 0-9.387-4.941c-3.957 1.23-6.172 5.43-4.941 9.387 1.664 5.37-1.442 9.476-2.75 10.906-7.828.3-15.711.484-23.461.535 1.254-4.254 1.555-9.234-.121-14.64a7.504 7.504 0 0 0-9.387-4.942 7.502 7.502 0 0 0-4.941 9.387c1.418 4.578-.63 8.234-2.078 10.101-8.536-.152-16.383-.46-23.598-.898 1.644-4.567 2.246-10.086.367-16.137a7.496 7.496 0 0 0-9.387-4.941 7.498 7.498 0 0 0-4.941 9.383c1.504 4.84-.875 8.652-2.316 10.41-8.942-.89-16.696-1.98-23.422-3.18 2.148-4.875 3.199-11.05 1.074-17.902a7.504 7.504 0 0 0-9.387-4.942c-3.957 1.23-6.172 5.434-4.941 9.39 1.426 4.602-.657 8.278-2.106 10.134-12.336-3.196-19.593-6.555-24.261-8.715-11.38-5.254-24.149-8.031-36.934-8.031h-6.996l-.207-1.907c.09-12.226 4.46-26.07 36.246-26.07h12.7c1.347 1.984 2.894 5.387 1.624 9.473a7.5 7.5 0 0 0 4.942 9.386c.742.23 1.488.34 2.226.34a7.5 7.5 0 0 0 7.16-5.28c1.582-5.099 1.407-9.825.328-13.919h22.715c1.348 1.984 2.89 5.387 1.625 9.473a7.5 7.5 0 0 0 4.942 9.386c.742.23 1.488.34 2.226.34a7.5 7.5 0 0 0 7.16-5.28c1.582-5.099 1.407-9.825.328-13.915h13.063c3.422 0 6.836-.031 10.23-.086 1.36 1.973 2.973 5.41 1.684 9.559a7.497 7.497 0 0 0 4.945 9.382c.739.23 1.489.34 2.223.34a7.5 7.5 0 0 0 7.16-5.28c1.656-5.333 1.383-10.255.172-14.474 8.106-.34 16.102-.84 23.953-1.488 1.45 1.813 3.672 5.559 2.207 10.274a7.502 7.502 0 0 0 7.168 9.722 7.5 7.5 0 0 0 7.16-5.277c1.899-6.121 1.262-11.695-.422-16.29a488.57 488.57 0 0 0 26.86-3.76c1.34 1.573 4.07 5.57 2.504 10.62a7.498 7.498 0 0 0 4.941 9.387c.738.23 1.488.34 2.223.34 3.199 0 6.164-2.063 7.164-5.282 2.144-6.91 1.055-13.136-1.133-18.027 9.098-1.902 17.75-4.05 25.867-6.441 1.406 1.851 3.453 5.535 2.047 10.058a7.5 7.5 0 0 0 4.942 9.387c.742.23 1.488.34 2.226.34a7.5 7.5 0 0 0 7.16-5.281c2.332-7.516.844-14.223-1.726-19.286 24.406-8.855 49.199-22.777 52.035-43.25.375-2.718.094-5.519-.809-8.105zm0 0"/><path d="M50.496 72.457c1.594 0 3.2-.508 4.559-1.55C71.473 58.323 90.832 52.19 109.57 53.66c4.727.367 9.535-.527 13.91-2.59a57.772 57.772 0 0 1 9.024-3.37c4.469-1.255 8.05-4.442 9.828-8.747 1.742-4.219 1.465-8.894-.754-12.832-2.004-3.547-.512-6.57.223-7.707 1.531-2.371 4.117-3.625 6.96-3.379l157.247 13.426c4.125.352 7.762-2.711 8.113-6.836a7.504 7.504 0 0 0-6.836-8.113L150.07.09a22.408 22.408 0 0 0-20.875 10.183 22.398 22.398 0 0 0-.808 23 73.074 73.074 0 0 0-11.309 4.23c-2.02.954-4.215 1.372-6.344 1.204-22.433-1.742-45.449 5.453-64.808 20.297-3.285 2.52-3.91 7.23-1.387 10.516a7.487 7.487 0 0 0 5.957 2.937zm0 0"/><path d="M265.11 43.66c-29.036-8.969-59.079-5.75-78.407 8.399a13.792 13.792 0 0 0-5.621 11.023c-.02 4.39 1.984 8.418 5.5 11.043 11.453 8.555 19.586 20.867 22.895 34.668 3.023 12.598 9.937 23.52 19.48 30.758 11.23 8.523 24.582 13.027 38.61 13.027 17.14 0 33.304-6.773 45.507-19.074 13.973-14.082 16.172-35.5 5.344-52.082-11.066-16.957-30.5-30.719-53.309-37.762zm37.316 79.278c-9.367 9.437-21.746 14.636-34.86 14.636-10.726 0-20.941-3.449-29.543-9.972-6.785-5.149-11.742-13.075-13.957-22.309-3.988-16.633-13.582-31.52-27.097-42.11 15.46-10.382 40.219-12.445 63.71-5.187 19.524 6.027 35.993 17.555 45.176 31.625 6.926 10.606 5.516 24.305-3.43 33.317zm0 0M389.547 114.813c9.219 3.558 18.605 5.273 27.383 5.273 15.715 0 29.48-5.5 36.86-15.77a7.504 7.504 0 0 0 1.198-6.148c-4.097-16.883-19.847-32.469-41.11-40.672-24.077-9.281-49.304-6.617-62.769 6.621a7.514 7.514 0 0 0-2.218 5.977c1.507 17.945 17.843 35.914 40.656 44.719zm18.937-43.32c14.864 5.737 26.516 15.945 30.793 26.69-8.761 8.094-26.925 9.348-44.328 2.633-15.586-6.015-27.515-17.285-30.465-28.351 9.961-6.871 27.34-7.39 44-.973zm0 0M107.668 82.79c-13.488 13.491-10.57 38.355 6.504 55.433 7.992 7.988 17.93 13.191 27.984 14.652 1.938.281 3.836.418 5.692.418 8.554 0 16.14-2.953 21.754-8.57 13.488-13.489 10.57-38.356-6.504-55.43-17.07-17.074-41.938-19.992-55.43-6.504zm51.328 51.323c-3.402 3.403-8.613 4.793-14.684 3.914-6.878-.996-13.812-4.695-19.53-10.414-11.036-11.035-14.016-26.703-6.505-34.215 2.813-2.812 6.766-4.152 11.192-4.152 7.398 0 16.12 3.75 23.023 10.652 11.035 11.04 14.012 26.707 6.504 34.215zm0 0M178.191 300.977c-4.144 0-7.48 3.359-7.48 7.5 0 4.144 3.383 7.503 7.523 7.503a7.503 7.503 0 0 0 0-15.004zm0 0M80.992 163.875c-4.14 0-7.48 3.36-7.48 7.504 0 4.14 3.383 7.5 7.523 7.5a7.503 7.503 0 1 0 0-15.004zm0 0"/></symbol><symbol viewBox="0 0 512 512" id="si-gallery-icon" xmlns="http://www.w3.org/2000/svg"><path d="M256 17.68c112.43 0 203.93 87.31 203.93 194.96C459.93 363.95 256 494.32 256 494.32S52.07 363.95 52.07 212.64c0-107.65 91.5-194.96 203.93-194.96zm148.89 200.33A148.89 148.89 0 1 0 256 366.91a148.89 148.89 0 0 0 148.89-148.9z" fill="#00acea"/><path d="M351.45 248.03v-95.3h-190.9v136.54h190.9zM256 69.12a148.9 148.9 0 1 1-148.89 148.89A148.89 148.89 0 0 1 256 69.12z" fill="#fedb41"/><path fill="#00efd1" d="M351.45 248.03v41.24H211.46l42.9-42.16 40.12-39.43 56.97 40.35z"/><path d="M351.45 152.73v95.3l-56.97-40.35-40.12 39.43-.02-.02-46.77-22.79-47.02 27.27v-98.84zm-90.69 44.73a14.96 14.96 0 1 0-14.96 14.96 14.963 14.963 0 0 0 14.96-14.96z" fill="#f4b844"/><circle cx="245.8" cy="197.46" r="14.96" fill="#00efd1"/><path fill="#00acea" d="M254.36 247.11l-42.9 42.16h-50.91v-37.7l47.02-27.27 46.77 22.79.02.02z"/><path d="M360 153a8 8 0 0 0-8-8H161a8 8 0 0 0-8 8v137a8 8 0 0 0 8 8h191a8 8 0 0 0 8-8zm-17 8v71.56l-44.121-31.408a7.845 7.845 0 0 0-10.119.823l-36.026 35.461-41.688-20.328a7.526 7.526 0 0 0-7.278.271L169 237.682V161zm-174 95.176l39.123-22.818L240.8 249.2 208.188 281H169zM231.015 281l64.076-63.059L343 252.167V281z" fill="#083863"/><path d="M245.8 220.42a22.96 22.96 0 1 0-22.96-22.96 22.986 22.986 0 0 0 22.96 22.96zm0-29.92a6.96 6.96 0 1 1-6.96 6.96 6.968 6.968 0 0 1 6.96-6.96z" fill="#083863"/><path d="M256 9.68c-116.858 0-211.93 91.048-211.93 202.96 0 35.922 11.075 73.54 32.916 111.812 17.261 30.245 41.271 61 71.364 91.4 51.022 51.548 101.229 83.858 103.341 85.208a8 8 0 0 0 8.618 0c2.112-1.35 52.319-33.664 103.341-85.211 30.093-30.4 54.1-61.152 71.364-91.4 21.841-38.272 32.916-75.89 32.916-111.812C467.93 100.728 372.858 9.68 256 9.68zm165.2 306.7c-16.532 29-39.646 58.609-68.7 87.993a677.641 677.641 0 0 1-96.5 80.344 676.515 676.515 0 0 1-96.278-80.124c-29.11-29.408-52.27-59.04-68.838-88.072C70.437 280.7 60.07 245.745 60.07 212.64c0-103.09 87.894-186.96 195.93-186.96s195.93 83.87 195.93 186.96c0 33.06-10.339 67.96-30.73 103.738z" fill="#083863"/><path d="M256 61.12c-86.509 0-156.89 70.38-156.89 156.89s70.381 156.9 156.89 156.9 156.89-70.385 156.89-156.9S342.509 61.12 256 61.12zm0 297.79c-77.687 0-140.89-63.207-140.89-140.9S178.313 77.12 256 77.12s140.89 63.2 140.89 140.89-63.203 140.9-140.89 140.9z" fill="#083863"/></symbol><symbol viewBox="0 0 489.7 489.7" id="si-list" xmlns="http://www.w3.org/2000/svg"><path d="M52.7 134.75c29.1 0 52.7-23.7 52.7-52.7s-23.6-52.8-52.7-52.8S0 52.95 0 81.95s23.7 52.8 52.7 52.8zm0-81c15.6 0 28.2 12.7 28.2 28.2s-12.7 28.2-28.2 28.2-28.2-12.7-28.2-28.2 12.7-28.2 28.2-28.2zM52.7 297.55c29.1 0 52.7-23.7 52.7-52.7s-23.6-52.7-52.7-52.7S0 215.75 0 244.85s23.7 52.7 52.7 52.7zm0-80.9c15.6 0 28.2 12.7 28.2 28.2s-12.7 28.2-28.2 28.2-28.2-12.6-28.2-28.2 12.7-28.2 28.2-28.2zM52.7 460.45c29.1 0 52.7-23.7 52.7-52.7 0-29.1-23.7-52.7-52.7-52.7S0 378.75 0 407.75c0 29 23.7 52.7 52.7 52.7zm0-81c15.6 0 28.2 12.7 28.2 28.2 0 15.6-12.7 28.2-28.2 28.2s-28.2-12.7-28.2-28.2 12.7-28.2 28.2-28.2zM175.9 94.25h301.5c6.8 0 12.3-5.5 12.3-12.3s-5.5-12.3-12.3-12.3H175.9c-6.8 0-12.3 5.5-12.3 12.3s5.5 12.3 12.3 12.3zM175.9 257.15h301.5c6.8 0 12.3-5.5 12.3-12.3s-5.5-12.3-12.3-12.3H175.9c-6.8 0-12.3 5.5-12.3 12.3s5.5 12.3 12.3 12.3zM175.9 419.95h301.5c6.8 0 12.3-5.5 12.3-12.3s-5.5-12.3-12.3-12.3H175.9c-6.8 0-12.3 5.5-12.3 12.3s5.5 12.3 12.3 12.3z"/></symbol><symbol viewBox="0 0 33.468 33.468" id="si-map-point" xmlns="http://www.w3.org/2000/svg"><path d="M16.734 0C9.375 0 3.408 5.966 3.408 13.325c0 11.076 13.326 20.143 13.326 20.143S30.06 23.734 30.06 13.324C30.06 5.965 24.093 0 16.734 0zm0 19.676a6.353 6.353 0 1 1 6.352-6.351 6.352 6.352 0 0 1-6.352 6.351z"/></symbol><symbol viewBox="0 0 512 512" id="si-reddit" xmlns="http://www.w3.org/2000/svg"><circle cx="256" cy="256" r="256" fill="#fe5022"/><path d="M256 0c-11.317 0-22.461.744-33.391 2.167C348.216 18.53 445.217 125.933 445.217 256s-97.002 237.47-222.609 253.833A258.556 258.556 0 0 0 256 512c141.385 0 256-114.616 256-256S397.385 0 256 0z" fill="#ff3501"/><g fill="#ece5dd"><path d="M322.783 122.991c-18.719 0-33.948-15.229-33.948-33.948s15.229-33.948 33.948-33.948 33.948 15.229 33.948 33.948-15.229 33.948-33.948 33.948zM256 456.904c-96.049 0-174.191-65.16-174.191-145.252S159.951 166.4 256 166.4s174.191 65.16 174.191 145.252S352.049 456.904 256 456.904z"/><path d="M424.432 278.477c-7.866-27.651-25.328-52.607-50.498-72.169l-8.19-6.365 7.533-7.131c10.409-9.854 24.099-15.281 38.548-15.281 30.994 0 56.209 25.215 56.209 56.209 0 21.051-12.183 40.777-31.038 50.256l-9.618 4.836-2.946-10.355zm-349.43 5.518c-18.854-9.48-31.037-29.206-31.037-50.256 0-30.994 25.215-56.209 56.209-56.209 14.453 0 28.144 5.426 38.55 15.28l7.532 7.131-8.19 6.364c-25.17 19.562-42.633 44.518-50.499 72.17l-2.946 10.355-9.619-4.835z"/></g><path d="M178.087 312.209c-18.719 0-33.948-15.229-33.948-33.948s15.229-33.948 33.948-33.948 33.948 15.229 33.948 33.948-15.229 33.948-33.948 33.948zm155.826 0c-18.719 0-33.948-15.229-33.948-33.948s15.229-33.948 33.948-33.948 33.948 15.229 33.948 33.948-15.229 33.948-33.948 33.948zm8.881 58.577c-22.714 18.928-53.539 29.353-86.794 29.353s-64.08-10.425-86.794-29.353a8.349 8.349 0 0 0-10.688 12.826c25.709 21.425 60.328 33.223 97.483 33.223s71.774-11.798 97.483-33.222a8.35 8.35 0 0 0-10.69-12.827z" fill="#fe5022"/><path d="M264.348 178.087v-71.896l18.201-6.067c4.867 17.653 21.055 30.659 40.234 30.659 23.016 0 41.739-18.724 41.739-41.739s-18.724-41.739-41.739-41.739c-20.919 0-38.289 15.469-41.281 35.57l-28.142 9.381a8.347 8.347 0 0 0-5.708 7.919v77.913h16.696zM322.783 64c13.81 0 25.043 11.234 25.043 25.043s-11.234 25.043-25.043 25.043-25.043-11.234-25.043-25.043S308.973 64 322.783 64z" fill="#ece5dd"/></symbol><symbol viewBox="0 0 56.966 56.966" id="si-search" xmlns="http://www.w3.org/2000/svg"><path d="M55.146 51.887L41.588 37.786A22.926 22.926 0 0 0 46.984 23c0-12.682-10.318-23-23-23s-23 10.318-23 23 10.318 23 23 23c4.761 0 9.298-1.436 13.177-4.162l13.661 14.208c.571.593 1.339.92 2.162.92.779 0 1.518-.297 2.079-.837a3.004 3.004 0 0 0 .083-4.242zM23.984 6c9.374 0 17 7.626 17 17s-7.626 17-17 17-17-7.626-17-17 7.626-17 17-17z"/></symbol><symbol viewBox="0 0 268.765 268.765" id="si-settings-work-tool" xmlns="http://www.w3.org/2000/svg"><path d="M267.92 119.461c-.425-3.778-4.83-6.617-8.639-6.617-12.315 0-23.243-7.231-27.826-18.414-4.682-11.454-1.663-24.812 7.515-33.231a7.463 7.463 0 0 0 .817-10.133 132.977 132.977 0 0 0-21.289-21.5c-3.063-2.458-7.557-2.116-10.213.825-8.01 8.871-22.398 12.168-33.516 7.529-11.57-4.867-18.866-16.591-18.152-29.176a7.455 7.455 0 0 0-6.595-7.849 134.163 134.163 0 0 0-30.232-.08 7.478 7.478 0 0 0-6.654 7.689c.438 12.461-6.946 23.98-18.401 28.672-10.985 4.487-25.272 1.218-33.266-7.574-2.642-2.896-7.063-3.252-10.141-.853a133.478 133.478 0 0 0-21.74 21.493c-2.481 3.086-2.116 7.559.802 10.214 9.353 8.47 12.373 21.944 7.514 33.53-4.639 11.046-16.109 18.165-29.24 18.165-4.261-.137-7.296 2.723-7.762 6.597a134.618 134.618 0 0 0-.058 30.561c.422 3.794 4.961 6.608 8.812 6.608 11.702-.299 22.937 6.946 27.65 18.415 4.698 11.454 1.678 24.804-7.514 33.23a7.469 7.469 0 0 0-.817 10.126 133.459 133.459 0 0 0 21.259 21.508c3.079 2.481 7.559 2.131 10.228-.81 8.04-8.893 22.427-12.184 33.501-7.536 11.599 4.852 18.895 16.575 18.181 29.167a7.464 7.464 0 0 0 6.595 7.85 133.572 133.572 0 0 0 30.233.081 7.479 7.479 0 0 0 6.653-7.696c-.451-12.454 6.946-23.973 18.386-28.657 11.059-4.517 25.286-1.211 33.281 7.572a7.51 7.51 0 0 0 10.142.848 133.787 133.787 0 0 0 21.74-21.494 7.461 7.461 0 0 0-.803-10.213c-9.353-8.47-12.388-21.946-7.529-33.524 4.568-10.899 15.612-18.217 27.491-18.217l1.662.043c3.853.313 7.398-2.655 7.865-6.588a134.504 134.504 0 0 0 .06-30.561zm-133.325 60.03c-24.718 0-44.824-20.106-44.824-44.824 0-24.717 20.106-44.824 44.824-44.824 24.717 0 44.823 20.107 44.823 44.824 0 24.718-20.106 44.824-44.823 44.824z" fill-rule="evenodd" clip-rule="evenodd"/></symbol><symbol viewBox="0 0 438.529 438.529" id="si-user" xmlns="http://www.w3.org/2000/svg"><path d="M219.265 219.267c30.271 0 56.108-10.71 77.518-32.121 21.412-21.411 32.12-47.248 32.12-77.515 0-30.262-10.708-56.1-32.12-77.516C275.366 10.705 249.528 0 219.265 0S163.16 10.705 141.75 32.115c-21.414 21.416-32.121 47.253-32.121 77.516 0 30.267 10.707 56.104 32.121 77.515 21.416 21.411 47.251 32.121 77.515 32.121z"/><path d="M419.258 335.036c-.668-9.609-2.002-19.985-3.997-31.121-1.999-11.136-4.524-21.457-7.57-30.978-3.046-9.514-7.139-18.794-12.278-27.836-5.137-9.041-11.037-16.748-17.703-23.127-6.666-6.377-14.801-11.465-24.406-15.271-9.617-3.805-20.229-5.711-31.84-5.711-1.711 0-5.709 2.046-11.991 6.139a2716.072 2716.072 0 0 1-21.266 13.708c-7.898 5.037-18.182 9.609-30.834 13.695-12.658 4.093-25.361 6.14-38.118 6.14-12.752 0-25.456-2.047-38.112-6.14-12.655-4.086-22.936-8.658-30.835-13.695a2784.143 2784.143 0 0 1-21.267-13.708c-6.283-4.093-10.278-6.139-11.991-6.139-11.61 0-22.222 1.906-31.833 5.711-9.613 3.806-17.749 8.898-24.412 15.271-6.661 6.379-12.562 14.086-17.699 23.127-5.137 9.042-9.229 18.326-12.275 27.836-3.045 9.521-5.568 19.842-7.566 30.978-2 11.136-3.332 21.505-3.999 31.121a427.742 427.742 0 0 0-.998 29.554c0 22.836 6.949 40.875 20.842 54.104 13.896 13.224 32.36 19.835 55.39 19.835h249.533c23.028 0 41.49-6.611 55.388-19.835 13.901-13.229 20.845-31.265 20.845-54.104-.002-10.088-.334-19.938-1.008-29.554z"/></symbol></svg>